<?xml version="1.0" encoding="utf-8"?>
<!-- Generator: Adobe Illustrator 25.0.1, SVG Export Plug-In . SVG Version: 6.00 Build 0)  -->
<svg version="1.1" id="Layer_1" xmlns="http://www.w3.org/2000/svg" xmlns:xlink="http://www.w3.org/1999/xlink" x="0px" y="0px"
	 viewBox="0 0 182.6 270.9" style="enable-background:new 0 0 182.6 270.9;" xml:space="preserve">
<style type="text/css">
	.st0{fill-rule:evenodd;clip-rule:evenodd;fill:#000001;}
	.st1{fill-rule:evenodd;clip-rule:evenodd;fill:#008EA1;}
	.st2{fill-rule:evenodd;clip-rule:evenodd;fill:#FACBCB;}
	.st3{fill-rule:evenodd;clip-rule:evenodd;fill:#5E5F5F;}
	.st4{fill-rule:evenodd;clip-rule:evenodd;fill:#C83637;}
	.st5{fill-rule:evenodd;clip-rule:evenodd;fill:#EB6363;}
	.st6{fill-rule:evenodd;clip-rule:evenodd;fill:#9ADAF2;}
	.st7{fill-rule:evenodd;clip-rule:evenodd;fill:#007FA5;}
	.st8{fill-rule:evenodd;clip-rule:evenodd;fill:#22A7D4;}
	.st9{fill-rule:evenodd;clip-rule:evenodd;fill:#00425D;}
	.st10{fill-rule:evenodd;clip-rule:evenodd;fill:#006B8E;}
	.st11{fill-rule:evenodd;clip-rule:evenodd;fill:#C0E7FA;stroke:#231F20;stroke-width:0.5;stroke-miterlimit:2.6131;}
	.st12{fill-rule:evenodd;clip-rule:evenodd;fill:#FFCC02;}
	.st13{fill-rule:evenodd;clip-rule:evenodd;fill:#8BD4E6;}
	.st14{fill-rule:evenodd;clip-rule:evenodd;fill:#ED3180;}
	.st15{fill-rule:evenodd;clip-rule:evenodd;fill:#50B748;}
	.st16{fill-rule:evenodd;clip-rule:evenodd;fill:#FFFFFF;}
	.st17{fill-rule:evenodd;clip-rule:evenodd;fill:#93C1D7;}
	.st18{fill-rule:evenodd;clip-rule:evenodd;fill:#4695B2;}
</style>
<path class="st0" d="M102.4,263.9c35.2,0,63.7,1.6,63.7,3.5c0,1.9-28.5,3.5-63.7,3.5c-35.2,0-63.7-1.6-63.7-3.5
	C38.7,265.4,67.2,263.9,102.4,263.9z"/>
<path class="st0" d="M57.8,66.3h87c4.3,0,8.2,1.8,11,4.6c2.8,2.8,4.6,6.7,4.6,11v123.8c0,4.3-1.8,8.2-4.6,11l0,0
	c-2.8,2.8-6.7,4.6-11,4.6h-87c-4.3,0-8.2-1.8-11-4.6c-2.8-2.8-4.6-6.7-4.6-11V81.9c0-4.3,1.8-8.2,4.6-11l0,0
	C49.6,68.1,53.5,66.3,57.8,66.3L57.8,66.3z M144.8,72.4h-87c-2.6,0-5,1.1-6.7,2.8l0,0c-1.7,1.7-2.8,4.1-2.8,6.7v123.8
	c0,2.6,1.1,5,2.8,6.7c1.7,1.7,4.1,2.8,6.7,2.8h87c2.6,0,5-1.1,6.7-2.8c1.7-1.7,2.8-4.1,2.8-6.7V81.9c0-2.6-1.1-5-2.8-6.7
	C149.8,73.5,147.4,72.4,144.8,72.4z"/>
<path class="st0" d="M160.4,198.8v22.3c0,4.3-1.8,8.2-4.6,11c-2.8,2.8-6.7,4.6-11,4.6h-87c-4.3,0-8.2-1.8-11-4.6
	c-2.8-2.8-4.6-6.7-4.6-11v-22.3h6.1v22.3c0,2.6,1.1,5,2.8,6.7c1.7,1.7,4.1,2.8,6.7,2.8h87c2.6,0,5-1.1,6.7-2.8
	c1.7-1.7,2.8-4.1,2.8-6.7v-22.3H160.4z"/>
<path class="st0" d="M157.3,160.4h6.2c0.7,0,1.4-0.3,1.9-0.8c0.5-0.5,0.8-1.1,0.8-1.9v-10.1c0-0.7-0.3-1.4-0.8-1.9l0,0
	c-0.5-0.5-1.1-0.8-1.9-0.8h-6.2v-6.1h6.2c2.4,0,4.6,1,6.2,2.6l0,0c1.6,1.6,2.6,3.8,2.6,6.2v10.1c0,2.4-1,4.6-2.6,6.2
	c-1.6,1.6-3.8,2.6-6.2,2.6h-6.2V160.4z"/>
<path class="st0" d="M156.1,164.4c-0.5-1.6,0.3-3.3,1.9-3.9c1.6-0.5,3.3,0.3,3.9,1.9l11.4,33.9c0.3,0.8,0.2,1.7-0.2,2.4
	c-0.8,1.6-1.1,2.9-1,3.9l0.1,0.3l4.1-4.8l-10-45c-0.4-1.6,0.7-3.3,2.3-3.6c1.6-0.4,3.3,0.7,3.6,2.3l10.3,46.3c0.3,0.9,0.1,2-0.6,2.8
	l-7.5,8.9c-1.1,1.3-3,1.4-4.3,0.3c-2.1-1.8-3.5-3.9-4-6.4c-0.4-2.1-0.1-4.2,1-6.6L156.1,164.4z"/>
<path class="st0" d="M44.4,166.5h-6.2c-2.4,0-4.6-1-6.2-2.6c-1.6-1.6-2.6-3.8-2.6-6.2v-10.1c0-2.4,1-4.6,2.6-6.2l0,0
	c1.6-1.6,3.8-2.6,6.2-2.6h6.2v6.1h-6.2c-0.7,0-1.4,0.3-1.9,0.8l0,0c-0.5,0.5-0.8,1.1-0.8,1.9v10.1c0,0.7,0.3,1.4,0.8,1.9
	c0.5,0.5,1.1,0.8,1.9,0.8h6.2V166.5z"/>
<path class="st0" d="M44.3,140.8c0.7,1.5,0.1,3.3-1.4,4.1c-1.5,0.7-3.3,0.1-4.1-1.4l-17.6-36.5c-0.4-0.9-0.4-1.9,0.1-2.8
	c0.9-1.6,1.1-2.9,1-3.9l-0.1-0.3l-3.9,4.7l17.2,51.1c0.5,1.6-0.3,3.3-1.9,3.9c-1.6,0.5-3.3-0.3-3.9-1.9l-17.7-52.6
	c-0.4-1-0.2-2.2,0.5-3.1l7.4-8.7l0.1-0.2c1.1-1.3,3-1.4,4.3-0.3c2.1,1.8,3.5,3.9,4,6.4c0.4,2,0.1,4.1-0.9,6.4L44.3,140.8z"/>
<polygon class="st1" points="18.4,76.3 30.1,78.5 42.4,13.8 38.8,1 30.7,11.6 "/>
<path class="st2" d="M36.2,5.2c0,0-2.6,3-2.9,3.4c-0.3,0.4-2.8,3-1.3,3.3c1.9,0.5,2.6,0.3,4.4,0.4c1,0.1,4.8,1.6,5.4,1.1
	c0.6-0.6,0.4-1.9,0.2-2.6c-0.3-0.8-0.6-1.2-0.9-2.1c-1.3-3.4-0.8-1.6-4.1-3.3C36.7,5.4,36.5,5.3,36.2,5.2L36.2,5.2z"/>
<path class="st0" d="M19.6,75.4l9.7,1.8l12.1-63.4l-3-10.6L31.7,12L19.6,75.4L19.6,75.4z M29.9,79.5l-11.7-2.2
	c-0.6-0.1-0.9-0.6-0.8-1.2l12.3-64.6c0-0.2,0.1-0.3,0.2-0.4L38,0.4c0.1-0.2,0.3-0.3,0.6-0.4c0.5-0.2,1.1,0.2,1.3,0.7l3.6,12.8
	c0,0.1,0,0.3,0,0.5L31.1,78.7C31,79.2,30.5,79.6,29.9,79.5z"/>
<path class="st0" d="M36.7,12L36.7,12c0.3,0.1,0.6,0.1,0.9,0l0,0c0.3-0.1,0.6-0.2,0.8-0.3c0.5-0.3,1-0.2,1.4,0.3
	c0.2,0.2,0.4,0.4,0.6,0.6c0.2,0.2,0.5,0.3,0.8,0.3l0,0c0.1,0,0.3,0,0.4,0h0c0.1,0,0.3,0,0.4,0c0.5-0.1,1.1,0.2,1.2,0.8
	c0.1,0.5-0.2,1.1-0.8,1.2c-0.3,0.1-0.6,0.1-0.8,0.1c-0.3,0-0.5,0-0.8-0.1l-0.1,0c-0.6-0.1-1.1-0.3-1.5-0.6c-0.2-0.1-0.4-0.3-0.6-0.5
	c-0.2,0.1-0.5,0.2-0.7,0.2l0,0c-0.5,0.1-1.1,0.1-1.6,0l0,0c-0.6-0.1-1.1-0.3-1.5-0.6c-0.2-0.1-0.4-0.3-0.6-0.5
	c-0.2,0.1-0.5,0.2-0.7,0.2c-0.5,0.1-1.1,0.1-1.6,0c-0.3-0.1-0.6-0.1-0.8-0.2c-0.3-0.1-0.5-0.2-0.8-0.4c-0.5-0.3-0.6-0.9-0.3-1.4
	c0.3-0.5,0.9-0.6,1.4-0.3c0.1,0.1,0.3,0.2,0.4,0.2c0.1,0.1,0.3,0.1,0.5,0.1c0.3,0.1,0.6,0.1,0.9,0c0.3-0.1,0.6-0.2,0.8-0.3
	c0.5-0.3,1.1-0.2,1.4,0.2c0.2,0.2,0.4,0.4,0.6,0.6C36.1,11.8,36.4,11.9,36.7,12z"/>
<path class="st0" d="M37.6,7c-0.4-0.1-0.9-0.3-1.2-0.5c-0.4-0.2-0.7-0.6-1-0.9c-0.3-0.5-0.2-1.1,0.2-1.4c0.5-0.3,1.1-0.2,1.4,0.2
	c0.1,0.2,0.3,0.3,0.4,0.4C37.6,4.9,37.8,5,38,5l0,0c0.2,0,0.4,0,0.6,0l0,0c0.2,0,0.4-0.1,0.5-0.2c0.5-0.3,1.1-0.2,1.4,0.3
	c0.3,0.5,0.2,1.1-0.3,1.4c-0.4,0.2-0.8,0.4-1.2,0.5l0,0C38.6,7.1,38.1,7.1,37.6,7L37.6,7z"/>
<path class="st0" d="M33.4,11.5c0.1-0.6,0.6-0.9,1.2-0.8c0.6,0.1,0.9,0.6,0.8,1.2L23,77.1c-0.1,0.6-0.6,0.9-1.2,0.8
	c-0.6-0.1-0.9-0.6-0.8-1.2L33.4,11.5z"/>
<path class="st0" d="M38,12.3c0.1-0.6,0.6-0.9,1.2-0.8c0.6,0.1,0.9,0.6,0.8,1.2L27.5,78c-0.1,0.6-0.6,0.9-1.2,0.8
	c-0.6-0.1-0.9-0.6-0.8-1.2L38,12.3z"/>
<path class="st0" d="M17.8,76.1l13,2.5c1.1,0.2,1.9,1.3,1.6,2.4l-0.8,4.3c-0.2,1.1-1.3,1.9-2.4,1.6l-13-2.5
	c-1.1-0.2-1.9-1.3-1.6-2.4l0.8-4.3C15.6,76.7,16.7,75.9,17.8,76.1z"/>
<path class="st3" d="M25.6,77.6l5.2,1c1.1,0.2,1.9,1.3,1.6,2.4l-0.8,4.3c-0.2,1.1-1.3,1.9-2.4,1.6L24,86L25.6,77.6z"/>
<path class="st0" d="M18,75.1l13,2.5c0.8,0.2,1.5,0.6,2,1.3l0,0.1c0.4,0.6,0.6,1.4,0.4,2.2l-0.8,4.3c-0.2,0.8-0.6,1.5-1.3,2
	c-0.6,0.4-1.5,0.6-2.3,0.5l-13-2.5c-0.8-0.2-1.5-0.6-2-1.3c-0.4-0.7-0.6-1.5-0.5-2.3l0.8-4.3c0.2-0.8,0.6-1.5,1.3-2l0.1,0
	C16.4,75.2,17.2,75,18,75.1L18,75.1z M30.6,79.6l-13-2.5c-0.3-0.1-0.5,0-0.7,0.1l0,0c-0.2,0.2-0.4,0.4-0.4,0.7l-0.8,4.3
	c-0.1,0.3,0,0.6,0.2,0.8c0.1,0.2,0.4,0.4,0.7,0.4l13,2.5c0.3,0.1,0.6,0,0.8-0.2c0.2-0.1,0.4-0.4,0.4-0.7l0.8-4.3
	c0.1-0.3,0-0.5-0.1-0.7l0,0C31.1,79.8,30.8,79.7,30.6,79.6z"/>
<rect x="35.3" y="79" transform="matrix(0.187 -0.9824 0.9824 0.187 -52.5504 104.7449)" class="st3" width="3.3" height="10.2"/>
<path class="st0" d="M32.5,80.5l10,1.9c0.6,0.1,0.9,0.6,0.8,1.2l-0.6,3.3c-0.1,0.6-0.6,0.9-1.2,0.8l-10-1.9
	c-0.6-0.1-0.9-0.6-0.8-1.2l0.6-3.3C31.4,80.8,31.9,80.4,32.5,80.5L32.5,80.5z M41.2,84.2l-8-1.5L32.9,84l8,1.5L41.2,84.2z"/>
<rect x="8.3" y="73.9" transform="matrix(0.187 -0.9824 0.9824 0.187 -69.4921 73.9727)" class="st3" width="3.3" height="10.2"/>
<path class="st0" d="M5.4,75.4l10,1.9c0.6,0.1,0.9,0.6,0.8,1.2l-0.6,3.3c-0.1,0.6-0.6,0.9-1.2,0.8l-10-1.9c-0.6-0.1-0.9-0.6-0.8-1.2
	l0.6-3.3C4.3,75.6,4.9,75.3,5.4,75.4L5.4,75.4z M14.1,79.1l-8-1.5l-0.2,1.3l8,1.5L14.1,79.1z"/>
<path class="st3" d="M42.8,81.2c2.1,0.4,3.5,2.4,3.1,4.6c-0.4,2.1-2.4,3.5-4.6,3.1c-2.1-0.4-3.5-2.4-3.1-4.6
	C38.6,82.2,40.6,80.8,42.8,81.2z"/>
<path class="st0" d="M43,80.3L43,80.3c1.3,0.3,2.4,1,3.1,2.1c0.7,1,1,2.3,0.8,3.6c0,0.1,0,0.1,0,0.2c-0.3,1.3-1,2.4-2,3.1
	c-1,0.7-2.3,1-3.6,0.8l-0.2,0c-1.3-0.3-2.4-1-3.1-2c-0.7-1-1-2.4-0.8-3.7c0.3-1.3,1-2.4,2.1-3.2l0.1,0C40.3,80.3,41.6,80,43,80.3
	L43,80.3L43,80.3z M44.4,83.5c-0.4-0.6-1-1-1.8-1.2l0,0c-0.8-0.1-1.5,0-2.1,0.4l0,0c-0.6,0.4-1.1,1.1-1.2,1.9
	c-0.1,0.8,0,1.6,0.4,2.2c0.4,0.6,1.1,1.1,1.8,1.2l0,0c0.8,0.1,1.6,0,2.2-0.4c0.6-0.4,1-1,1.2-1.8l0,0C45,84.8,44.8,84.1,44.4,83.5z"
	/>
<path class="st4" d="M19.6,85.1l6.2,1.2l2.1,0.4l-0.4,2.1L27,91.3l-5.4,28.5c-0.2,1.1-1.3,1.9-2.5,1.7l-6.2-1.2
	c-1.1-0.2-1.9-1.3-1.7-2.5l5.4-28.5l0.5-2.5l0.4-2.1L19.6,85.1z"/>
<path class="st5" d="M19.6,85.1L24,86l-0.4,2l-6.3,33.1l-4.4-0.8c-1.1-0.2-1.9-1.3-1.7-2.5l5.4-28.5l0.5-2.5l0.4-2.1L19.6,85.1z"/>
<path class="st0" d="M19.8,84.1l8.3,1.6c0.6,0.1,0.9,0.6,0.8,1.2l-6.3,33c-0.2,0.9-0.7,1.6-1.3,2l-0.1,0c-0.7,0.4-1.5,0.6-2.3,0.4
	l-6.3-1.2c-0.8-0.2-1.5-0.7-1.9-1.3c-0.4-0.6-0.6-1.4-0.5-2.3c2-11,4.2-22.1,6.3-33.1c0.1-0.6,0.6-0.9,1.2-0.8L19.8,84.1L19.8,84.1z
	 M25.6,87.3l-7.3-1.4c-2,10.7-4,21.4-6.1,32c-0.1,0.3,0,0.6,0.2,0.8c0.2,0.2,0.4,0.4,0.7,0.5l6.2,1.2c0.3,0.1,0.6,0,0.8-0.1l0,0
	c0.2-0.2,0.4-0.4,0.5-0.7l6.1-32L25.6,87.3z"/>
<path class="st3" d="M5.7,74.2c2.1,0.4,3.5,2.4,3.1,4.6c-0.4,2.1-2.4,3.5-4.6,3.1c-2.1-0.4-3.5-2.4-3.1-4.6
	C1.5,75.2,3.5,73.8,5.7,74.2z"/>
<path class="st0" d="M5.9,73.2L5.9,73.2c1.3,0.3,2.4,1,3.1,2.1c0.7,1,1,2.3,0.8,3.6c0,0.1,0,0.1,0,0.2c-0.3,1.3-1,2.4-2,3.1
	c-1,0.7-2.3,1-3.6,0.8l-0.2,0c-1.3-0.3-2.4-1-3.1-2c-0.7-1-1-2.4-0.8-3.7c0.3-1.3,1-2.4,2.1-3.2l0.1,0C3.2,73.2,4.5,72.9,5.9,73.2
	L5.9,73.2L5.9,73.2z M7.3,76.4c-0.4-0.6-1-1.1-1.8-1.2l0,0c-0.8-0.1-1.5,0-2.1,0.4l0,0c-0.6,0.4-1.1,1.1-1.2,1.9
	c-0.1,0.8,0,1.6,0.4,2.2c0.4,0.6,1.1,1.1,1.8,1.2l0,0c0.8,0.1,1.6,0,2.2-0.4c0.6-0.4,1.1-1,1.2-1.8l0,0C7.9,77.8,7.7,77,7.3,76.4z"
	/>
<path class="st0" d="M15.4,89.6c0.2,0,0.4-0.1,0.6,0h0v0c1.7,0.1,3.8,1.7,5.3,3.5c3.2,3.7,0.5,9.9-2.5,14.4
	c-2.6,3.8-5.6,4.1-7.8,1.8c-1.5-1.6-1.6-4.7-0.3-6.5c-1.5-2.1-0.7-5.8,1.5-6.5C11.2,92.7,12.8,90,15.4,89.6z"/>
<path class="st6" d="M48.3,81.9v116.9v6.9c0,2.6,1.1,5,2.8,6.7c1.7,1.7,4.1,2.8,6.7,2.8h87c2.6,0,5-1.1,6.7-2.8
	c1.7-1.7,2.8-4.1,2.8-6.7v-6.9V81.9c0-2.6-1.1-5-2.8-6.7c-1.7-1.7-4.1-2.8-6.7-2.8h-87c-2.6,0-5,1.1-6.7,2.8l0,0
	C49.4,76.9,48.3,79.3,48.3,81.9z"/>
<path class="st7" d="M61.2,215.2h83.6c2.6,0,5-1.1,6.7-2.8c1.7-1.7,2.8-4.1,2.8-6.7v-6.9V81.9c0-2.6-1.1-5-2.8-6.7s-4.1-2.8-6.7-2.8
	H61.2c-2.6,0-5,1.1-6.7,2.8l0,0c-1.7,1.7-2.8,4.1-2.8,6.7v116.9v6.9c0,2.6,1.1,5,2.8,6.7C56.2,214.2,58.6,215.2,61.2,215.2z"/>
<path class="st8" d="M61.2,215.2H140c2.6,0,5-1.1,6.7-2.8c1.7-1.7,2.8-4.1,2.8-6.7v-6.9V81.9c0-2.6-1.1-5-2.8-6.7
	c-1.7-1.7-4.1-2.8-6.7-2.8H61.2c-2.6,0-5,1.1-6.7,2.8l0,0c-1.7,1.7-2.8,4.1-2.8,6.7v116.9v6.9c0,2.6,1.1,5,2.8,6.7
	C56.2,214.2,58.6,215.2,61.2,215.2z"/>
<path class="st9" d="M144.8,221.4h-87c-3.6,0-6.9-1.2-9.5-3.2v3c0,2.6,1.1,5,2.8,6.7c1.7,1.7,4.1,2.8,6.7,2.8h87
	c2.6,0,5-1.1,6.7-2.8c1.7-1.7,2.8-4.1,2.8-6.7v-3C151.6,220.1,148.3,221.4,144.8,221.4z"/>
<path class="st10" d="M144.8,221.4h-5.4H57.8c-3.6,0-6.9-1.2-9.5-3.2v2.7v0.3c0,2.6,1.1,5,2.8,6.7c1.7,1.7,4.1,2.8,6.7,2.8h81.6
	c2.6,0,5-1.1,6.7-2.8c1.7-1.7,2.8-4.1,2.8-6.7v-0.3C147.5,221.2,146.2,221.4,144.8,221.4z"/>
<rect x="59.4" y="83.3" class="st11" width="83.8" height="59.5"/>
<path class="st0" d="M59.2,79.6h84.5c1.7,0,3.1,1.4,3.1,3.1V142c0,1.7-1.4,3.1-3.1,3.1H59.2c-1.7,0-3.1-1.4-3.1-3.1V82.7
	C56.1,81,57.5,79.6,59.2,79.6L59.2,79.6z M140.6,85.8H62.2v53.2h78.4V85.8z"/>
<path class="st0" d="M69.1,166.3h6.7c2.8,0,5.1,2.3,5.1,5.1v0.3h0.3c2.8,0,5.1,2.3,5.1,5.1v6.7c0,2.8-2.3,5.1-5.1,5.1h-0.3v0.3
	c0,2.8-2.3,5.1-5.1,5.1h-6.7c-2.8,0-5.1-2.3-5.1-5.1v-0.3h-0.3c-2.8,0-5.1-2.3-5.1-5.1v-6.7c0-2.8,2.3-5.1,5.1-5.1H64v-0.3
	C64,168.6,66.3,166.3,69.1,166.3z"/>
<polygon class="st12" points="69.1,171.4 75.8,171.4 75.8,176.8 81.2,176.8 81.2,183.5 75.8,183.5 75.8,188.9 69.1,188.9 
	69.1,183.5 63.7,183.5 63.7,176.8 69.1,176.8 "/>
<path class="st0" d="M117.8,162.4l4.2,8.4c1.3,2.5,0.2,5.6-2.3,6.8c-0.7,0.4-1.5,0.5-2.3,0.5v0H109c-2.8,0-5.1-2.3-5.1-5.1
	c0-1,0.3-1.9,0.8-2.7l4-8c1.3-2.5,4.3-3.5,6.8-2.3C116.5,160.7,117.3,161.5,117.8,162.4z"/>
<polygon class="st13" points="113.2,164.7 117.5,173.1 109,173.1 "/>
<path class="st0" d="M113.2,182.2c2.5,0,4.8,1,6.5,2.7l0,0c1.7,1.7,2.7,4,2.7,6.5c0,2.5-1,4.8-2.7,6.5l0,0c-1.7,1.7-4,2.7-6.5,2.7
	c-2.5,0-4.9-1-6.5-2.7c-0.1-0.1-0.3-0.3-0.4-0.4c-1.4-1.6-2.3-3.8-2.3-6.1c0-2.5,1-4.9,2.7-6.5C108.4,183.3,110.7,182.2,113.2,182.2
	L113.2,182.2z M113.9,190.8l-0.6,0.6c0.8-0.8,0.8-0.8,0,0l0,0L113.9,190.8L113.9,190.8L113.9,190.8z M113.2,191.4L113.2,191.4
	L113.2,191.4L113.2,191.4L113.2,191.4L113.2,191.4L113.2,191.4z M113.2,191.4L113.2,191.4L113.2,191.4L113.2,191.4L113.2,191.4
	L113.2,191.4L113.2,191.4z"/>
<path class="st14" d="M113.2,187.3c2.3,0,4.1,1.8,4.1,4.1c0,2.3-1.8,4.1-4.1,4.1c-2.3,0-4.1-1.8-4.1-4.1
	C109.1,189.2,111,187.3,113.2,187.3z"/>
<path class="st0" d="M136.2,159.7c2.5,0,4.8,1,6.5,2.7l0,0c1.7,1.7,2.7,4,2.7,6.5c0,2.5-1,4.9-2.7,6.5c-0.1,0.1-0.3,0.3-0.4,0.4
	c-1.6,1.4-3.8,2.3-6.1,2.3c-2.5,0-4.9-1-6.5-2.7s-2.7-4-2.7-6.5c0-2.5,1-4.8,2.7-6.5l0,0C131.3,160.7,133.6,159.7,136.2,159.7
	L136.2,159.7z M136.2,168.9L136.2,168.9L136.2,168.9L136.2,168.9L136.2,168.9z M136.2,168.9L136.2,168.9L136.2,168.9L136.2,168.9z"
	/>
<path class="st15" d="M136.2,164.8c2.3,0,4.1,1.8,4.1,4.1s-1.8,4.1-4.1,4.1c-2.3,0-4.1-1.8-4.1-4.1S133.9,164.8,136.2,164.8z"/>
<path class="st0" d="M58.9,158.6c-1.7,0-3.1-1.4-3.1-3.1s1.4-3.1,3.1-3.1h23.3c1.7,0,3.1,1.4,3.1,3.1s-1.4,3.1-3.1,3.1H58.9z"/>
<path class="st0" d="M93.6,158.6c-1.7,0-3.1-1.4-3.1-3.1s1.4-3.1,3.1-3.1h4.1c1.7,0,3.1,1.4,3.1,3.1s-1.4,3.1-3.1,3.1H93.6z"/>
<path class="st0" d="M59.8,207.8c-1.7,0-3.1-1.4-3.1-3.1c0-1.7,1.4-3.1,3.1-3.1H66c1.7,0,3.1,1.4,3.1,3.1c0,1.7-1.4,3.1-3.1,3.1
	H59.8z"/>
<path class="st0" d="M78.9,207.8c-1.7,0-3.1-1.4-3.1-3.1c0-1.7,1.4-3.1,3.1-3.1h6.1c1.7,0,3.1,1.4,3.1,3.1c0,1.7-1.4,3.1-3.1,3.1
	H78.9z"/>
<path class="st0" d="M78.3,107.1c-0.7,1.5-2.5,2.2-4,1.6c-1.5-0.7-2.2-2.5-1.6-4c1-2.2,2.5-4,4.5-5.3c1.9-1.2,4.2-2,6.6-2
	c2.4,0,4.7,0.7,6.6,2c2,1.3,3.5,3.1,4.5,5.3c0.7,1.5,0,3.3-1.6,4c-1.5,0.7-3.3,0-4-1.6c-0.5-1.1-1.3-2-2.2-2.6c-0.9-0.6-2.1-1-3.3-1
	c-1.2,0-2.4,0.4-3.3,1C79.5,105.2,78.8,106.1,78.3,107.1L78.3,107.1z M86,119.2c-0.5-1.6,0.4-3.3,2-3.8c1.6-0.5,3.3,0.4,3.8,2
	c0.6,2,1.9,3.7,3.6,4.9c1.6,1.2,3.6,1.9,5.8,1.9c2.2,0,4.2-0.7,5.8-1.9c1.7-1.2,2.9-2.9,3.6-4.9c0.5-1.6,2.2-2.5,3.8-2
	c1.6,0.5,2.5,2.2,2,3.8c-1.1,3.2-3.1,6-5.8,8c-2.6,1.9-5.9,3-9.4,3c-3.5,0-6.7-1.1-9.4-3C89.1,125.2,87.1,122.4,86,119.2L86,119.2z
	 M113.5,107.1c-0.7,1.5-2.5,2.2-4,1.6c-1.5-0.7-2.2-2.5-1.6-4c1-2.2,2.5-4,4.5-5.3c1.9-1.2,4.2-2,6.6-2c2.4,0,4.7,0.7,6.6,2
	c2,1.3,3.5,3.1,4.5,5.3c0.7,1.5,0,3.3-1.6,4c-1.5,0.7-3.3,0-4-1.6c-0.5-1.1-1.3-2-2.2-2.6c-0.9-0.6-2.1-1-3.3-1
	c-1.2,0-2.4,0.4-3.3,1C114.7,105.2,114,106.1,113.5,107.1z"/>
<path class="st8" d="M36.7,139L24,112.6l-1.1,5.8l8.1,24.3c0.3-0.4,0.6-0.8,1-1.2l0,0C33.3,140.2,34.9,139.4,36.7,139z"/>
<path class="st8" d="M38.2,145c-0.7,0-1.4,0.3-1.9,0.8l0,0c-0.5,0.5-0.8,1.1-0.8,1.9v10.1c0,0.7,0.3,1.4,0.8,1.9
	c0.5,0.5,1.1,0.8,1.9,0.8h4v-15.3c-0.5,0.1-1,0.1-1.5-0.1H38.2z"/>
<path class="st8" d="M160.4,145v15.4h3.1c0.7,0,1.4-0.3,1.9-0.8c0.5-0.5,0.8-1.1,0.8-1.9v-10.1c0-0.7-0.3-1.4-0.8-1.9l0,0
	c-0.5-0.5-1.1-0.8-1.9-0.8H160.4z"/>
<path class="st8" d="M168.8,164.7c-1.5,1.1-3.3,1.8-5.3,1.8h-0.3l10.1,29.9c0.3,0.8,0.2,1.7-0.2,2.4c-0.8,1.6-1.1,2.9-1,3.9l0.1,0.3
	l4.1-4.8L168.8,164.7z"/>
<path class="st0" d="M70.4,256.2h-5.7c-1,0-1.9,0.4-2.6,1.1s-1.1,1.6-1.1,2.6c0,1,0.4,1.9,1.1,2.6l0,0c0.7,0.7,1.6,1.1,2.6,1.1h13.8
	c1,0,1.9-0.4,2.6-1.1c0.7-0.7,1.1-1.6,1.1-2.6l0-0.5l4-26.2l6,0.9l-3.9,26c-0.1,2.6-1.1,5-2.9,6.7c-1.8,1.8-4.2,2.9-6.9,2.9H64.8
	c-2.7,0-5.1-1.1-6.9-2.9v0c-1.8-1.8-2.9-4.2-2.9-6.9c0-2.7,1.1-5.1,2.9-6.9c1.8-1.8,4.2-2.9,6.9-2.9h14.8
	C79.5,255.5,73.4,256.2,70.4,256.2z"/>
<rect x="64.3" y="240.3" transform="matrix(0.1494 -0.9888 0.9888 0.1494 -177.5801 280.3202)" class="st0" width="19.7" height="6.1"/>
<path class="st8" d="M62.2,262.4L62.2,262.4L62.2,262.4z M82.2,259.4l3.4-22.7h-7.4l-2,13.4h3.3c0,5.4-6.1,6.1-9.1,6.1h-5.7
	c-1,0-1.9,0.4-2.6,1.1s-1.1,1.6-1.1,2.6c0,1,0.4,1.9,1.1,2.6c0.7,0.7,1.6,1.1,2.6,1.1h13.8c1,0,1.9-0.4,2.6-1.1
	c0.7-0.7,1.1-1.6,1.1-2.6L82.2,259.4z"/>
<path class="st0" d="M132.2,256.2h5.7c1,0,1.9,0.4,2.6,1.1c0.7,0.7,1.1,1.6,1.1,2.6c0,1-0.4,1.9-1.1,2.6l0,0
	c-0.7,0.7-1.6,1.1-2.6,1.1H124c-1,0-1.9-0.4-2.6-1.1c-0.7-0.7-1.1-1.6-1.1-2.6l0-0.5l-4-26.2l-6,0.9l3.9,26c0.1,2.6,1.1,5,2.9,6.7
	c1.8,1.8,4.2,2.9,6.9,2.9h13.8c2.7,0,5.1-1.1,6.9-2.9v0c1.8-1.8,2.9-4.2,2.9-6.9c0-2.7-1.1-5.1-2.9-6.9c-1.8-1.8-4.2-2.9-6.9-2.9
	h-14.8C123.1,255.5,129.2,256.2,132.2,256.2z"/>
<rect x="125.4" y="233.5" transform="matrix(0.9888 -0.1493 0.1493 0.9888 -34.9039 21.91)" class="st0" width="6.1" height="19.7"/>
<path class="st8" d="M140.4,262.4L140.4,262.4L140.4,262.4z M120.3,259.4l-3.4-22.7h7.4l2,13.4h-3.3c0,5.4,6.1,6.1,9.1,6.1h5.7
	c1,0,1.9,0.4,2.6,1.1c0.7,0.7,1.1,1.6,1.1,2.6c0,1-0.4,1.9-1.1,2.6c-0.7,0.7-1.6,1.1-2.6,1.1H124c-1,0-1.9-0.4-2.6-1.1
	c-0.7-0.7-1.1-1.6-1.1-2.6L120.3,259.4z"/>
<rect x="62.2" y="85.8" class="st16" width="4.1" height="53.2"/>
<rect x="134" y="85.8" class="st17" width="6.6" height="53.2"/>
<path class="st18" d="M54.2,227.8c-1.7-1.7-2.8-4.1-2.8-6.7v-0.3V220c-1.1-0.5-2.2-1.1-3.1-1.9v3c0,2.6,1.1,5,2.8,6.7
	c1.7,1.7,4.1,2.8,6.7,2.8h3.1C58.3,230.6,55.9,229.5,54.2,227.8z"/>
<path class="st0" d="M4.9,76c1.6,0.3,2.6,1.8,2.3,3.4c-0.3,1.6-1.8,2.6-3.4,2.3c-1.6-0.3-2.6-1.8-2.3-3.4C1.8,76.7,3.3,75.7,4.9,76z
	"/>
<path class="st0" d="M41.7,83c1.6,0.3,2.6,1.8,2.3,3.4c-0.3,1.6-1.8,2.6-3.4,2.3c-1.6-0.3-2.6-1.8-2.3-3.4
	C38.7,83.7,40.2,82.7,41.7,83z"/>
</svg>
