<?xml version="1.0" standalone="no"?>
<!DOCTYPE svg PUBLIC "-//W3C//DTD SVG 20010904//EN"
 "http://www.w3.org/TR/2001/REC-SVG-20010904/DTD/svg10.dtd">
<svg version="1.0" xmlns="http://www.w3.org/2000/svg"
 width="700.000000pt" height="700.000000pt" viewBox="0 0 700.000000 700.000000"
 preserveAspectRatio="xMidYMid meet">
<metadata>
Created by potrace 1.11, written by Peter Selinger 2001-2013
</metadata>
<g transform="translate(0.000000,700.000000) scale(0.100000,-0.100000)"
fill="#000000" stroke="none">
<path d="M3466 5390 l-28 -90 -100 0 c-68 0 -97 -3 -93 -11 4 -6 39 -31 77
-55 70 -45 70 -45 63 -82 -4 -20 -13 -48 -20 -62 -15 -30 -29 -90 -21 -90 8 0
104 68 133 93 21 19 22 19 80 -21 32 -22 65 -47 72 -56 19 -22 45 -21 36 2 -4
9 -8 24 -10 33 -2 8 -10 31 -17 50 -35 82 -35 81 47 134 41 26 75 52 75 56 0
5 -42 9 -94 9 -93 0 -94 0 -103 28 -38 105 -45 128 -46 140 0 6 -5 12 -11 12
-6 0 -24 -41 -40 -90z"/>
<path d="M4024 4812 c-28 -3 -34 -10 -57 -63 -23 -53 -28 -59 -55 -59 -19 0
-32 -6 -37 -17 -8 -24 -4 -28 23 -25 28 4 28 1 -8 -69 -16 -33 -28 -59 -25
-59 8 0 -54 -97 -71 -111 -14 -12 -15 -8 -10 32 3 24 8 72 11 107 3 35 8 69
11 75 2 7 -8 17 -24 23 -29 11 -29 11 -91 -92 -64 -106 -153 -214 -177 -214
-25 0 -26 -3 72 207 19 40 34 75 34 78 0 3 -11 5 -25 5 -26 0 -75 -40 -75 -61
0 -6 -17 -48 -39 -93 -42 -88 -114 -167 -134 -147 -7 7 -7 15 0 23 17 22 63
138 63 159 0 10 -16 36 -35 58 -19 21 -35 48 -35 59 0 11 -6 23 -12 26 -10 3
-8 9 5 19 22 18 22 30 -3 52 -26 23 -79 24 -113 3 -24 -17 -77 -99 -77 -122 0
-23 -86 -110 -102 -104 -13 5 -9 19 23 87 22 45 39 85 39 89 0 5 -11 19 -25
32 l-25 23 -22 -20 c-24 -21 -108 -62 -168 -82 -110 -36 -146 -154 -63 -208
24 -16 26 -16 39 2 18 24 18 45 0 45 -20 0 -25 20 -13 54 8 23 26 36 95 68 46
21 86 38 87 36 2 -2 -6 -21 -16 -43 -11 -22 -39 -82 -62 -134 -55 -126 -121
-196 -192 -207 -125 -18 -191 104 -100 184 24 22 32 36 28 51 -8 31 -44 26
-80 -11 -99 -102 -54 -257 83 -288 85 -20 183 22 241 103 36 49 73 117 88 162
6 19 7 19 26 -5 27 -31 21 -61 -36 -190 -50 -111 -55 -150 -25 -180 27 -27 44
-25 58 5 6 14 8 25 3 25 -5 0 -11 7 -15 15 -5 15 4 41 63 168 31 68 42 149 21
162 -16 10 -11 25 8 25 28 0 73 54 112 133 27 56 40 73 59 75 20 3 22 1 16
-15 -8 -16 -9 -40 -4 -109 1 -12 -8 -35 -18 -50 -11 -16 -40 -63 -64 -104 -24
-41 -49 -81 -56 -88 -16 -17 -16 -27 0 -40 16 -14 27 -2 82 88 60 97 63 102
81 137 17 32 34 35 34 8 0 -8 -16 -48 -35 -89 -41 -87 -42 -99 -15 -126 27
-27 58 -25 103 6 35 24 40 24 56 10 10 -9 32 -16 50 -16 26 0 43 12 100 71 38
39 80 90 92 115 13 24 26 44 29 44 3 0 4 -19 3 -42 -1 -24 -2 -50 -2 -59 -1
-9 -10 -27 -20 -40 -18 -23 -20 -23 -38 -6 -19 16 -21 16 -39 -4 -19 -21 -19
-21 6 -41 33 -27 98 -20 144 16 l35 26 25 -24 c21 -22 29 -24 57 -16 18 5 42
19 55 31 l22 21 21 -21 c23 -23 56 -21 101 8 14 10 21 11 17 4 -6 -10 2 -13
28 -13 25 0 37 5 42 18 24 70 108 225 134 246 53 45 58 34 21 -48 -61 -135
-65 -188 -17 -200 38 -10 85 16 138 74 51 57 54 62 33 79 -11 9 -21 2 -50 -38
-33 -45 -53 -61 -77 -61 -16 0 -10 27 27 104 41 89 52 139 34 161 -19 22 -66
18 -90 -7 -16 -17 -19 -18 -15 -5 6 13 2 17 -17 17 -40 0 -64 -26 -98 -109
-38 -93 -111 -191 -140 -191 -11 0 -20 4 -20 9 0 5 22 58 49 118 69 156 68
153 33 153 -35 0 -45 -13 -96 -130 -21 -47 -49 -100 -63 -118 -24 -32 -68 -60
-78 -51 -5 6 12 54 49 134 15 33 36 79 46 103 13 28 25 42 38 42 18 0 52 29
52 44 0 5 -11 6 -25 4 -32 -7 -32 -10 9 69 18 35 15 40 -30 35z"/>
<path d="M4120 4775 c-26 -32 13 -81 48 -59 21 14 28 54 10 65 -20 13 -44 11
-58 -6z"/>
<path d="M3592 4728 c-17 -17 -15 -53 3 -68 12 -10 20 -9 40 4 30 20 33 51 6
66 -25 13 -34 13 -49 -2z"/>
<path d="M400 4450 c0 -20 6 -20 931 -20 881 0 930 1 927 18 -3 16 -57 17
-931 20 -922 2 -927 2 -927 -18z"/>
<path d="M4770 4450 c0 -20 5 -20 927 -18 874 3 928 4 931 21 3 16 -46 17
-927 17 -925 0 -931 0 -931 -20z"/>
<path d="M4402 3896 c-97 -25 -163 -66 -207 -132 l-40 -59 -3 -545 c-3 -615
-5 -594 73 -674 52 -54 92 -75 170 -92 209 -46 401 34 455 189 19 54 20 82 20
555 0 543 -2 567 -58 640 -76 99 -267 154 -410 118z m173 -208 c53 -24 55 -40
55 -544 0 -303 -4 -472 -11 -491 -21 -56 -47 -73 -112 -73 -51 0 -62 4 -88 29
l-29 29 0 496 c0 342 3 503 11 520 6 13 21 29 33 34 29 15 110 14 141 0z"/>
<path d="M302 3812 c3 -55 9 -79 27 -103 20 -27 22 -38 16 -87 -4 -32 -13 -82
-21 -112 -7 -30 -16 -71 -19 -90 -3 -19 -10 -48 -15 -65 -5 -16 -12 -48 -15
-70 -3 -22 -12 -65 -20 -96 -8 -31 -17 -74 -20 -95 -3 -22 -10 -55 -16 -74 -5
-19 -14 -57 -19 -85 -4 -27 -20 -106 -35 -175 -15 -69 -29 -133 -31 -143 -2
-10 -19 -36 -39 -58 -32 -36 -35 -44 -35 -99 l0 -60 180 0 180 0 0 50 c0 30
-8 68 -21 95 -22 46 -22 70 -3 198 l6 38 116 -3 116 -3 7 -28 c4 -16 10 -60
14 -98 5 -61 3 -74 -15 -96 -15 -20 -20 -41 -20 -89 l0 -64 186 0 186 0 -4 65
c-3 57 -8 69 -36 98 -32 33 -48 72 -56 132 -3 17 -11 59 -19 95 -26 113 -49
220 -52 243 -4 31 -44 225 -55 267 -5 20 -12 56 -15 80 -3 25 -12 70 -19 100
-21 82 -47 203 -51 240 -8 60 -35 125 -58 140 -16 10 -63 15 -176 18 l-153 4
4 -70z m238 -397 c7 -44 18 -109 26 -145 8 -36 17 -85 20 -110 2 -25 11 -74
19 -108 9 -35 13 -68 9 -73 -3 -5 -46 -9 -95 -9 l-90 0 6 58 c4 31 15 97 26
146 10 49 17 91 15 93 -2 2 5 43 15 91 10 47 19 104 19 126 1 61 16 26 30 -69z"/>
<path d="M1132 3804 c3 -71 6 -78 36 -105 l32 -29 0 -533 c0 -533 0 -534 -21
-553 -31 -28 -49 -76 -49 -134 l0 -50 185 0 185 0 0 56 c0 57 -9 84 -40 119
-16 18 -18 50 -22 297 -4 258 0 309 17 241 3 -16 13 -42 22 -60 8 -17 16 -37
17 -45 2 -7 8 -26 15 -43 7 -16 19 -46 26 -65 7 -19 25 -66 40 -105 15 -38 38
-99 52 -135 13 -36 28 -74 33 -85 4 -11 18 -45 30 -76 37 -97 39 -99 134 -99
50 0 87 5 94 12 9 9 12 165 12 639 l0 626 22 29 c18 22 24 45 27 101 l3 73
-181 0 -181 0 0 -49 c0 -60 10 -87 44 -124 l26 -28 -1 -307 c0 -337 4 -322
-49 -177 -44 120 -84 223 -101 262 -11 24 -19 47 -19 53 0 9 -5 22 -46 118 -9
20 -18 44 -20 52 -11 51 -60 149 -85 173 -28 26 -33 27 -135 27 l-106 0 4 -76z"/>
<path d="M2167 3868 c-27 -22 -37 -65 -37 -169 l0 -100 77 3 c75 3 78 4 98 35
13 21 31 34 52 39 67 13 63 50 63 -545 l0 -541 -23 -15 c-33 -21 -47 -57 -47
-120 l0 -55 186 0 186 0 -4 70 c-3 65 -7 74 -36 101 l-32 30 2 537 3 537 39 3
c34 3 44 -1 65 -26 37 -41 62 -52 125 -52 l56 0 0 115 c0 110 -1 117 -25 140
l-24 25 -354 0 c-267 0 -357 -3 -370 -12z"/>
<path d="M3100 3815 c0 -62 2 -68 35 -102 l35 -36 0 -537 0 -537 -35 -36 c-33
-34 -35 -40 -35 -102 l0 -65 185 0 185 0 0 60 c0 52 -4 64 -30 94 l-30 34 2
239 3 238 100 3 c55 2 110 0 123 -3 l22 -5 0 -231 0 -230 -35 -35 c-33 -32
-35 -39 -35 -99 l0 -65 185 0 185 0 0 58 c0 56 -14 91 -47 118 -20 17 -20
1111 1 1128 32 27 46 62 46 118 l0 58 -185 0 -185 0 0 -65 c0 -62 2 -68 35
-102 l35 -36 -2 -201 -3 -201 -120 0 -120 0 -3 206 -2 206 30 38 c26 32 30 46
30 96 l0 59 -185 0 -185 0 0 -65z"/>
<path d="M5050 3826 c0 -82 9 -110 41 -131 l29 -20 0 -533 0 -534 -35 -41
c-32 -37 -35 -46 -35 -104 l0 -63 185 0 185 0 0 56 c0 58 -9 83 -41 115 -17
17 -19 35 -19 222 0 112 -3 239 -7 282 -5 58 -3 76 5 71 7 -4 12 -15 12 -25 0
-9 9 -36 20 -59 11 -22 20 -46 20 -51 0 -6 6 -25 14 -43 44 -106 121 -299 121
-308 1 -17 82 -210 98 -232 18 -27 22 -28 101 -28 50 0 87 5 94 12 9 9 12 166
12 643 0 619 0 632 20 650 17 15 20 31 20 97 l0 78 -175 0 -175 0 0 -62 c0
-58 3 -66 35 -101 l35 -38 0 -305 c0 -167 -2 -304 -4 -304 -3 0 -10 17 -16 38
-12 36 -46 130 -75 202 -42 107 -80 206 -80 210 0 3 -8 24 -17 45 -27 65 -86
218 -93 242 -3 12 -20 34 -36 48 -28 23 -38 25 -135 25 l-104 0 0 -54z"/>
<path d="M6052 3810 c3 -62 7 -73 36 -103 23 -24 40 -58 58 -118 15 -46 27
-86 27 -89 0 -3 16 -48 34 -100 19 -52 36 -102 38 -111 2 -9 18 -56 35 -105
17 -49 33 -99 36 -110 2 -12 11 -38 19 -57 12 -28 15 -80 15 -225 l0 -188 -35
-38 c-32 -36 -35 -43 -35 -102 l0 -64 180 0 180 0 0 58 c0 57 -11 83 -52 124
-16 16 -18 38 -18 213 0 107 4 204 9 217 12 28 71 220 71 230 0 4 9 28 20 54
11 25 22 55 24 67 2 12 26 87 52 167 41 126 53 150 86 181 37 35 38 38 38 102
l0 67 -175 0 -175 0 0 -74 c0 -70 2 -77 30 -103 l29 -28 -20 -70 c-26 -96 -43
-156 -69 -250 -12 -44 -25 -88 -28 -99 -6 -21 -37 71 -48 139 -3 22 -7 42 -9
46 -7 10 -57 203 -59 224 -1 11 11 32 26 47 25 24 28 32 28 97 l0 71 -176 0
-176 0 4 -70z"/>
<path d="M393 1998 c6 -19 6218 -19 6225 0 3 9 -624 12 -3113 12 -2489 0
-3116 -3 -3112 -12z"/>
<path d="M795 1868 c-3 -8 -4 -61 -3 -119 l3 -104 78 -3 c64 -2 77 0 77 13 0
12 -13 15 -60 15 l-59 0 -3 102 c-2 70 -7 103 -15 106 -7 2 -15 -3 -18 -10z"/>
<path d="M1310 1871 c0 -5 18 -32 41 -61 41 -52 42 -59 9 -90 -15 -14 -50 -64
-50 -71 0 -5 6 -9 13 -9 13 0 38 25 69 68 l16 23 22 -33 c27 -39 49 -58 67
-58 19 0 16 12 -10 40 -39 42 -59 78 -51 92 4 7 23 31 41 54 37 46 40 54 18
54 -7 0 -31 -20 -51 -45 -36 -43 -38 -44 -52 -24 -38 54 -82 87 -82 60z"/>
<path d="M2320 1761 l0 -121 48 0 c59 0 106 28 129 75 15 32 16 40 3 77 -20
55 -56 80 -125 86 l-55 4 0 -121z m130 59 c20 -20 27 -71 14 -105 -8 -20 -56
-45 -89 -45 -25 0 -25 1 -25 85 l0 85 40 0 c27 0 47 -7 60 -20z"/>
<path d="M2867 1874 c-4 -4 -7 -58 -7 -121 l0 -113 80 0 c64 0 80 3 80 15 0
12 -14 15 -65 15 l-65 0 0 35 c0 35 0 35 46 35 38 0 45 3 42 18 -2 12 -15 18
-46 20 -39 3 -42 5 -42 32 0 29 1 29 63 32 47 2 62 7 62 18 0 12 -16 16 -70
18 -39 1 -74 0 -78 -4z"/>
<path d="M3411 1854 c-17 -14 -31 -33 -31 -42 1 -36 48 -72 93 -72 14 0 30 -7
37 -15 10 -13 9 -19 -6 -36 -24 -27 -75 -22 -89 9 -12 27 -35 29 -35 3 0 -25
46 -61 77 -61 36 0 83 31 90 59 8 32 -44 81 -86 81 -37 0 -59 24 -41 45 18 22
67 19 82 -5 15 -23 38 -27 38 -5 0 21 -51 65 -77 65 -12 0 -35 -12 -52 -26z"/>
<path d="M3900 1861 c0 -13 7 -21 18 -21 15 0 17 -10 15 -82 -1 -67 -4 -84
-17 -86 -9 -2 -16 -10 -16 -18 0 -12 11 -14 52 -12 30 2 53 8 56 16 2 7 -5 12
-17 12 -20 0 -21 6 -21 84 0 77 2 84 21 89 39 10 15 32 -39 35 -47 3 -52 1
-52 -17z"/>
<path d="M4415 1870 c-74 -30 -96 -132 -41 -189 16 -17 44 -33 62 -37 53 -10
133 43 134 89 0 14 -9 17 -60 17 -47 0 -60 -3 -60 -15 0 -11 12 -15 43 -15
l42 -1 -28 -24 c-38 -33 -69 -31 -106 6 -33 33 -38 57 -19 92 17 34 39 46 80
47 30 0 42 -6 60 -30 25 -34 38 -38 38 -12 0 23 -35 57 -73 71 -33 13 -44 13
-72 1z"/>
<path d="M4927 1873 c-4 -3 -7 -57 -7 -120 0 -94 3 -113 15 -113 12 0 15 17
15 88 1 84 1 86 18 66 47 -59 66 -82 90 -116 45 -63 52 -52 52 82 0 100 -2
120 -15 120 -12 0 -15 -17 -15 -87 -1 -100 8 -102 -85 20 -51 67 -57 72 -68
60z"/>
<path d="M5474 1867 c-2 -7 -3 -60 -2 -118 l3 -104 78 -3 c64 -2 77 0 77 13 0
12 -13 15 -60 15 l-60 0 0 35 c0 34 1 35 41 35 33 0 40 3 37 18 -2 12 -14 18
-41 20 -33 3 -37 6 -37 32 0 28 1 29 57 32 46 2 59 7 61 21 3 15 -6 17 -73 17
-53 0 -77 -4 -81 -13z"/>
<path d="M5990 1760 c0 -100 3 -120 15 -120 11 0 15 12 15 46 l0 46 54 -46
c48 -41 87 -59 86 -38 -1 4 -23 25 -50 47 l-49 40 34 13 c36 14 50 45 39 86
-7 30 -42 46 -99 46 l-45 0 0 -120z m115 50 c0 -22 -5 -25 -42 -28 -42 -3 -43
-2 -43 28 0 30 1 31 43 28 37 -3 42 -6 42 -28z"/>
<path d="M390 1540 c0 -7 1045 -10 3115 -10 2070 0 3115 3 3115 10 0 7 -1045
10 -3115 10 -2070 0 -3115 -3 -3115 -10z"/>
</g>
</svg>
