<svg xmlns="http://www.w3.org/2000/svg" xmlns:xlink="http://www.w3.org/1999/xlink" width="526" height="295" style="background:#fff" viewBox="0 0 526 295">
  <defs>
    <path id="artboard-a" d="M283.040536,-1 C247.255554,20.5174268 136.048632,124.308253 254.83744,188.817538 C373.626248,253.326822 503.051618,141.125204 528,290 C528,290 527.666886,193 527.000659,-1 C364.360577,-1 283.040536,-1 283.040536,-1 Z"/>
  </defs>
  <g fill="none" fill-rule="evenodd">
    <mask id="artboard-b" fill="#fff">
      <use xlink:href="#artboard-a"/>
    </mask>
    <use fill="#47B04B" xlink:href="#artboard-a"/>
    <g mask="url(#artboard-b)">
      <g transform="translate(-175 -56)">
        <rect width="400" height="700" x="150" y="-149" fill="#4CAF50" fill-rule="nonzero" transform="rotate(90 350 201)"/>
        <rect width="700" height="400" y="1"/>
        <g transform="translate(563 169)">
          <ellipse cx="66.9" cy="64.5" fill="#020202" fill-rule="nonzero" opacity=".1" rx="52.9" ry="27.1"/>
          <g fill-rule="nonzero">
            <path fill="#F1F1F1" d="M64.3,11.8 C66.5,14 68.4,16.5 69.9,19 C70,19.1 70,19.2 70.1,19.3 C70.2,19.4 70.2,19.4 70.2,19.5 L67.5,18.1 L67.1,31.7 L74.2,43.8 L74.9,42.6 C74.9,42.7 74.9,42.9 74.8,43 C74,48.7 71.9,54.3 68.6,59.2 C68,60 67.4,60.8 66.8,61.5 L66.7,61.6 L67,59 L53.6,63 L44,74 L46.3,74.6 C39.1,76.3 31.5,75.8 24.6,73.1 L26.5,72 L18.6,60.1 L6.1,54.5 L6.3,58.2 C2.2,51.8 0.3,44.3 0.5,37 L1.6,38.4 L10,27.2 L12.1,13.6 L9,14.4 C9.3,14.1 9.5,13.8 9.8,13.5 C10.1,13.1 10.6,12.7 11,12.1 C11,12.1 11,12.1 11.1,12 C11.2,11.9 11.3,11.8 11.4,11.7 C15.9,7.2 21.3,4 27,2.3 C27.4,2.3 40.2,7.7 40.2,7.7 L54.1,5.4 L53.3,4.1 C53.4,4.2 53.6,4.2 53.7,4.3 C53.9,4.4 54.2,4.5 54.3,4.6 L54.4,4.6 C54.9,4.9 55.5,5.1 56,5.4 C56.3,5.5 56.5,5.7 56.7,5.8 C56.8,5.9 57,5.9 57.1,6.1 C59.7,7.6 62.1,9.6 64.3,11.8 Z M50.7,32.3 L39.9,23.2 C39.1,22.4 37.7,22.7 36.8,22.9 L24.8,30.4 C23.7,31 23.4,32.3 23.7,33.2 L27.2,46.8 C27.5,47.6 28.6,48.7 29.7,48.7 L43.5,49.7 C44.6,49.7 45.7,49.1 46,48.3 L51.4,35.3 C51.8,34.5 51.6,33.1 50.7,32.3 Z"/>
            <path fill="#F1F1F1" d="M69.9 19C68.3 16.5 66.5 14 64.3 11.8 62.1 9.6 59.7 7.6 57 6 59.5 7.6 62 9.4 64.1 11.6 66.5 13.9 68.4 16.4 69.9 19zM56.7 5.9C56.4 5.8 56.2 5.6 56 5.5 56.2 5.5 56.5 5.7 56.7 5.9zM70.1 19.3C70.2 19.4 70.2 19.4 70.2 19.5 70.2 19.4 70.2 19.4 70.1 19.3z"/>
            <path fill="#474646" d="M67.5,18.1 L70.2,19.5 C74.4,26.8 75.9,35.1 74.9,43.1 C74.9,43 74.9,42.8 75,42.7 L74.3,43.9 L67.2,31.8 L67.5,18.1 Z"/>
            <path fill="#F1F1F1" d="M56 5.4C55.5 5.1 55 4.8 54.4 4.6 54.9 4.8 55.5 5.2 56 5.4zM54.3 4.6C54.1 4.5 53.8 4.4 53.7 4.3 53.9 4.3 54.1 4.4 54.3 4.6z"/>
            <path fill="#474646" d="M26.9,2.3 C35.5,-0.3 44.9,0.3 53.2,4.1 L54,5.4 L40.1,7.7 C40.1,7.6 27.3,2.3 26.9,2.3 Z"/>
            <path fill="#F1F1F1" d="M74.9,43.1 C74.6,45.2 74.5,47.3 73.9,49.3 C72.7,52.9 70.9,56.2 68.6,59.4"/>
            <path fill="#474646" d="M39.9 23.2L50.7 32.3C51.5 33.1 51.8 34.5 51.5 35.4L46.2 48.5C45.9 49.3 44.8 49.9 43.7 49.9L29.9 48.9C28.8 48.9 27.7 47.8 27.4 47L23.9 33.4C23.6 32.6 23.9 31.2 25 30.6L37 23C37.8 22.7 39.2 22.4 39.9 23.2zM67.1 59.2L66.8 61.8C66 62.8 65.1 63.7 64.2 64.7 59.1 69.8 52.8 73.2 46.1 74.7L43.8 74.1 53.6 63.2 67.1 59.2z"/>
            <path fill="#F1F1F1" d="M68.6 59.4C68.1 60.2 67.5 61 66.8 61.7 67.5 61 68 60.2 68.6 59.4zM11.2 11.7C11.1 11.8 11 11.9 10.9 12 13.8 8.9 20.1 4.1 26.8 2.3"/>
            <path fill="#474646" d="M11.9,13.6 L9.8,27.2 L1.4,38.4 L0.3,37 C0.6,29 3.4,21 8.8,14.4 L11.9,13.6 Z"/>
            <path fill="#F1F1F1" d="M9.6 13.4C10 12.9 10.4 12.5 10.9 12 10.4 12.6 9.9 13 9.6 13.4zM9.6 13.4C9.3 13.7 9.1 14 8.8 14.3 9.1 14 9.4 13.7 9.6 13.4zM46.2 74.7C46.2 74.7 31.6 75.9 24.5 73.2M6.1 58.2C1.9 51.6-.1 44.5.3 37"/>
            <path fill="#474646" d="M5.9,54.5 L18.4,60.3 L26.3,72.2 L24.4,73.3 C19.6,71.5 15.1,68.6 11.2,64.8 C9.2,62.8 7.4,60.6 6,58.4 L5.9,54.5 Z"/>
          </g>
          <path fill="#020202" fill-rule="nonzero" d="M69.4,17.7 C68.9,31.4 63.2,45.3 52.4,56 C43.7,64.7 33.1,70.1 22.1,72.1 C27,74.5 32.6,75.9 38.5,75.9 C59.1,75.9 75.8,59.2 75.8,38.6 C75.8,30.8 73.5,23.6 69.4,17.7 Z" opacity=".1"/>
        </g>
        <polygon fill="#FFF" fill-rule="nonzero" points="663.9 1 260.2 349 0 349 0 371 700 371 700 349 296.1 349 700 1"/>
        <polygon fill="#FFF" fill-rule="nonzero" points="700 172.9 439.6 401 516.8 401 700 240.5" opacity=".1"/>
        <polygon fill="#FFF" fill-rule="nonzero" points="700 37.8 285.4 401 362.5 401 700 105.4" opacity=".1"/>
        <polygon fill="#FFF" fill-rule="nonzero" points="700 308.1 593.9 401 671 401 700 375.6" opacity=".1"/>
        <polygon fill="#FFF" fill-rule="nonzero" points="125 1 0 110.5 0 178 202.1 1" opacity=".1"/>
        <polygon fill="#FFF" fill-rule="nonzero" points="279.2 1 0 245.6 0 313.1 356.4 1" opacity=".1"/>
        <polygon fill="#FFF" fill-rule="nonzero" points="433.5 1 0 380.7 0 401 54 401 510.6 1" opacity=".1"/>
        <polygon fill="#FFF" fill-rule="nonzero" points="589.8 1 133.1 401 210.2 401 666.9 1" opacity=".1"/>
      </g>
    </g>
  </g>
</svg>
