<?xml version="1.0" encoding="utf-8"?>
<!-- Generator: Adobe Illustrator 22.1.0, SVG Export Plug-In . SVG Version: 6.00 Build 0)  -->
<svg version="1.1" id="Layer_1" xmlns="http://www.w3.org/2000/svg" xmlns:xlink="http://www.w3.org/1999/xlink" x="0px" y="0px"
	 viewBox="0 0 408 255" style="enable-background:new 0 0 408 255;" xml:space="preserve">
<style type="text/css">
	.st0{fill:none;stroke:#30241C;stroke-width:4;stroke-miterlimit:10;}
	.st1{fill:#ED4F3E;}
	.st2{fill:#D3DBDD;}
	.st3{fill:#BAC4C6;}
	.st4{fill:#64CDF2;}
</style>
<title>ID-questions</title>
<g id="Layer_2_1_">
	<g id="icons">
		<rect x="109.6" y="21.4" class="st0" width="180.6" height="213"/>
		<rect x="116.4" y="213.1" class="st1" width="158.1" height="10.6"/>
		<rect x="274.5" y="213.1" class="st2" width="21.5" height="10.6"/>
		<polygon class="st2" points="93.4,218.4 116.4,223.7 116.4,213.1 93.4,218.4 		"/>
		<polygon class="st1" points="93.4,218.4 103.9,220.9 103.9,216 93.4,218.4 		"/>
		<rect x="295.9" y="213.1" class="st3" width="10.5" height="10.6"/>
		<rect x="136" y="39.4" class="st4" width="41.2" height="82.6"/>
		<polyline class="st0" points="125.3,128.2 146.6,32 167.9,128.2 		"/>
		<line class="st0" x1="130.1" y1="106.6" x2="163.2" y2="106.6"/>
		<line class="st0" x1="189.2" y1="39.4" x2="263.8" y2="39.4"/>
		<line class="st0" x1="189.2" y1="50" x2="263.8" y2="50"/>
		<line class="st0" x1="189.2" y1="60.7" x2="263.8" y2="60.7"/>
		<line class="st0" x1="189.2" y1="71.3" x2="263.8" y2="71.3"/>
		<line class="st0" x1="189.2" y1="82.6" x2="263.8" y2="82.6"/>
		<line class="st0" x1="189.2" y1="93.3" x2="263.8" y2="93.3"/>
		<line class="st0" x1="189.2" y1="103.9" x2="263.8" y2="103.9"/>
		<line class="st0" x1="189.2" y1="114.6" x2="263.8" y2="114.6"/>
		<line class="st0" x1="136" y1="138.5" x2="263.8" y2="138.5"/>
		<line class="st0" x1="136" y1="149.2" x2="263.8" y2="149.2"/>
		<line class="st0" x1="136" y1="159.8" x2="263.8" y2="159.8"/>
		<line class="st0" x1="136" y1="170.5" x2="263.8" y2="170.5"/>
		<line class="st0" x1="136" y1="181.8" x2="263.8" y2="181.8"/>
		<line class="st0" x1="136" y1="192.4" x2="263.8" y2="192.4"/>
		<line class="st0" x1="136" y1="203.1" x2="263.8" y2="203.1"/>
	</g>
</g>
</svg>
