<svg xmlns="http://www.w3.org/2000/svg" viewBox="0 0 96 102"><title>document</title><g id="Layer_2" data-name="Layer 2"><g id="Documents"><g id="White_Base" data-name="White Base"><path d="M70,22.83V42H89.17ZM68,46a2,2,0,0,1-2-2V20H42a4,4,0,0,0-4,4V94a4,4,0,0,0,4,4H88a4.06,4.06,0,0,0,1.56-.31A4,4,0,0,0,92,94V46ZM58,16V8a4,4,0,0,0-4-4H8A4,4,0,0,0,4,8V78a4,4,0,0,0,4,4H34V24a8,8,0,0,1,8-8Z" style="fill:#fff"/></g><g id="Texture_1" data-name="Texture 1" style="opacity:0.101960784313725"><path d="M78,32V30.83L77.17,30H76v2Zm-6.83-8H70v2h2V24.83ZM74,26.83,73.17,26H72v2h2ZM82,36V34.83L81.17,34H80v2ZM70,28v2h2V28Zm0,4v2h2V32Zm10,2V32.83L79.17,32H78v2Zm-2,2v2h2V36Zm-4,0v2h2V36Zm13.17,4H86v2h2V40.83Zm-2-2H84v2h2V38.83ZM76,32H74v2h2Zm-6,4v2h2V36Zm14,2V36.83L83.17,36H82v2ZM70,42h2V40H70Zm2-4v2h2V38Zm2-8H72v2h2Zm0,4H72v2h2Zm8,8h2V40H82Zm-6-4v2h2V38Zm2-2V34H76v2Zm2,2v2h2V38Zm-6,4h2V40H74Zm4,0h2V40H78ZM76,30V28.83L75.17,28H74v2ZM32,18h2V16H32Zm0-4H30v2h2Zm0,8h2V20H32Zm0-4H30v2h2Zm-4-2v2h2V16Zm6,10V24H32v2Zm-4-2h2V22H30Zm-2-4v2h2V20Zm6,10V28H32v2Zm-4-2h2V26H30Zm-2-4v2h2V24Zm6,10V32H32v2Zm-4-2h2V30H30Zm-2-4v2h2V28Zm6,10V36H32v2Zm-4-2h2V34H30Zm-2-4v2h2V32Zm6,10V40H32v2Zm-4-2h2V38H30Zm-2-4v2h2V36Zm6,10V44H32v2Zm-4-2h2V42H30Zm-2-4v2h2V40Zm6,10V48H32v2Zm-4-2h2V46H30Zm-2-4v2h2V44Zm6,10V52H32v2Zm-4-2h2V50H30Zm-2-4v2h2V48Zm6,10V56H32v2Zm-4-2h2V54H30Zm-2-4v2h2V52Zm6,10V60H32v2Zm-4-2h2V58H30Zm-2-4v2h2V56Zm6,10V64H32v2Zm-4-2h2V62H30Zm-2-4v2h2V60Zm6,10V68H32v2Zm-4-2h2V66H30Zm-2-4v2h2V64Zm6,10V72H32v2Zm-4-2h2V70H30Zm-2-4v2h2V68Zm6,10V76H32v2Zm-4-2h2V74H30Zm-2-4v2h2V72Zm6,10V80H32v2Zm-4-2h2V78H30Zm-2-4v2h2V76Zm0,6h2V80H28ZM46,16h2V14H46Zm2-4v2h2V12Zm-6,4h2V14H42Zm2-4v2h2V12Zm4-2H46v2h2ZM38,16h2V14H38Zm2-4v2h2V12Zm4-2H42v2h2ZM34,16h2V14H34Zm4-2V12H36v2Zm2-4H38v2h2Zm-6,4V12H32v2Zm2-4H34v2h2Zm18,6h2V14H54Zm2-2h2V12H56Zm-6,2h2V14H50Zm2-4v2h2V12Zm4-2H54v2h2Zm-4,0H50v2h2ZM32,10H30v2h2Zm-4,2v2h2V12Zm8,6h.72A7.68,7.68,0,0,1,38,17.08V16H36Zm-2,2h1.08A7.68,7.68,0,0,1,36,18.72V18H34Z"/></g><g id="Blue"><path d="M58,38H46v2H58Zm0,8H46v2H58ZM46,54v2H84V54Zm0,10H84V62H46Zm0,8H84V70H46Zm0,8H84V78H46Zm0,8H84V86H46Z" style="fill:#86aedd"/></g><g id="Red"><rect x="46" y="30" width="8" height="2" style="fill:#ee6a56"/></g><g id="Outline" style="opacity:0.850980392156863"><path d="M95.41,42.59l-26-26A2,2,0,0,0,68,16H62V8a8,8,0,0,0-8-8H8A8,8,0,0,0,0,8V78a8,8,0,0,0,8,8H34v8a8,8,0,0,0,8,8H88a8,8,0,0,0,8-8V44A2,2,0,0,0,95.41,42.59ZM70,22.83,89.17,42H70ZM34,24V82H8a4,4,0,0,1-4-4V8A4,4,0,0,1,8,4H54a4,4,0,0,1,4,4v8H42A8,8,0,0,0,34,24ZM88,98H42a4,4,0,0,1-4-4V24a4,4,0,0,1,4-4H66V44a2,2,0,0,0,2,2H92V94A4,4,0,0,1,88,98Z"/></g></g></g></svg>