<svg xmlns="http://www.w3.org/2000/svg" viewBox="0 0 112 90"><title>website</title><g id="Layer_2" data-name="Layer 2"><g id="Code_Window" data-name="Code Window"><g id="White_Base" data-name="White Base"><path d="M34,86h70a4.28,4.28,0,0,0,.81-.08A4,4,0,0,0,108,82V20H34ZM4,82a4,4,0,0,0,3.19,3.92A4.28,4.28,0,0,0,8,86H30V20H4ZM107.32,5.76a4,4,0,0,0-2.51-1.68A4.28,4.28,0,0,0,104,4H8a4.28,4.28,0,0,0-.81.08A4,4,0,0,0,4,8v8H108V8A4,4,0,0,0,107.32,5.76Z" style="fill:#fff"/></g><g id="Green"><path d="M8,44v2H24V44ZM8,62H22V60H8Z" style="fill:#85ab70"/></g><g id="Yellow"><path d="M8,34H26V32H8Zm73,4a2,2,0,0,0-3.93-.51h0l-8,30h0A2.09,2.09,0,0,0,69,68a2,2,0,0,0,3.93.51h0l8-30h0A2.09,2.09,0,0,0,81,38ZM8,38H24V36H8Zm0,4h9V40H8Z" style="fill:#f7d54a"/></g><g id="Blue"><path d="M66,43a2,2,0,0,0-2-2,2,2,0,0,0-1.41.59h0l-10,10a2,2,0,0,0,0,2.82l10,10A2,2,0,0,0,64,65a2,2,0,0,0,2-2,2,2,0,0,0-.59-1.41L56.83,53l8.58-8.59A2,2,0,0,0,66,43ZM98,53a2,2,0,0,0-.59-1.41h0l-10-10h0A2,2,0,0,0,86,41a2,2,0,0,0-2,2,2,2,0,0,0,.59,1.41h0L93.17,53l-8.58,8.59h0A2,2,0,0,0,84,63a2,2,0,0,0,2,2,2,2,0,0,0,1.41-.59l10-10h0A2,2,0,0,0,98,53ZM22,28H8v2H22ZM18,48H8v2H18ZM8,54H26V52H8Z" style="fill:#86aedd"/></g><g id="Red"><path d="M8,24v2H26V24ZM8,58H20V56H8Z" style="fill:#ee6a56"/></g><g id="Inner_Lines" data-name="Inner Lines" style="opacity:0.149019607843137"><path d="M40,20V86h2V20ZM10,8a2,2,0,1,0,2,2A2,2,0,0,0,10,8Zm6,0a2,2,0,1,0,2,2A2,2,0,0,0,16,8Zm6,0a2,2,0,1,0,2,2A2,2,0,0,0,22,8Z"/></g><g id="Texture_1" data-name="Texture 1" style="opacity:0.101960784313725"><path d="M34,74v2h2V74Zm2-4h2V68H36Zm-2,0v2h2V70Zm0-4v2h2V66Zm2,8h2V72H36Zm-2,8v2h2V82Zm6-2V78H38v2Zm0-8V70H38v2Zm0,4V74H38v2Zm0-8V66H38v2Zm0-4V62H38v2ZM34,78v2h2V78Zm2,4h2V80H36Zm0-4h2V76H36Zm0-12h2V64H36Zm4,18V82H38v2Zm-4,2h2V84H36ZM34,34v2h2V34Zm6,26V58H38v2ZM36,42h2V40H36Zm0-4h2V36H36Zm4,14V50H38v2ZM34,38v2h2V38Zm6,18V54H38v2Zm0-20V34H38v2Zm0,4V38H38v2Zm0,4V42H38v2Zm0,4V46H38v2Zm-4,2h2V48H36Zm0,4h2V52H36ZM34,42v2h2V42Zm0,12v2h2V54Zm2,8h2V60H36Zm-2-4v2h2V58Zm2,0h2V56H36Zm-2-8v2h2V50Zm0-4v2h2V46Zm2,0h2V44H36ZM34,62v2h2V62Zm6-34V26H38v2Zm0,4V30H38v2ZM34,22v2h2V22Zm4-2H36v2h2Zm2,4V22H38v2Zm-4,0v2h2V24Zm0,10h2V32H36Zm-2-8v2h2V26Zm0,4v2h2V30Zm2,0h2V28H36Z"/></g><g id="Outline" style="opacity:0.850980392156863"><path d="M104,0H8A8,8,0,0,0,0,8V82a8,8,0,0,0,8,8h96a8,8,0,0,0,8-8V8A8,8,0,0,0,104,0ZM8,86a4,4,0,0,1-4-4V20H30V86Zm100-4a4,4,0,0,1-4,4H34V20h74Zm0-66H4V8A4,4,0,0,1,8,4h96a4,4,0,0,1,4,4Z"/></g></g></g></svg>