<?xml version="1.0" encoding="UTF-8"?>
<svg width="192px" height="192px" viewBox="0 0 192 192" version="1.1" xmlns="http://www.w3.org/2000/svg" xmlns:xlink="http://www.w3.org/1999/xlink">
    <!-- Generator: Sketch 46.2 (44496) - http://www.bohemiancoding.com/sketch -->
    <title>ic_Auction_Selling</title>
    <desc>Created with Sketch.</desc>
    <defs>
        <polygon id="path-1" points="65.428 0.264 0.528 0.264 0.528 65.428 65.428 65.428"></polygon>
    </defs>
    <g id="Page-1" stroke="none" stroke-width="1" fill="none" fill-rule="evenodd">
        <g id="ic_Auction_Selling">
            <g id="Auction-_-Selling" transform="translate(8.000000, 8.000000)">
                <polygon id="Shape" points="0 0 176 0 176 176 0 176"></polygon>
                <path d="M28.776,84.392 L59.576,115.346 L117.48,57.2 L86.68,26.224 L28.776,84.392 M59.576,125.576 C58.476,125.576 57.42,125.136 56.606,124.344 L19.8,87.384 C19.03,86.592 18.59,85.514 18.59,84.392 C18.59,83.292 19.03,82.192 19.822,81.4 L83.82,17.226 C85.47,15.576 88.154,15.576 89.804,17.226 L126.544,54.186 C127.336,54.978 127.776,56.056 127.776,57.178 C127.776,58.278 127.336,59.378 126.544,60.038 L62.568,124.3 C61.754,125.114 60.654,125.532 59.576,125.532" id="Shape" fill="#1D7BCE" fill-rule="nonzero"></path>
                <g id="Group" transform="translate(77.532400, 0.418000)">
                    <g id="Clipped">
                        <mask id="mask-2" fill="white">
                            <use xlink:href="#path-1"></use>
                        </mask>
                        <g id="a"></g>
                        <path d="M10.692,15.18 L50.556,55.22 L55.242,50.49 L15.4,10.45 L10.67,15.18 L10.692,15.18 Z M50.556,65.428 C49.456,65.428 48.356,64.988 47.586,64.196 L1.76,18.15 C0.066,16.5 0.066,13.816 1.76,12.144 L12.364,1.452 C13.948,-0.132 16.764,-0.132 18.348,1.452 L64.196,47.52 C65.846,49.148 65.846,51.832 64.196,53.504 L53.548,64.196 C52.756,64.988 51.678,65.428 50.556,65.428 Z" id="Shape" fill="#F1162C" fill-rule="nonzero" mask="url(#mask-2)"></path>
                    </g>
                </g>
                <path d="M13.64,90.53 L53.46,130.57 L58.146,125.884 L18.26,85.844 L13.64,90.53 L13.64,90.53 Z M53.46,140.8 C52.36,140.8 51.304,140.404 50.49,139.568 L4.62,93.544 C3.85,92.73 3.41,91.652 3.41,90.53 C3.41,89.43 3.85,88.33 4.642,87.538 L15.4,76.78 C17.05,75.13 19.734,75.13 21.384,76.78 L67.144,122.87 C67.936,123.662 68.376,124.74 68.376,125.862 C68.376,126.962 67.936,128.062 67.144,128.942 L56.496,139.656 C55.682,140.492 54.582,140.91 53.504,140.91 L53.46,140.8 Z" id="Shape" fill="#F1162C" fill-rule="nonzero"></path>
                <path d="M99.704,75.02 C99.198,75.24 98.714,75.548 98.296,75.966 L78.408,95.942 C77.968,96.382 77.682,97.042 77.462,97.482 L99.902,75.042 M107.822,79.178 L101.816,85.184 L150.7,131.45 L133.672,148.522 L87.56,99.22 L81.62,105.204 L141.966,169.84 C142.736,170.676 143.836,171.16 144.98,171.16 L145.112,171.16 C146.212,171.16 147.312,170.72 148.082,169.928 L172.062,145.948 C172.854,145.134 173.316,144.034 173.294,142.868 C173.294,141.724 172.854,140.668 171.974,139.854 L107.58,79.09 M145.2,160.82 L139.37,154.66 L156.75,137.214 L162.91,143.044 L145.178,160.864" id="Shape" fill="#C6DEF3" fill-rule="nonzero"></path>
                <path d="M101.288,74.712 C100.76,74.712 100.188,74.822 99.704,75.02 L77.484,97.372 C76.868,98.868 77.154,100.628 78.32,101.86 L81.532,105.292 L87.472,99.286 L87.252,99.066 L101.376,84.876 L101.596,85.096 L107.602,79.112 L104.302,75.878 C103.422,74.998 102.498,74.558 101.442,74.558 M82.522,175.626 L6.38,175.626 C4.048,175.626 2.156,173.778 2.156,171.446 C2.2,169.136 4.092,167.2 6.424,167.2 L82.434,167.2 C84.766,167.2 86.614,169.114 86.614,171.446 C86.614,173.8 84.766,175.692 82.434,175.692" id="Shape" fill="#1D7BCE" fill-rule="nonzero"></path>
                <path d="M71.17,153.12 L17.71,153.12 C15.356,153.12 13.464,155.012 13.464,157.344 C13.464,159.698 15.356,161.59 17.688,161.59 L71.148,161.59 C73.502,161.59 75.394,159.698 75.394,157.344 C75.394,155.012 73.502,153.12 71.17,153.12" id="Shape" fill="#C6DEF3" fill-rule="nonzero"></path>
            </g>
        </g>
    </g>
</svg>