<?xml version="1.0" encoding="UTF-8"?>
<svg width="192px" height="192px" viewBox="0 0 192 192" version="1.1" xmlns="http://www.w3.org/2000/svg" xmlns:xlink="http://www.w3.org/1999/xlink">
    <!-- Generator: Sketch 46.2 (44496) - http://www.bohemiancoding.com/sketch -->
    <title>ic_Cycling</title>
    <desc>Created with Sketch.</desc>
    <defs>
        <polygon id="path-1" points="64.944 65.12 0 65.12 0 0.132 64.944 0.132"></polygon>
    </defs>
    <g id="Page-1" stroke="none" stroke-width="1" fill="none" fill-rule="evenodd">
        <g id="ic_Cycling">
            <g id="Cycling" transform="translate(8.000000, 8.000000)">
                <polygon id="Shape" points="0 0 176 0 176 176 0 176"></polygon>
                <g id="Group" transform="translate(0.000000, 66.853600)">
                    <g id="Clipped">
                        <mask id="mask-2" fill="white">
                            <use xlink:href="#path-1"></use>
                        </mask>
                        <g id="a"></g>
                        <path d="M32.472,7.92 C18.832,7.92 7.766,18.986 7.766,32.626 C7.766,46.266 18.854,57.332 32.472,57.332 C46.112,57.332 57.178,46.244 57.178,32.626 C57.2,18.986 45.98,7.92 32.34,7.92 M32.34,65.12 C14.564,65.12 0,50.512 0,32.604 C0,14.696 14.564,0.154 32.472,0.154 C50.38,0.154 64.944,14.74 64.944,32.626 C64.944,50.512 50.38,65.12 32.472,65.12" id="Shape" fill="#1D7BCE" fill-rule="nonzero" mask="url(#mask-2)"></path>
                    </g>
                </g>
                <path d="M142.516,74.756 C128.876,74.756 117.81,85.844 117.81,99.484 C117.81,113.124 128.898,124.19 142.516,124.19 C156.156,124.19 167.222,113.102 167.222,99.484 C167.222,85.844 156.222,74.756 142.582,74.756 M142.582,131.956 C124.762,131.956 110.242,117.392 110.242,99.484 C110.242,81.576 124.762,67.012 142.802,67.012 C160.842,67.012 175.142,81.576 175.142,99.484 C175.142,117.392 160.6,131.956 142.736,131.956" id="Shape" fill="#1D7BCE" fill-rule="nonzero"></path>
                <path d="M120.406,57.288 L62.15,57.288 C60.918,57.288 59.774,57.86 59.026,58.828 L49.346,71.742 C51.59,73.282 53.636,74.822 55.462,76.582 L64.262,65.142 L113.322,65.142 L93.302,96.162 L64.9,96.162 C65.01,97.262 65.076,98.362 65.076,99.682 C65.076,101.222 64.966,102.762 64.768,104.082 L95.568,104.082 C96.888,104.082 98.12,103.422 98.824,102.322 L123.64,63.36 C124.432,62.128 124.52,60.61 123.816,59.4 C123.156,58.124 121.836,57.42 120.406,57.42 M44.66,78.1 L29.92,97.724 C29.04,98.89 29.04,100.452 29.7,101.772 C30.36,103.092 31.68,103.928 33.22,103.928 L56.98,103.928 C57.332,102.476 57.42,101.002 57.42,99.528 C57.42,98.362 57.42,97.24 57.2,96.162 L40.92,96.162 L50.952,82.918 C49.192,81.004 47.168,79.354 44.902,78.078" id="Shape" fill="#C6DEF3" fill-rule="nonzero"></path>
                <path d="M49.368,71.72 L44.682,77.99 C47.102,79.31 49.082,80.938 50.842,82.83 L55.682,76.56 C53.922,74.712 51.942,73.106 49.742,71.72 M65.142,96.14 L57.2,96.14 C57.332,97.24 57.42,98.34 57.42,99.484 C57.42,100.98 57.266,102.454 56.98,103.884 L64.9,103.884 C65.12,102.454 65.164,100.98 65.164,99.484 C65.164,98.34 65.098,97.24 64.944,96.14" id="Shape" fill="#1D7BCE" fill-rule="nonzero"></path>
                <path d="M143.066,103.906 C141.702,103.906 140.426,103.18 139.678,101.926 L111.54,52.294 C110.484,50.424 111.144,48.07 113.014,47.014 C114.884,45.914 117.238,46.574 118.294,48.466 L146.454,98.12 C147.488,99.968 146.828,102.344 144.98,103.4 C144.408,103.73 143.748,103.906 143.11,103.906 M95.59,103.906 C94.49,103.906 93.324,103.378 92.51,102.41 L53.746,52.8 C52.426,51.084 52.734,48.62 54.406,47.3 C56.1,45.98 58.542,46.31 59.862,47.96 L98.802,97.614 C100.122,99.308 99.902,101.75 98.142,103.07 C97.482,103.62 96.602,103.906 95.722,103.906" id="Shape" fill="#F1162C" fill-rule="nonzero"></path>
                <path d="M136.576,62.92 L134.42,62.92 C132.286,62.92 130.548,61.16 130.548,59.026 C130.548,56.87 132.308,55.132 134.42,55.132 L136.576,55.132 C138.006,55.132 139.172,53.966 139.172,52.536 C139.172,51.106 138.006,49.962 136.576,49.962 L125.268,49.962 C124.828,49.962 124.344,50.182 123.948,50.402 L116.732,53.922 C114.818,55.022 112.486,54.142 111.54,52.162 C110.572,50.402 111.32,47.982 113.3,47.102 L120.428,43.34 C121.902,42.57 123.574,42.196 125.268,42.196 L136.554,42.196 C142.274,42.196 146.894,46.816 146.894,52.536 C146.894,58.256 142.274,62.876 136.554,62.876 M68.64,53.196 L51.348,53.196 C49.214,53.196 47.476,51.436 47.476,49.302 C47.476,47.322 49.236,45.562 51.348,45.562 L68.618,45.562 C70.598,45.562 72.358,47.322 72.358,49.522 C72.358,51.722 70.598,53.482 68.398,53.482" id="Shape" fill="#F1162C" fill-rule="nonzero"></path>
            </g>
        </g>
    </g>
</svg>