<?xml version="1.0" encoding="UTF-8"?>
<svg width="192px" height="192px" viewBox="0 0 192 192" version="1.1" xmlns="http://www.w3.org/2000/svg" xmlns:xlink="http://www.w3.org/1999/xlink">
    <!-- Generator: Sketch 46.2 (44496) - http://www.bohemiancoding.com/sketch -->
    <title>ic_Charity</title>
    <desc>Created with Sketch.</desc>
    <defs>
        <polygon id="path-1" points="0.643902439 0.858536585 85.5317073 0.858536585 85.5317073 76.8390244 0.643902439 76.8390244"></polygon>
    </defs>
    <g id="Page-1" stroke="none" stroke-width="1" fill="none" fill-rule="evenodd">
        <g id="ic_Charity">
            <g id="Charity" transform="translate(8.000000, 10.000000)">
                <polygon id="Shape" points="2.14634146 0 173.853659 0 173.853659 171.707317 2.14634146 171.707317"></polygon>
                <path d="M146.595122,76.4956098 C142.302439,76.4956098 138.138537,78.942439 136.163902,83.0204878 L126.934634,102.122927 C126.119024,103.732683 126.805854,105.707317 128.437073,106.48 C128.909268,106.909268 129.402927,106.909268 129.896585,106.909268 C131.12,106.909268 132.300488,106.265366 132.858537,105.192195 L142.087805,86.0897561 C142.946341,84.3726829 144.749268,83.2995122 146.595122,83.2995122 C147.239024,83.2995122 147.818537,83.5141463 148.419512,83.7287805 L148.483902,83.7287805 C149.707317,84.3726829 150.630244,85.2312195 151.166829,86.5190244 C151.681951,87.8068293 151.681951,89.0946341 151.166829,90.382439 L149.299512,94.8897561 C148.612683,96.6068293 149.428293,98.5385366 151.102439,99.182439 C151.48878,99.3970732 151.918049,99.6117073 152.347317,99.6117073 C153.635122,99.6117073 154.858537,98.9678049 155.395122,97.68 L157.283902,93.1726829 C158.46439,90.382439 158.46439,87.1629268 157.283902,84.3726829 C156.060488,81.582439 153.806829,79.4360976 150.930732,78.1482927 L150.823415,78.1482927 C149.449756,77.7190244 148.033171,77.5043902 146.616585,77.5043902" id="Shape" fill="#C6DEF3" fill-rule="nonzero"></path>
                <g id="Group" transform="translate(57.178537, 31.407415)">
                    <g id="Clipped">
                        <mask id="mask-2" fill="white">
                            <use xlink:href="#path-1"></use>
                        </mask>
                        <g id="a"></g>
                        <path d="M25.6917073,7.40487805 C15.5180488,7.40487805 7.23317073,17.342439 7.23317073,29.5765854 C7.23317073,38.8058537 14.2302439,49.4302439 26.9365854,59.4107317 L29.2117073,61.1278049 C33.5043902,64.3473171 38.4409756,67.3521951 43.1629268,69.8634146 C61.1921951,60.3121951 79.0068293,44.4292683 79.0068293,29.5765854 C79.0068293,24.5326829 77.7190244,19.7892683 75.1434146,15.84 C71.7092683,10.4741463 66.3434146,7.40487805 60.7629268,7.40487805 C53.0360976,7.40487805 46.8117073,15.0673171 46.8117073,24.4897561 C46.8117073,26.4214634 45.3092683,27.9239024 43.5921951,27.9239024 C41.875122,27.9239024 40.3726829,26.4214634 40.3726829,24.7043902 C40.3726829,16.7629268 35.8653659,9.89463415 29.4263415,8.17756098 L28.782439,8.17756098 L27.7092683,7.96292683 L27.7092683,7.31902439 L27.7092683,8.17756098 L26.5287805,8.17756098 M43.6995122,77.5043902 C43.2702439,77.5043902 42.7765854,77.5043902 42.1970732,77.075122 C36.6165854,74.284878 31.0360976,70.8507317 25.884878,66.9873171 L23.5239024,65.2702439 C12.6634146,56.6634146 0.643902439,44.2146341 0.643902439,29.6195122 C0.643902439,13.6936585 11.8692683,0.815609756 25.6917073,0.815609756 C26.3356098,0.815609756 26.9795122,0.88 27.6234146,0.944390244 L28.0097561,0.987317073 C28.5678049,1.05170732 29.1258537,1.15902439 29.6839024,1.28780488 L30.4780488,1.50243902 L30.8429268,1.58829268 C36.0370732,3.09073171 40.3512195,6.78243902 43.0770732,11.6760976 C46.7902439,5.15121951 53.2292683,0.815609756 60.462439,0.815609756 C68.4039024,0.815609756 75.7014634,4.93658537 80.5092683,12.1912195 C83.9434146,17.2136585 85.6604878,23.2019512 85.6604878,29.5336585 C85.6604878,48.8078049 63.7678049,66.88 44.6653659,76.4526829 C44.2360976,76.6673171 43.8068293,76.817561 43.1629268,76.817561" id="Shape" fill="#F1162C" fill-rule="nonzero" mask="url(#mask-2)"></path>
                    </g>
                </g>
                <path d="M84.2009756,38.0546341 L84.115122,38.8702439 L82.8273171,38.8702439 C72.524878,38.8702439 64.3687805,48.7434146 64.3687805,60.977561 C64.3687805,70.4214634 71.2370732,80.9385366 84.115122,90.8117073 C84.7590244,91.4556098 85.617561,92.0995122 86.2614634,92.7434146 C90.5541463,95.9629268 95.2760976,98.9678049 99.9980488,101.543415 C118.027317,91.884878 135.841951,76.0019512 135.841951,61.1921951 C135.841951,56.2556098 134.339512,51.3190244 131.763902,47.4556098 C128.115122,42.0897561 122.963902,39.084878 117.16878,39.084878 C109.441951,39.084878 103.002927,46.8117073 103.002927,56.2556098 C103.002927,58.1873171 101.500488,59.6897561 99.7834146,59.6897561 C97.8517073,59.6897561 96.3492683,58.1873171 96.3492683,56.4702439 C96.3492683,48.5287805 91.6273171,41.6604878 85.1882927,39.9434146 L84.5443902,39.9434146 L83.4712195,39.7287805 L83.4712195,38.6341463 L83.2565854,38.4195122" id="Shape" fill="#FBC5CA" fill-rule="nonzero"></path>
                <path d="M117.662439,35.5219512 C108.068293,35.5219512 100.277073,44.6439024 100.277073,55.9121951 C100.277073,46.2536585 94.524878,38.1619512 86.8195122,36.0585366 L86.604878,36.0156098 L86.1326829,35.8868293 C85.7034146,35.8009756 85.2312195,35.715122 84.7590244,35.6721951 L84.3297561,35.6078049 C83.6858537,35.3931707 83.2565854,35.3931707 82.6126829,35.3931707 C70.5931707,35.3931707 60.72,46.7687805 60.72,60.72 C60.72,72.3102439 69.9492683,83.9004878 81.5395122,93.1297561 C82.1834146,93.7736585 83.0419512,94.2029268 83.9004878,94.8468293 C89.0517073,98.4956098 94.417561,101.929756 99.7834146,104.505366 C118.027317,95.2760976 138.846829,78.1053659 138.846829,60.5053659 C138.846829,54.7102439 137.129756,49.3443902 134.339512,45.0517073 C130.261463,38.8273171 124.037073,34.9639024 117.16878,34.9639024 M84.1365854,38.8487805 L84.2009756,38.0546341 L84.3512195,38.2692683 L84.3512195,38.9131707 L85.3814634,39.084878 L85.7678049,39.2995122 L85.9395122,39.5141463 C92.3356098,41.2312195 96.9717073,48.3141463 96.9717073,56.2556098 C96.9717073,58.1873171 98.4741463,59.6897561 100.277073,59.6897561 C102.08,59.6897561 103.560976,58.1873171 103.560976,56.4702439 C103.560976,47.0263415 109.892683,39.2995122 117.662439,39.2995122 C123.32878,39.2995122 128.60878,42.3043902 132.12878,47.6702439 L132.12878,47.884878 C134.747317,51.9629268 136.120976,56.684878 136.120976,61.6214634 C136.120976,76.4312195 118.349268,92.3141463 100.277073,101.972683 C95.4692683,99.3970732 90.6829268,96.3921951 86.3902439,93.3873171 L84.115122,91.6702439 C71.2370732,81.7970732 64.3687805,71.0653659 64.3687805,61.8360976 C64.3687805,49.6019512 72.524878,39.5141463 82.8273171,39.5141463 L84.115122,39.5141463" id="Shape" fill="#F1162C" fill-rule="nonzero"></path>
                <path d="M169.453659,99.4185366 L169.453659,99.3541463 C167.307317,94.2029268 161.640976,91.8419512 156.489756,93.5590244 L114.636098,108.154146 C111.416585,109.227317 107.982439,109.227317 104.762927,108.154146 L68.275122,95.4907317 C64.4117073,93.9882927 62.2653659,89.9102439 63.3385366,85.8321951 C63.982439,83.2565854 65.6995122,81.324878 68.0604878,80.4663415 C69.777561,79.6078049 71.9239024,79.6078049 73.8556098,80.2517073 L105.170732,91.2195122 C109.463415,92.7219512 114.142439,90.5756098 115.945366,86.497561 C116.954146,84.2653659 116.889756,81.7756098 115.945366,79.6292683 C115.086829,77.6331707 113.369756,75.9160976 111.116098,75.057561 L60.8917073,55.7404878 L59.7541463,55.3112195 C50.524878,52.0917073 40.2868293,53.5941463 32.1521951,59.0029268 L5.45170732,77.0536585 L10.817561,89.3736585 L23.6956098,119.057561 L25.9492683,118.091707 C28.7395122,116.846829 31.9590244,116.696585 34.7492683,117.662439 L91.6273171,136.33561 C97.2078049,138.16 103.432195,137.923902 108.798049,135.64878 L163.74439,112.897561 C168.89561,110.75122 171.47122,104.677073 169.324878,99.4185366" id="Shape" fill="#FFFFFF" fill-rule="nonzero"></path>
                <path d="M30.9502439,113.756098 C32.6243902,113.756098 34.2985366,114.013659 35.8868293,114.550244 L92.8292683,133.180488 C97.7658537,134.790244 103.08878,134.597073 107.853659,132.622439 L162.628293,109.87122 C164.345366,109.012683 165.740488,107.724878 166.44878,106.007805 C167.157073,104.290732 167.157073,102.359024 166.405854,100.641951 L166.405854,100.427317 C164.903415,96.9931707 161.04,95.2760976 157.605854,96.5639024 L115.687805,111.395122 C111.76,112.747317 107.42439,112.747317 103.496585,111.395122 L66.9658537,98.6887805 C61.3853659,96.7570732 58.2517073,90.8117073 59.7541463,85.1668293 C60.6126829,81.7970732 62.9736585,79.0712195 66.2360976,77.697561 C68.8117073,76.5814634 71.7307317,76.4741463 74.3921951,77.3756098 L106.243902,88.2146341 C108.883902,89.1160976 111.82439,87.8282927 112.897561,85.2956098 C113.541463,83.9434146 113.541463,82.4195122 112.940488,81.0458537 C112.360976,79.715122 111.287805,78.684878 109.93561,78.1912195 L59.7112195,59.0243902 L58.702439,58.6595122 C50.6107317,55.8692683 41.3814634,57.1570732 33.9765854,62.0936585 L9.57268293,78.2341463 L25.4126829,114.721951 C27.1941463,114.078049 29.0614634,113.734634 30.9502439,113.734634 M99.5902439,140.8 C96.5853659,140.8 93.6234146,140.370732 90.7902439,139.426341 L33.8478049,120.753171 C31.7014634,120.066341 29.3404878,120.173659 27.2585366,121.096585 L25.004878,122.062439 C24.1892683,122.427317 23.2878049,122.427317 22.4721951,122.126829 C21.6565854,121.804878 20.9697561,121.160976 20.6478049,120.366829 L2.40390244,78.2985366 C1.76,76.8819512 2.29658537,75.1863415 3.60585366,74.3063415 L30.3278049,56.6204878 C39.4068293,50.6107317 50.8253659,49.022439 60.8058537,52.4565854 L62.0936585,52.8858537 L112.318049,72.0526829 C115.322927,73.1902439 117.683902,75.4868293 118.971707,78.4487805 C120.323902,81.5180488 120.323902,84.8878049 118.971707,87.9356098 C116.503415,93.5590244 109.957073,96.435122 104.119024,94.4390244 L72.3531707,83.6 C71.28,83.2136585 70.2068293,83.2565854 68.9190244,83.7287805 C67.6312195,84.3726829 66.7726829,85.4458537 66.3434146,86.9482927 C65.6995122,89.3092683 67.2019512,91.884878 69.3482927,92.7434146 L105.836098,105.406829 C108.411707,106.265366 111.201951,106.265366 113.777561,105.406829 L155.63122,90.8117073 C162.499512,88.4507317 170.011707,91.884878 172.801951,98.3239024 L172.801951,98.5385366 C174.30439,101.972683 174.30439,105.621463 173.016585,109.05561 C171.72878,112.489756 169.153171,115.065366 165.719024,116.567805 L110.75122,139.082927 C107.317073,140.520976 103.668293,141.229268 99.9765854,141.229268" id="Shape" fill="#1D7BCE" fill-rule="nonzero"></path>
            </g>
        </g>
    </g>
</svg>