<?xml version="1.0" encoding="UTF-8"?>
<svg width="192px" height="192px" viewBox="0 0 192 192" version="1.1" xmlns="http://www.w3.org/2000/svg" xmlns:xlink="http://www.w3.org/1999/xlink">
    <!-- Generator: Sketch 46.2 (44496) - http://www.bohemiancoding.com/sketch -->
    <title>ic_cars</title>
    <desc>Created with Sketch.</desc>
    <defs>
        <polygon id="path-1" points="1.54 0.814 119.46 0.814 119.46 47.124 1.54 47.124"></polygon>
        <polygon id="path-3" points="0 0.99 0 54.956 175.78 54.956 175.78 0.99"></polygon>
    </defs>
    <g id="Page-1" stroke="none" stroke-width="1" fill="none" fill-rule="evenodd">
        <g id="ic_cars">
            <g id="cars" transform="translate(8.000000, 8.000000)">
                <polygon id="Shape" points="0 0 176 0 176 176 0 176"></polygon>
                <path d="M158.994,92.84 C156.794,92.84 154.946,91.036 154.946,88.792 C154.946,86.526 156.75,84.722 158.994,84.722 L171.71,84.722 C173.954,84.722 175.758,86.702 175.758,88.902 C175.758,91.102 173.778,93.082 171.578,93.082 L158.818,93.082 L158.994,92.84 Z M4.07,108.152 C1.826,108.152 0,106.326 0,104.06 C0,101.86 1.826,100.012 4.07,100.012 L14.234,100.012 C16.478,100.012 18.282,101.838 18.282,104.082 C18.282,106.502 16.522,108.262 14.322,108.262 L4.18,108.262 L4.07,108.152 Z" id="Shape" fill="#FFD218" fill-rule="nonzero"></path>
                <g id="Group" transform="translate(16.247000, 30.500800)">
                    <g id="Clipped">
                        <mask id="mask-2" fill="white">
                            <use xlink:href="#path-1"></use>
                        </mask>
                        <g id="a"></g>
                        <path d="M83.666,0.814 L41.03,0.814 C35.046,0.814 29.37,3.718 25.806,8.558 L2.31,40.48 C0.99,42.284 1.386,44.836 3.19,46.156 C3.916,46.706 4.73,46.97 5.61,46.97 C6.842,46.97 8.074,46.398 8.866,45.298 L32.34,13.42 C33.572,11.748 35.2,10.516 37.092,9.768 L37.092,43.12 C37.092,45.32 38.918,47.146 41.162,47.146 C43.582,47.146 45.342,45.386 45.342,43.186 L45.342,9.02 L83.842,9.02 C87.582,9.02 91.102,11 93.082,14.08 L112.2,45.188 C112.97,46.442 114.312,47.168 115.72,47.168 C116.38,47.168 117.128,46.948 117.788,46.552 C119.68,45.364 120.274,42.856 119.108,40.964 L99.814,9.68 C96.36,4.268 90.2,0.836 83.71,0.836" id="Shape" fill="#C6DEF3" fill-rule="nonzero" mask="url(#mask-2)"></path>
                    </g>
                </g>
                <g id="Group" transform="translate(0.000000, 68.464000)">
                    <g id="Clipped">
                        <mask id="mask-4" fill="white">
                            <use xlink:href="#path-3"></use>
                        </mask>
                        <g id="c"></g>
                        <path d="M155.21,9.13 L20.57,9.13 C13.706,9.174 8.14,14.74 8.14,21.604 L8.14,46.816 L167.64,46.772 L167.64,21.56 C167.64,18.26 166.32,15.114 163.966,12.76 C161.634,10.428 158.51,9.13 155.166,9.13 L155.21,9.13 Z M4.07,54.956 C2.97,54.956 1.958,54.516 1.21,53.768 C0.44,52.998 0,51.964 0,50.908 L0,21.56 C0,16.06 2.134,10.912 6.006,7.04 C9.9,3.146 15.07,1.012 20.526,1.012 L155.232,1.012 C160.732,1.012 165.88,3.124 169.752,7.018 C173.646,10.758 175.78,16.038 175.78,21.538 L175.78,50.798 C175.78,52.998 173.954,54.758 171.71,54.758 L4.07,54.758 L4.07,54.956 Z" id="Shape" fill="#1D7BCE" fill-rule="nonzero" mask="url(#mask-4)"></path>
                    </g>
                </g>
                <path d="M64.394,118.69 C64.394,130.636 54.714,140.316 42.834,140.316 C30.888,140.316 21.208,130.636 21.208,118.712 C21.208,106.766 30.888,97.086 42.768,97.086 C54.714,97.086 64.394,106.766 64.394,118.69" id="Shape" fill="#FFFFFF" fill-rule="nonzero"></path>
                <path d="M42.812,101.156 C33.132,101.156 25.278,109.032 25.278,118.712 C25.278,123.398 27.038,127.798 30.338,131.12 C33.638,134.42 38.038,136.246 42.658,136.246 C52.338,136.246 60.038,128.37 60.038,118.69 C60.038,114.004 58.102,109.604 54.802,106.282 C51.502,102.982 47.102,101.222 42.482,101.222 L42.812,101.156 Z M42.812,144.386 C35.948,144.386 29.524,141.746 24.662,136.862 C19.8,132 17.16,125.62 17.16,118.8 C17.16,104.632 28.644,93.104 42.79,93.104 C49.654,93.104 56.1,95.744 60.94,100.584 C65.78,105.424 68.464,111.892 68.464,118.756 C68.464,132.924 56.958,144.452 42.812,144.452 L42.812,144.386 Z" id="Shape" fill="#1D7BCE" fill-rule="nonzero"></path>
                <path d="M42.812,115.148 C40.832,115.148 39.248,116.732 39.248,118.712 C39.248,119.658 39.622,120.538 40.282,121.22 C41.162,121.88 42.042,122.254 42.922,122.254 C44.902,122.254 46.442,120.67 46.442,118.69 C46.442,117.744 46.222,116.864 45.562,116.182 C44.902,115.522 44.022,115.302 43.142,115.302 L42.812,115.148 Z M42.812,130.394 C39.688,130.394 36.762,129.184 34.54,126.984 C32.34,124.784 31.13,121.836 31.13,118.712 C31.13,112.244 36.366,107.008 42.79,107.008 C45.936,107.008 48.862,108.218 51.062,110.418 C53.262,112.618 54.582,115.478 54.582,118.558 C54.582,124.938 49.302,130.218 42.922,130.218 L42.812,130.394 Z" id="Shape" fill="#79B02E" fill-rule="nonzero"></path>
                <path d="M153.296,118.668 C153.296,130.614 143.616,140.294 131.736,140.294 C119.79,140.294 110.11,130.614 110.11,118.69 C110.11,106.744 119.79,97.064 131.67,97.064 C143.616,97.064 153.296,106.744 153.296,118.668" id="Shape" fill="#FFFFFF" fill-rule="nonzero"></path>
                <path d="M131.714,101.112 C122.034,101.112 114.18,109.032 114.18,118.712 C114.18,123.376 116.006,127.776 119.306,131.098 C122.606,134.398 127.006,136.158 131.692,136.158 C136.4,136.158 140.8,134.178 144.1,130.878 C147.4,127.578 149.226,123.178 149.226,118.338 C149.226,108.658 141.372,100.738 131.714,100.738 L131.714,101.112 Z M131.714,144.364 C124.85,144.364 118.426,141.724 113.564,136.84 C108.724,132 106.084,125.554 106.084,118.69 C106.04,104.522 117.524,92.994 131.692,92.994 C145.838,92.994 157.366,104.5 157.366,118.668 C157.366,125.532 154.726,131.978 149.842,136.84 C145.002,141.68 138.622,144.364 131.802,144.364 L131.714,144.364 Z" id="Shape" fill="#1D7BCE" fill-rule="nonzero"></path>
                <path d="M131.714,115.104 C130.746,115.104 129.866,115.478 129.184,116.16 C128.524,116.82 128.15,117.7 128.15,118.668 C128.15,119.636 128.524,120.516 129.184,121.198 C129.844,121.858 130.724,122.078 131.714,122.078 C132.66,122.078 133.54,121.638 134.222,120.978 C135.102,120.318 135.322,119.438 135.322,118.338 C135.322,117.304 135.102,116.402 134.442,115.742 C133.782,115.082 132.902,114.686 132.022,114.686 L131.714,115.104 Z M131.714,130.372 C128.59,130.372 125.664,129.162 123.442,126.94 C121.242,124.74 120.142,121.814 120.142,118.668 C120.142,115.588 121.462,112.618 123.662,110.418 C125.862,107.998 128.942,106.898 132.022,106.898 C135.102,106.898 138.182,107.998 140.382,110.198 C142.582,112.398 143.792,115.258 143.814,118.338 C143.814,121.418 142.604,124.344 140.404,126.544 C138.204,128.744 135.124,130.064 132.044,130.064 L131.714,130.372 Z" id="Shape" fill="#79B02E" fill-rule="nonzero"></path>
                <path d="M77.088,108.13 C74.844,108.13 73.04,106.304 73.04,104.06 C73.04,101.816 74.844,99.99 77.088,99.99 L97.416,99.99 C99.66,99.99 101.464,101.816 101.464,104.06 C101.464,106.304 99.66,108.13 97.416,108.13 L77.088,108.13 Z" id="Shape" fill="#1D7BCE" fill-rule="nonzero"></path>
            </g>
        </g>
    </g>
</svg>