<?xml version="1.0" encoding="UTF-8"?>
<svg width="192px" height="192px" viewBox="0 0 192 192" version="1.1" xmlns="http://www.w3.org/2000/svg" xmlns:xlink="http://www.w3.org/1999/xlink">
    <!-- Generator: Sketch 46.2 (44496) - http://www.bohemiancoding.com/sketch -->
    <title>ic_Department</title>
    <desc>Created with Sketch.</desc>
    <defs>
        <polygon id="path-1" points="2.03893333 2.58666667 68.6282667 2.58666667 68.6282667 52.9010667 2.03893333 52.9010667"></polygon>
    </defs>
    <g id="Page-1" stroke="none" stroke-width="1" fill="none" fill-rule="evenodd">
        <g id="ic_Department">
            <g id="Department-Stores" transform="translate(8.000000, 8.000000)">
                <g id="Page-1" transform="translate(28.160000, 0.000000)">
                    <path d="M8,56.2370667 L8,162.9304 C8,164.2984 9.11466667,165.413067 10.4853333,165.413067 L108.181333,165.413067 C109.552,165.413067 110.666667,164.2984 110.666667,162.9304 L110.666667,56.2370667 L8,56.2370667 Z M108.181333,173.413067 L10.4853333,173.413067 C4.704,173.413067 0,168.711733 0,162.9304 L0,52.2370667 C0,50.0290667 1.78933333,48.2370667 4,48.2370667 L114.666667,48.2370667 C116.874667,48.2370667 118.666667,50.0290667 118.666667,52.2370667 L118.666667,162.9304 C118.666667,168.711733 113.962667,173.413067 108.181333,173.413067 L108.181333,173.413067 Z" id="Fill-1" fill="#1D7BCE"></path>
                    <g id="Group-5" transform="translate(24.000000, 0.080800)">
                        <mask id="mask-2" fill="white">
                            <use xlink:href="#path-1"></use>
                        </mask>
                        <g id="Clip-4"></g>
                        <path d="M6.03893333,52.9010667 C3.82826667,52.9010667 2.03893333,51.1090667 2.03893333,48.9010667 L2.03893333,35.8797333 C2.03893333,17.5197333 16.9749333,2.5864 35.3322667,2.5864 C53.6922667,2.5864 68.6282667,17.5197333 68.6282667,35.8797333 L68.6282667,48.0850667 C68.6282667,50.2930667 66.8362667,52.0850667 64.6282667,52.0850667 C62.4202667,52.0850667 60.6282667,50.2930667 60.6282667,48.0850667 L60.6282667,35.8797333 C60.6282667,21.9330667 49.2816,10.5864 35.3322667,10.5864 C21.3856,10.5864 10.0389333,21.9330667 10.0389333,35.8797333 L10.0389333,48.9010667 C10.0389333,51.1090667 8.2496,52.9010667 6.03893333,52.9010667" id="Fill-3" fill="#1D7BCE" opacity="0.25" mask="url(#mask-2)"></path>
                    </g>
                    <path d="M91.8829333,153.882933 L26.7842667,153.882933 C24.5736,153.882933 22.7842667,152.090933 22.7842667,149.882933 C22.7842667,147.674933 24.5736,145.882933 26.7842667,145.882933 L91.8829333,145.882933 C94.0909333,145.882933 95.8829333,147.674933 95.8829333,149.882933 C95.8829333,152.090933 94.0909333,153.882933 91.8829333,153.882933" id="Fill-6" fill="#79B02E"></path>
                </g>
            </g>
        </g>
    </g>
</svg>