<?xml version="1.0" encoding="UTF-8"?>
<svg width="192px" height="192px" viewBox="0 0 192 192" version="1.1" xmlns="http://www.w3.org/2000/svg" xmlns:xlink="http://www.w3.org/1999/xlink">
    <!-- Generator: Sketch 46.2 (44496) - http://www.bohemiancoding.com/sketch -->
    <title>ic_Entertainment</title>
    <desc>Created with Sketch.</desc>
    <defs>
        <polygon id="path-1" points="0 0 0 96.8 176 96.8 176 0"></polygon>
        <polygon id="path-3" points="0 31.328 0 0 41.14 0 41.14 31.328"></polygon>
    </defs>
    <g id="Page-1" stroke="none" stroke-width="1" fill="none" fill-rule="evenodd">
        <g id="ic_Entertainment">
            <g id="Entertainment" transform="translate(8.000000, 8.000000)">
                <polygon id="Shape" points="0 0 176 0 176 176 0 176"></polygon>
                <path d="M143.11,121.264 C143.11,123.618 141.218,125.532 138.864,125.532 C136.51,125.532 134.596,123.618 134.596,121.264 C134.596,118.91 136.51,116.996 138.864,116.996 C141.218,116.996 143.11,118.91 143.11,121.264" id="Shape" fill="#F1162C" fill-rule="nonzero"></path>
                <g id="Clipped" transform="translate(0.000000, 33.000000)">
                    <mask id="mask-2" fill="white">
                        <use xlink:href="#path-1"></use>
                    </mask>
                    <g id="a"></g>
                    <path d="M8.514,88.264 L167.486,88.264 L167.486,8.536 L36.036,8.536 C34.98,8.536 33.99,8.976 33.264,9.702 L9.68,33.44 C8.932,34.188 8.514,35.2 8.514,36.234 L8.514,88.374 M171.754,96.8 L4.246,96.8 C1.914,96.8 0,94.886 0,92.532 L0,36.146 C0,32.802 1.32,29.678 3.652,27.346 L27.236,3.63 C29.59,1.32 32.736,0 36.036,0 L171.732,0 C174.086,0 176,1.914 176,4.268 L176,92.532 C176,94.886 174.086,96.8 171.732,96.8" id="Shape" fill="#1D7BCE" fill-rule="nonzero" mask="url(#mask-2)"></path>
                </g>
                <g id="Group" transform="translate(0.000000, 41.540400)">
                    <g id="Clipped">
                        <mask id="mask-4" fill="white">
                            <use xlink:href="#path-3"></use>
                        </mask>
                        <g id="c"></g>
                        <path d="M41.14,0 L36.08,0 C35.024,0 34.034,0.44 33.308,1.166 L32.692,1.76 L32.692,22.77 L11.704,22.77 L9.658,24.816 C8.844,25.564 8.426,26.576 8.426,27.61 L8.426,31.35 L36.806,31.35 C39.16,31.35 41.074,29.414 41.074,27.038 L41.074,0 M0.066,26.268 L0,27.06 L0,27.28 C0,26.928 0.044,26.62 0.066,26.268" id="Shape" fill="#C6DEF3" fill-rule="nonzero" mask="url(#mask-4)"></path>
                    </g>
                </g>
                <path d="M36.894,33 C34.562,33 32.648,34.914 32.648,37.268 L32.648,43.34 L33.264,42.68 C33.99,41.954 34.98,41.536 36.036,41.536 L41.162,41.536 L41.162,37.268 C41.14,34.914 39.336,33 36.96,33 M11.704,64.328 L4.268,64.328 C2.178,64.328 0.418,65.824 0.088,67.848 L0,68.794 C0.11,71.06 1.98,72.864 4.268,72.864 L8.514,72.864 L8.514,69.124 C8.514,68.09 8.954,67.1 9.658,66.352 L11.638,64.328" id="Shape" fill="#1D7BCE" fill-rule="nonzero"></path>
                <path d="M105.028,97.064 L25.52,97.064 C23.188,97.064 21.296,95.15 21.296,92.796 C21.296,90.42 23.188,88.528 25.542,88.528 L105.116,88.528 C107.47,88.528 109.384,90.42 109.384,92.796 C109.384,95.15 107.47,97.064 105.116,97.064 M105.116,111.32 L25.52,111.32 C23.188,111.32 21.296,109.384 21.296,107.03 C21.296,104.676 23.188,102.762 25.542,102.762 L105.116,102.762 C107.47,102.762 109.384,104.742 109.384,107.118 C109.384,109.472 107.47,111.386 105.116,111.386" id="Shape" fill="#79B02E" fill-rule="nonzero"></path>
                <path d="M138.864,77.704 C136.51,77.704 134.596,75.79 134.596,73.436 C134.596,71.06 136.51,69.168 138.864,69.168 C141.218,69.168 143.11,71.06 143.11,73.436 C143.11,75.79 141.218,77.704 138.864,77.704" id="Shape" fill="#1D7BCE" fill-rule="nonzero"></path>
                <path d="M143.11,89.364 C143.11,91.74 141.218,93.632 138.864,93.632 C136.51,93.632 134.596,91.74 134.596,89.364 C134.596,87.01 136.51,85.096 138.864,85.096 C141.218,85.096 143.11,87.01 143.11,89.364" id="Shape" fill="#F1162C" fill-rule="nonzero"></path>
                <path d="M143.11,105.314 C143.11,107.668 141.218,109.582 138.864,109.582 C136.51,109.582 134.596,107.756 134.596,105.402 C134.596,103.048 136.51,101.134 138.864,101.134 C141.218,101.134 143.11,103.048 143.11,105.402" id="Shape" fill="#1D7BCE" fill-rule="nonzero"></path>
            </g>
        </g>
    </g>
</svg>