<?xml version="1.0" encoding="UTF-8"?>
<svg width="192px" height="192px" viewBox="0 0 192 192" version="1.1" xmlns="http://www.w3.org/2000/svg" xmlns:xlink="http://www.w3.org/1999/xlink">
    <!-- Generator: Sketch 46.2 (44496) - http://www.bohemiancoding.com/sketch -->
    <title>ic_Electricals</title>
    <desc>Created with Sketch.</desc>
    <defs>
        <polygon id="path-1" points="0 145.2 176 145.2 176 0 0 0"></polygon>
        <polygon id="path-3" points="0 145.2 176 145.2 176 0 0 0"></polygon>
        <polygon id="path-5" points="0 145.2 176 145.2 176 0 0 0"></polygon>
    </defs>
    <g id="Page-1" stroke="none" stroke-width="1" fill="none" fill-rule="evenodd">
        <g id="ic_Electricals">
            <g id="Electricals" transform="translate(8.000000, 8.000000)">
                <polygon id="Shape" points="0 0 176 0 176 176 0 176"></polygon>
                <path d="M169.708,117.04 L6.292,117.04 C3.652,117.04 1.562,114.906 1.562,112.288 C1.562,109.692 3.762,107.558 6.402,107.558 L169.862,107.558 C172.502,107.558 174.658,109.538 174.658,112.178 C174.658,114.818 172.546,116.842 169.928,116.842 L169.708,117.04 Z" id="Shape" fill="#79B02E" fill-rule="nonzero"></path>
                <path d="M101.2,114.84 C99.99,114.84 98.78,114.4 97.856,113.454 C96.008,111.606 96.008,108.614 97.856,106.744 L131.186,73.26 C133.034,71.412 136.026,71.412 137.852,73.26 C139.7,75.108 139.7,78.1 137.852,79.97 L104.5,113.454 C103.62,114.378 102.388,114.84 101.2,114.84 M123.2,114.84 C121.99,114.84 120.78,114.4 119.856,113.454 C118.008,111.606 118.008,108.614 119.856,106.744 L140.448,86.064 C142.296,84.216 145.288,84.216 147.114,86.064 C148.962,87.912 148.962,90.904 147.114,92.752 L126.522,113.432 C125.642,114.378 124.542,114.84 123.222,114.84 M145.222,114.84 C144.122,114.84 142.802,114.4 141.922,113.454 C140.162,111.606 140.162,108.614 141.922,106.744 L150.062,98.692 C151.888,96.844 154.902,96.844 156.728,98.692 C158.554,100.54 158.554,103.532 156.728,105.38 L148.698,113.454 C147.818,114.378 146.608,114.84 145.398,114.84" id="Shape" fill="#79B02E" fill-rule="nonzero"></path>
                <g id="Clipped" transform="translate(0.000000, 17.600000)">
                    <mask id="mask-2" fill="white">
                        <use xlink:href="#path-1"></use>
                    </mask>
                    <g id="a"></g>
                    <path d="M9.46,110.484 L166.54,110.484 L166.54,9.46 L9.46,9.46 L9.46,110.484 Z M171.292,119.944 L4.708,119.944 C2.112,119.944 0,117.832 0,115.214 L0,4.73 C0,2.09 2.112,0 4.708,0 L171.292,0 C173.888,0 176,2.112 176,4.73 L176,115.214 C176,117.854 173.888,119.944 171.292,119.944 Z" id="Shape" fill="#1D7BCE" fill-rule="nonzero" mask="url(#mask-2)"></path>
                </g>
                <g id="Clipped" transform="translate(0.000000, 17.600000)">
                    <mask id="mask-4" fill="white">
                        <use xlink:href="#path-3"></use>
                    </mask>
                    <g id="a"></g>
                    <path d="M118.492,119.944 L108.988,119.944 L110.968,135.74 L65.032,135.74 L67.012,119.944 L57.486,119.944 L55,139.876 C54.846,141.196 55.22,142.582 56.166,143.616 C57.046,144.606 58.366,145.2 59.686,145.2 L116.27,145.2 C117.59,145.2 118.91,144.606 119.79,143.594 C120.67,142.582 121.11,141.218 120.934,139.854 L118.47,119.944" id="Shape" fill="#C6DEF3" fill-rule="nonzero" mask="url(#mask-4)"></path>
                </g>
                <g id="Clipped" transform="translate(0.000000, 17.600000)">
                    <mask id="mask-6" fill="white">
                        <use xlink:href="#path-5"></use>
                    </mask>
                    <g id="a"></g>
                    <path d="M113.146,110.484 L62.854,110.484 C60.478,110.484 58.454,112.244 58.19,114.62 L57.53,119.944 L118.47,119.944 L117.81,114.62 C117.502,112.266 115.5,110.484 113.124,110.484 M135.124,145.2 L40.876,145.2 C38.28,145.2 36.168,143.088 36.168,140.47 C36.168,137.83 38.28,135.74 40.876,135.74 L135.168,135.74 C137.764,135.74 139.876,137.852 139.876,140.47 C139.876,143.11 137.764,145.2 135.168,145.2" id="Shape" fill="#1D7BCE" fill-rule="nonzero" mask="url(#mask-6)"></path>
                </g>
            </g>
        </g>
    </g>
</svg>