<?xml version="1.0" encoding="UTF-8"?>
<svg width="192px" height="192px" viewBox="0 0 192 192" version="1.1" xmlns="http://www.w3.org/2000/svg" xmlns:xlink="http://www.w3.org/1999/xlink">
    <!-- Generator: Sketch 46.2 (44496) - http://www.bohemiancoding.com/sketch -->
    <title>ic_Fashion</title>
    <desc>Created with Sketch.</desc>
    <defs></defs>
    <g id="Page-1" stroke="none" stroke-width="1" fill="none" fill-rule="evenodd">
        <g id="ic_Fashion">
            <g id="Fashion" transform="translate(8.000000, 8.000000)">
                <polygon id="Shape" points="0 0 176 0 176 176 0 176"></polygon>
                <path d="M4.07,149.82 C3.366,149.82 2.662,149.6 2.046,149.27 C0.792,148.544 0,147.18 0,145.75 L0,124.08 C0,122.54 0.792,121.22 2.09,120.472 L85.36,74.052 C87.296,72.952 89.76,73.656 90.86,75.636 C91.96,77.572 91.256,80.036 89.32,81.136 L8.14,126.5 L8.14,138.6 L85.25,92.73 C87.186,91.586 89.65,92.224 90.816,94.16 C91.96,96.096 91.322,98.604 89.386,99.748 L6.16,149.204 C5.5,149.6 4.774,149.798 4.07,149.798" id="Shape" fill="#1D7BCE" fill-rule="nonzero"></path>
                <path d="M87.34,81.708 C85.074,81.708 83.27,79.882 83.27,77.638 L83.27,67.408 C70.18,65.428 60.126,54.076 60.126,40.414 C60.126,25.41 72.336,13.2 87.34,13.2 C102.3,13.2 114.51,25.432 114.51,40.48 C114.51,42.746 112.684,44.572 110.462,44.572 C108.262,44.572 106.458,42.746 106.458,40.48 C106.458,29.92 97.878,21.34 87.384,21.34 C76.824,21.34 68.332,29.92 68.332,40.48 C68.332,51.04 76.868,59.62 87.384,59.62 C89.584,59.62 91.41,61.446 91.41,63.712 L91.41,77.638 C91.41,79.838 89.584,81.642 87.34,81.642" id="Shape" fill="#F1162C" fill-rule="nonzero"></path>
                <path d="M170.588,149.82 C169.862,149.82 169.158,149.6 168.52,149.226 L85.25,99.726 C83.314,98.56 82.676,96.052 83.82,94.116 C84.986,92.18 87.472,91.542 89.386,92.686 L166.54,138.556 L166.54,126.456 L85.36,81.18 C83.38,80.08 82.676,77.616 83.776,75.68 C84.876,73.7 87.34,72.974 89.276,74.074 L172.568,120.494 C173.844,121.22 174.636,122.584 174.636,124.058 L174.636,145.662 C174.636,147.114 173.866,148.478 172.59,149.182 C171.974,149.556 171.27,149.732 170.61,149.732" id="Shape" fill="#1D7BCE" fill-rule="nonzero"></path>
                <path d="M142.78,133.914 L31.9,133.914 L18.194,142.054 L153.626,142.054 C154.33,142.054 155.012,141.878 155.606,141.548 L142.758,133.914" id="Shape" fill="#C6DEF3" fill-rule="nonzero"></path>
                <path d="M31.9,133.914 L17.93,133.914 C15.73,133.914 13.882,135.74 13.882,137.984 C13.882,140.228 15.774,142.054 17.996,142.054 L18.26,142.054 L31.944,133.914 M153.67,133.914 L142.78,133.914 L155.606,141.548 C156.838,140.844 157.696,139.524 157.696,137.984 C157.696,135.74 155.87,133.914 153.626,133.914" id="Shape" fill="#1D7BCE" fill-rule="nonzero"></path>
            </g>
        </g>
    </g>
</svg>