<?xml version="1.0" encoding="UTF-8"?>
<svg width="192px" height="192px" viewBox="0 0 192 192" version="1.1" xmlns="http://www.w3.org/2000/svg" xmlns:xlink="http://www.w3.org/1999/xlink">
    <!-- Generator: Sketch 46.2 (44496) - http://www.bohemiancoding.com/sketch -->
    <title>ic_Food _ Drink</title>
    <desc>Created with Sketch.</desc>
    <defs>
        <polygon id="path-1" points="81.334 1.32 81.334 86.68 1.32 86.68 1.32 1.32"></polygon>
    </defs>
    <g id="Page-1" stroke="none" stroke-width="1" fill="none" fill-rule="evenodd">
        <g id="ic_Food-_-Drink">
            <g id="Food-_-Drink" transform="translate(8.000000, 8.000000)">
                <polyline id="Shape" points="0 0 176 0 176 176 0 176"></polyline>
                <g id="Group" transform="translate(93.332800, 29.290800)">
                    <g id="Clipped">
                        <mask id="mask-2" fill="white">
                            <use xlink:href="#path-1"></use>
                        </mask>
                        <g id="a"></g>
                        <path d="M14.674,9.328 C11.726,9.328 9.328,11.748 9.328,14.674 L9.328,41.36 C9.328,58.608 23.32,78.672 41.338,78.672 C59.158,78.672 73.238,58.608 73.238,41.338 L73.238,14.52 C73.238,11.572 70.818,9.174 67.958,9.174 L14.52,9.174 M41.36,86.68 C18.414,86.68 1.32,62.7 1.32,41.36 L1.32,14.652 C1.32,7.304 7.326,1.32 14.696,1.32 L67.98,1.32 C75.35,1.32 81.334,7.304 81.334,14.674 L81.334,41.36 C81.334,62.7 64.218,86.68 41.338,86.68" id="Shape" fill="#1D7BCE" fill-rule="nonzero" mask="url(#mask-2)"></path>
                    </g>
                </g>
                <path d="M138.666,115.72 C137.346,115.874 136.026,115.94 134.662,115.94 C133.342,115.94 132.022,115.874 130.702,115.72 L130.702,163.966 C130.702,166.166 132.462,167.926 134.662,167.926 C137.082,167.926 138.842,166.166 138.842,163.966 L138.842,115.72" id="Shape" fill="#C6DEF3" fill-rule="nonzero"></path>
                <path d="M134.64,111.98 C132.528,111.98 130.79,113.608 130.68,115.72 C132,115.874 133.32,115.94 134.64,115.94 C136.026,115.94 137.346,115.874 138.666,115.72 C138.534,113.608 136.796,111.98 134.662,111.98" id="Shape" fill="#1D7BCE" fill-rule="nonzero"></path>
                <path d="M161.326,167.948 L108.02,167.948 C105.82,167.948 103.994,166.188 103.994,163.988 C103.994,161.744 105.798,159.962 107.998,159.962 L161.238,159.962 C163.438,159.962 165.198,161.942 165.198,164.142 C165.198,166.342 163.438,168.102 161.238,168.102" id="Shape" fill="#F1162C" fill-rule="nonzero"></path>
                <path d="M72.006,28.116 L57.486,82.5 C57.178,83.71 57.42,84.964 58.19,85.954 C58.938,86.922 60.082,87.494 61.336,87.494 L66.528,87.494 C69.608,87.494 72.512,88.88 74.448,91.322 C76.384,93.742 77.088,97.042 76.384,99.902 L64.108,152.922 C63.536,155.342 64.108,157.982 65.648,159.742 C67.188,161.722 69.476,162.822 71.94,162.822 C74.58,162.822 77,161.722 78.804,159.962 C80.608,157.982 81.488,155.562 81.29,152.922 L72.006,28.16 L72.006,28.116 Z M71.94,170.632 C67.012,170.632 62.436,168.432 59.4,164.56 C56.32,160.71 55.22,155.76 56.32,150.92 L68.596,98.12 C68.816,97.24 68.42,96.58 68.156,96.294 C67.936,95.986 67.408,95.502 66.528,95.502 L61.336,95.502 C57.596,95.502 54.12,93.962 51.832,90.882 C49.544,88.022 48.796,84.282 49.764,80.542 L68.244,11.242 C68.948,8.822 71.324,7.062 73.964,7.282 C76.604,7.502 78.628,9.702 78.804,12.342 L89.254,152.262 C89.606,157.102 87.934,161.898 84.678,165.418 C81.378,168.938 76.758,170.984 71.918,170.984 L71.918,170.764 L71.94,170.632 Z" id="Shape" fill="#79B02E" fill-rule="nonzero"></path>
                <path d="M9.13,45.32 L14.41,66.44 C15.51,70.752 15.884,75.174 15.598,79.574 L10.56,153.56 C10.56,158.444 14.74,162.624 19.91,162.624 C24.97,162.624 29.15,158.51 29.216,153.384 L24.376,79.596 C24.068,75.196 24.464,70.796 25.542,66.484 L30.822,45.364 L9.24,45.364 M20.02,170.61 C10.45,170.61 2.64,162.822 2.64,153.274 L7.612,79.024 C7.832,75.438 7.524,71.874 6.666,68.376 L0.11,42.24 C-0.176,41.074 0.11,39.82 0.836,38.83 C1.606,37.862 2.772,37.29 4.004,37.29 L35.992,37.29 C37.224,37.29 38.412,37.862 39.16,38.83 C39.908,39.798 40.172,41.074 39.886,42.262 L33.352,68.442 C32.472,71.962 32.164,75.482 32.384,79.222 L37.334,153.362 L37.334,153.582 C37.334,163.218 29.568,170.962 19.998,170.962" id="Shape" fill="#1D7BCE" fill-rule="nonzero"></path>
                <path d="M4.004,13.288 C1.804,13.288 0,15.092 0,17.292 L0,41.206 C0,40.326 0.308,39.512 0.836,38.83 C1.606,37.862 2.772,37.29 4.004,37.29 L8.008,37.29 L8.008,17.27 C8.008,15.07 6.204,13.31 4.004,13.31 M0.044,41.8 L0.044,41.844 M0.044,41.91 C0.044,42.064 0.088,42.24 0.132,42.394 L0.132,42.306 L0,41.866" id="Shape" fill="#C6DEF3" fill-rule="nonzero"></path>
                <path d="M8.008,37.29 L4.004,37.29 C2.772,37.29 1.584,37.862 0.836,38.83 C0.308,39.49 0.022,40.37 2.22044605e-16,41.206 L2.22044605e-16,41.294 C2.22044605e-16,41.47 2.22044605e-16,41.646 0.044,41.822 L0.044,42.042 L0.11,42.482 L0.11,42.702 C0.594,44.462 2.156,45.716 4.004,45.716 C6.204,45.716 8.008,43.912 8.008,41.712 L8.008,37.4" id="Shape" fill="#1D7BCE" fill-rule="nonzero"></path>
                <path d="M20.02,13.288 C17.82,13.288 15.994,15.092 15.994,17.292 L15.994,37.312 L24.002,37.312 L24.002,17.292 C24.002,15.092 22.242,13.288 20.042,13.288" id="Shape" fill="#C6DEF3" fill-rule="nonzero"></path>
                <path d="M23.98,37.29 L16.016,37.29 L16.016,41.294 C16.016,43.494 17.82,45.298 20.02,45.298 C22.22,45.298 23.98,43.318 23.98,41.118 L23.98,37.158" id="Shape" fill="#1D7BCE" fill-rule="nonzero"></path>
                <path d="M35.992,13.288 C33.792,13.288 32.032,15.092 32.032,17.292 L32.032,37.312 L35.992,37.312 C37.224,37.312 38.412,37.862 39.16,38.852 C39.688,39.512 39.974,40.348 39.996,41.206 L39.996,17.292 C39.996,15.092 38.236,13.288 35.992,13.288 M39.952,41.8 L39.952,41.844 M39.952,41.91 L39.886,42.306 L39.886,42.394 L39.952,41.954" id="Shape" fill="#C6DEF3" fill-rule="nonzero"></path>
                <path d="M35.992,37.29 L32.032,37.29 L32.032,41.294 C32.032,43.494 33.792,45.298 35.992,45.298 C37.84,45.298 39.402,43.978 39.864,42.218 L39.864,41.998 L39.952,41.558 C39.996,41.338 39.996,41.118 39.996,40.942 L39.996,40.854 C39.996,39.974 39.688,39.138 39.16,38.434 C38.39,37.488 37.224,36.894 35.992,36.894" id="Shape" fill="#1D7BCE" fill-rule="nonzero"></path>
            </g>
        </g>
    </g>
</svg>