<?xml version="1.0" encoding="UTF-8"?>
<svg width="192px" height="192px" viewBox="0 0 192 192" version="1.1" xmlns="http://www.w3.org/2000/svg" xmlns:xlink="http://www.w3.org/1999/xlink">
    <!-- Generator: Sketch 46.2 (44496) - http://www.bohemiancoding.com/sketch -->
    <title>ic_Health_Beauty</title>
    <desc>Created with Sketch.</desc>
    <defs>
        <polygon id="path-1" points="1.54 23.98 84.04 23.98 84.04 0.528 1.54 0.528"></polygon>
        <polygon id="path-3" points="0 172.326 110 172.326 110 0 0 0"></polygon>
        <polygon id="path-5" points="0 172.326 110 172.326 110 0 0 0"></polygon>
        <polygon id="path-7" points="0 172.326 110 172.326 110 0 0 0"></polygon>
        <polygon id="path-9" points="0 172.326 110 172.326 110 0 0 0"></polygon>
        <polygon id="path-11" points="0 172.326 110 172.326 110 0 0 0"></polygon>
    </defs>
    <g id="Page-1" stroke="none" stroke-width="1" fill="none" fill-rule="evenodd">
        <g id="ic_Health_Beauty">
            <g id="Health-_-Beauty" transform="translate(4.000000, 9.000000)">
                <polygon id="Shape" points="0 0 176 0 176 173.8 0 173.8"></polygon>
                <g id="Group" transform="translate(45.223200, 148.352600)">
                    <g id="Clipped">
                        <mask id="mask-2" fill="white">
                            <use xlink:href="#path-1"></use>
                        </mask>
                        <g id="a"></g>
                        <path d="M1.628,0.528 C1.54,0.836 1.54,1.188 1.54,1.496 L1.54,19.47 C1.54,21.956 3.586,23.98 6.116,23.98 L79.42,23.98 C81.972,23.98 84.04,21.956 84.04,19.47 L84.04,1.496 C84.04,1.166 83.996,0.836 83.908,0.528 C80.322,3.036 75.9,4.488 71.148,4.488 L14.388,4.488 C9.68,4.488 5.28,3.036 1.628,0.528 Z M10.692,14.96 L74.866,14.96 L74.866,6.006 L10.692,6.006 L10.692,15.026 L10.692,14.96 Z" id="Shape" fill="#C6DEF3" fill-rule="nonzero" mask="url(#mask-2)"></path>
                    </g>
                </g>
                <path d="M107.866,47.96 L68.134,47.96 C65.604,47.96 63.558,45.936 63.558,43.45 C63.558,40.986 65.538,38.962 67.958,38.962 L107.8,38.962 C110.352,38.962 112.42,41.162 112.42,43.582 C112.42,46.178 110.374,48.202 107.844,48.202" id="Shape" fill="#C18E1D" fill-rule="nonzero"></path>
                <g id="Clipped" transform="translate(33.000000, 0.000000)">
                    <mask id="mask-4" fill="white">
                        <use xlink:href="#path-3"></use>
                    </mask>
                    <g id="c"></g>
                    <path d="M44.308,38.94 L65.692,38.94 L65.692,9.02 L44.308,9.02 L44.308,38.94 Z M70.268,47.96 L39.732,47.96 C37.202,47.96 35.112,45.936 35.112,43.45 L35.112,4.51 C35.112,2.024 37.202,0 39.732,0 L70.268,0 C72.798,0 74.888,2.024 74.888,4.488 L74.888,43.428 C74.888,45.936 72.798,47.96 70.268,47.96 L70.268,47.96 Z" id="Shape" fill="#C18E1D" fill-rule="nonzero" mask="url(#mask-4)"></path>
                </g>
                <g id="Clipped" transform="translate(33.000000, 0.000000)">
                    <mask id="mask-6" fill="white">
                        <use xlink:href="#path-5"></use>
                    </mask>
                    <g id="c"></g>
                    <path d="M53.086,22.484 C53.086,27.434 49.676,31.46 45.452,31.46 C41.228,31.46 37.818,27.434 37.818,22.484 C37.818,17.512 41.118,13.464 45.298,13.464 C49.478,13.464 52.844,17.512 52.844,22.484" id="Shape" fill="#C18E1D" fill-rule="nonzero" mask="url(#mask-6)"></path>
                </g>
                <g id="Clipped" transform="translate(33.000000, 0.000000)">
                    <mask id="mask-8" fill="white">
                        <use xlink:href="#path-7"></use>
                    </mask>
                    <g id="c"></g>
                    <path d="M9.174,80.3 L13.86,132.374 C14.454,138.908 19.954,143.858 26.664,143.858 L83.336,143.858 C90.046,143.858 95.546,138.798 96.14,132.198 L100.826,80.058 C100.738,65.538 88.638,53.658 73.766,53.658 L36.234,53.658 C21.362,53.658 9.262,65.538 9.174,80.058 M83.314,152.592 L26.686,152.592 C15.18,152.592 5.786,144.122 4.752,132.88 L0,80.85 L0,80.41 C0,60.83 16.28,44.924 36.234,44.924 L73.766,44.924 C93.72,45.1 110,60.94 110,80.52 L110,80.894 L105.27,133.144 C104.258,144.364 94.842,152.856 83.336,152.856" id="Shape" fill="#1D7BCE" fill-rule="nonzero" mask="url(#mask-8)"></path>
                </g>
                <g id="Clipped" transform="translate(33.000000, 0.000000)">
                    <mask id="mask-10" fill="white">
                        <use xlink:href="#path-9"></use>
                    </mask>
                    <g id="c"></g>
                    <path d="M56.54,74.932 L9.746,74.932 C9.372,76.692 9.152,78.452 9.152,80.3 L9.46,83.908 L56.54,83.908 C59.048,83.908 61.116,81.928 61.116,79.42 C61.116,76.934 59.048,74.932 56.496,74.932 M0.044,78.826 L0,79.42 L0,79.706 C0,79.42 0,79.112 0.044,78.826" id="Shape" fill="#C6DEF3" fill-rule="nonzero" mask="url(#mask-10)"></path>
                </g>
                <g id="Clipped" transform="translate(33.000000, 0.000000)">
                    <mask id="mask-12" fill="white">
                        <use xlink:href="#path-11"></use>
                    </mask>
                    <g id="c"></g>
                    <path d="M9.768,74.932 L4.576,74.932 C2.266,74.932 0.33,76.626 0.044,78.826 C0.044,79.112 0.044,79.42 1.77635684e-15,79.706 C0.154,82.06 2.156,83.886 4.576,83.886 L9.482,83.886 L9.262,80.3 C9.262,78.452 9.482,76.67 9.922,74.932 M105.6,83.908 L81.18,83.908 C78.628,83.908 76.56,81.928 76.56,79.42 C76.56,76.934 78.628,74.932 81.18,74.932 L105.6,74.932 C108.13,74.932 110.176,76.912 110.176,79.42 C110.176,81.906 108.152,83.908 105.622,83.908" id="Shape" fill="#1D7BCE" fill-rule="nonzero" mask="url(#mask-12)"></path>
                </g>
            </g>
        </g>
    </g>
</svg>