<?xml version="1.0" encoding="UTF-8"?>
<svg width="192px" height="192px" viewBox="0 0 192 192" version="1.1" xmlns="http://www.w3.org/2000/svg" xmlns:xlink="http://www.w3.org/1999/xlink">
    <!-- Generator: Sketch 46.2 (44496) - http://www.bohemiancoding.com/sketch -->
    <title>ic_Home _ DIY</title>
    <desc>Created with Sketch.</desc>
    <defs>
        <polygon id="path-1" points="7.766 12.87 0 12.87 0 0 7.766 0"></polygon>
        <polygon id="path-3" points="7.766 12.87 0 12.87 0 0 7.766 0"></polygon>
    </defs>
    <g id="Page-1" stroke="none" stroke-width="1" fill="none" fill-rule="evenodd">
        <g id="ic_Home-_-DIY">
            <g id="Home-_-DIY" transform="translate(8.000000, 8.000000)">
                <polygon id="Shape" points="0 0 176 0 176 176 0 176"></polygon>
                <path d="M165.396,126.632 L10.604,126.632 C4.752,126.632 0,121.88 0,116.072 L0,78.232 C0,69.432 7.216,62.238 16.06,62.238 C25.146,62.238 32.34,69.278 32.34,78.078 L32.34,81.4 C32.34,83.556 30.624,85.294 28.468,85.294 C26.334,85.294 24.596,83.534 24.596,81.422 L24.596,78.122 C24.596,73.634 20.856,69.916 16.28,69.916 C11.484,69.916 7.766,73.656 7.766,78.188 L7.766,116.028 C7.766,117.568 9.042,118.888 10.626,118.888 L165.396,118.888 C166.936,118.888 168.256,117.656 168.256,116.094 L168.256,78.254 C168.256,73.678 164.516,69.96 159.896,69.96 C155.144,69.96 151.404,73.7 151.404,78.21 L151.404,84.15 C151.404,86.24 149.644,87.978 147.532,87.978 C145.376,87.978 143.638,86.218 143.638,84.062 L143.638,78.122 C143.638,69.322 150.678,62.062 159.698,62.062 C168.718,62.062 176,69.256 176,78.1 L176,115.94 C176,121.748 171.16,126.5 165.22,126.5" id="Shape" fill="#1D7BCE" fill-rule="nonzero"></path>
                <g id="Group" transform="translate(12.940400, 126.632000)">
                    <g id="Clipped">
                        <mask id="mask-2" fill="white">
                            <use xlink:href="#path-1"></use>
                        </mask>
                        <g id="a"></g>
                        <path d="M7.766,0 L0,0 L0,9.02 C0,11.154 1.76,12.87 3.872,12.87 C6.028,12.87 7.766,11.154 7.766,9.02 L7.766,0" id="Shape" fill="#C6DEF3" fill-rule="nonzero" mask="url(#mask-2)"></path>
                    </g>
                </g>
                <path d="M16.83,118.91 C14.674,118.91 12.936,120.67 12.936,122.76 L12.936,126.632 L20.68,126.632 L20.68,122.76 C20.68,120.648 18.964,118.91 16.83,118.91" id="Shape" fill="#1D7BCE" fill-rule="nonzero"></path>
                <g id="Group" transform="translate(152.706400, 126.632000)">
                    <g id="Clipped">
                        <mask id="mask-4" fill="white">
                            <use xlink:href="#path-3"></use>
                        </mask>
                        <g id="c"></g>
                        <path d="M7.766,0 L0,0 L0,9.02 C0,11.154 1.76,12.87 3.872,12.87 C6.028,12.87 7.766,11.154 7.766,9.02 L7.766,0" id="Shape" fill="#C6DEF3" fill-rule="nonzero" mask="url(#mask-4)"></path>
                    </g>
                </g>
                <path d="M156.596,118.91 C154.44,118.91 152.702,120.67 152.702,122.76 L152.702,126.632 L160.6,126.632 L160.6,122.76 C160.6,120.648 158.84,118.91 156.728,118.91" id="Shape" fill="#1D7BCE" fill-rule="nonzero"></path>
                <path d="M32.34,91.872 L143.66,91.872 L143.66,55.506 C143.66,48.576 137.984,42.922 131.01,42.922 L44.99,42.922 C38.016,42.922 32.362,48.642 32.362,55.682 L32.362,91.982 L32.34,91.872 Z M147.532,99.572 L28.468,99.572 C26.334,99.572 24.596,97.856 24.596,95.722 L24.596,55.66 C24.596,44.44 33.748,35.354 44.99,35.354 L131.01,35.354 C142.23,35.354 151.404,44.484 151.404,55.682 L151.404,95.722 C151.404,97.922 149.644,99.682 147.532,99.682 L147.532,99.572 Z" id="Shape" fill="#79B02E" fill-rule="nonzero"></path>
            </g>
        </g>
    </g>
</svg>