<?xml version="1.0" encoding="UTF-8"?>
<svg width="192px" height="192px" viewBox="0 0 192 192" version="1.1" xmlns="http://www.w3.org/2000/svg" xmlns:xlink="http://www.w3.org/1999/xlink">
    <!-- Generator: Sketch 46.2 (44496) - http://www.bohemiancoding.com/sketch -->
    <title>ic_Insurance</title>
    <desc>Created with Sketch.</desc>
    <defs>
        <polygon id="path-1" points="176 0.44 176 93.28 0 93.28 0 0.44"></polygon>
    </defs>
    <g id="Page-1" stroke="none" stroke-width="1" fill="none" fill-rule="evenodd">
        <g id="ic_Insurance">
            <g id="Insurance" transform="translate(8.000000, 8.000000)">
                <polygon id="Shape" points="0 0 176 0 176 176 0 176"></polygon>
                <path d="M92.4,109.648 L91.388,110.814 C90.552,111.826 89.298,112.42 88,112.42 C86.68,112.42 85.448,111.826 84.612,110.814 L83.6,109.648 L83.6,147.268 C83.6,154.66 77.66,160.6 70.4,160.6 C63.14,160.6 57.2,154.66 57.2,147.334 L57.2,129.668 C57.2,127.248 55.22,125.268 52.8,125.268 C50.38,125.268 48.4,127.248 48.4,129.668 L48.4,147.334 C48.4,159.5 58.3,169.4 70.4,169.4 C82.5,169.4 92.4,159.5 92.4,147.29 L92.4,109.67" id="Shape" fill="#C6DEF3" fill-rule="nonzero"></path>
                <g id="Group" transform="translate(0.000000, 19.131200)">
                    <g id="Clipped">
                        <mask id="mask-2" fill="white">
                            <use xlink:href="#path-1"></use>
                        </mask>
                        <g id="a"></g>
                        <path d="M25.3,73.92 C33,73.92 40.26,76.934 46.2,82.456 C52.14,76.956 59.4,73.942 67.1,73.942 C74.8,73.942 82.06,77.022 88,82.522 C93.94,77.022 101.2,74.162 108.9,74.162 C116.6,74.162 123.86,77.022 129.8,82.522 C135.74,77.022 143,74.162 150.7,74.162 C156.332,74.162 161.7,75.922 166.54,78.782 C161.48,39.6 128.194,9.46 88,9.46 C47.806,9.24 14.52,39.446 9.46,78.54 C14.3,75.548 19.668,73.92 25.3,73.92 M171.6,93.28 C170.324,93.28 169.07,92.708 168.212,91.696 C163.482,85.976 157.256,82.786 150.7,82.786 C144.144,82.786 137.94,85.954 133.21,91.696 C131.538,93.72 128.084,93.72 126.434,91.696 C121.682,85.976 115.434,82.786 108.9,82.786 C102.344,82.786 96.14,85.954 91.388,91.696 C90.552,92.708 89.32,93.28 88,93.28 C86.68,93.28 85.448,92.708 84.612,91.696 C79.882,85.976 73.656,82.786 67.1,82.786 C60.544,82.786 54.34,85.954 49.61,91.696 C48.774,92.708 47.52,93.28 46.222,93.28 C44.902,93.28 43.802,92.708 42.922,91.696 C38.302,85.976 31.922,82.786 25.542,82.786 C19.162,82.786 12.782,85.954 8.162,91.696 C7.062,93.126 5.082,93.676 3.322,93.016 C1.32,92.4 0,90.728 0,88.836 C0,40.15 39.468,0.484 88,0.484 C136.532,0.484 176,40.172 176,88.924 C176,90.772 174.834,92.444 173.096,93.06 C172.612,93.236 172.106,93.324 171.6,93.324" id="Shape" fill="#F1162C" fill-rule="nonzero" mask="url(#mask-2)"></path>
                    </g>
                </g>
                <path d="M85.272,28.49 C81.972,28.6 78.716,28.93 75.526,29.414 C51.106,52.778 44.286,89.254 42.856,98.846 C44.022,99.682 45.144,100.606 46.2,101.574 C48.048,99.88 50.006,98.406 52.074,97.174 C54.406,84.304 62.92,49.06 88,30.448 C87.208,29.854 86.394,29.282 85.58,28.732 C85.448,28.666 85.36,28.578 85.272,28.512" id="Shape" fill="#FBC5CA" fill-rule="nonzero"></path>
                <path d="M88,20.592 C87.164,20.592 86.306,20.812 85.58,21.34 C81.928,23.76 78.584,26.51 75.526,29.414 C78.716,28.908 81.972,28.6 85.272,28.49 C83.512,27.082 83.072,24.53 84.348,22.55 C85.184,21.296 86.592,20.614 88,20.614 C88.308,20.614 88.66,20.614 88.924,20.702 L88,20.702 M89.54,20.922 L90.42,21.582 C90.464,21.582 90.508,21.582 90.53,21.802 C90.222,21.582 89.87,21.362 89.54,21.362 M52.074,97.24 C50.006,98.45 48.048,99.924 46.2,101.64 C45.144,100.628 44,99.726 42.856,98.89 L42.57,101.31 C42.284,103.73 44.044,105.93 46.442,106.216 L47.102,106.216 C49.302,106.216 51.282,104.544 51.502,102.256 C51.502,102.146 51.722,100.342 52.382,97.306 M88.88,20.68 C88.88,20.68 88.924,20.68 88.946,20.724 L88.88,20.724 M88.946,20.724 C89.1,20.724 89.232,20.79 89.386,20.834 L88.946,20.724" id="Shape" fill="#F1162C" fill-rule="nonzero"></path>
                <path d="M90.728,28.49 L90.442,28.71 L88.022,30.426 C113.102,48.994 121.682,84.26 124.102,97.196 C126.302,98.406 128.282,99.836 130.042,101.596 C131.142,100.584 132.242,99.682 133.342,98.846 C131.802,89.276 124.982,52.8 100.562,29.414 C97.482,28.908 94.182,28.6 90.882,28.49" id="Shape" fill="#FBC5CA" fill-rule="nonzero"></path>
                <path d="M90.53,21.406 C90.97,21.714 91.344,22.11 91.63,22.572 C92.95,24.508 92.51,27.082 90.75,28.512 C94.05,28.6 97.284,28.908 100.474,29.436 C97.438,26.532 94.138,23.826 90.53,21.406 M123.926,97.196 C124.476,100.21 124.696,102.036 124.696,102.124 C124.916,104.39 126.852,106.084 129.052,106.084 L129.558,106.018 C131.978,105.578 133.518,103.378 133.298,100.958 L132.858,98.538 C131.758,99.418 130.438,100.298 129.558,101.178 C127.578,99.418 125.598,97.944 123.618,96.778" id="Shape" fill="#F1162C" fill-rule="nonzero"></path>
                <path d="M88,28.446 C87.076,28.446 86.174,28.446 85.272,28.49 L85.558,28.71 L87.978,30.426 C88.638,29.832 89.518,29.26 90.398,28.71 L90.618,28.49 C89.738,28.446 88.858,28.446 87.758,28.446" id="Shape" fill="#F999A2" fill-rule="nonzero"></path>
                <path d="M88,20.614 C86.592,20.614 85.184,21.274 84.348,22.594 C83.028,24.508 83.468,27.082 85.272,28.49 C86.152,28.446 87.076,28.446 88,28.446 C88.924,28.446 89.826,28.446 90.728,28.49 C92.488,27.082 92.928,24.53 91.652,22.55 C91.344,22.11 90.992,21.714 90.552,21.406 C90.508,21.406 90.464,21.362 90.442,21.34 C90.222,21.164 90.002,21.01 89.562,20.9 L89.562,20.856 L89.122,20.724 C88.902,20.636 88.462,20.614 88.242,20.614" id="Shape" fill="#F1162C" fill-rule="nonzero"></path>
                <path d="M89.474,27.94 C87.054,27.94 85.074,25.96 85.074,23.54 L85.074,8.8 C85.074,6.38 87.054,4.4 89.474,4.4 C91.894,4.4 93.874,6.38 93.874,8.8 L93.874,23.54 C93.874,25.96 91.894,27.94 89.474,27.94" id="Shape" fill="#F1162C" fill-rule="nonzero"></path>
            </g>
        </g>
    </g>
</svg>