<?xml version="1.0" encoding="UTF-8"?>
<svg width="192px" height="192px" viewBox="0 0 192 192" version="1.1" xmlns="http://www.w3.org/2000/svg" xmlns:xlink="http://www.w3.org/1999/xlink">
    <!-- Generator: Sketch 46.2 (44496) - http://www.bohemiancoding.com/sketch -->
    <title>ic_Luxury</title>
    <desc>Created with Sketch.</desc>
    <defs>
        <polygon id="path-1" points="0 0 0 107.8 90.926 107.8 90.926 0"></polygon>
        <polygon id="path-3" points="92.4 0 92.4 107.8 1.474 107.8 1.474 0"></polygon>
    </defs>
    <g id="Page-1" stroke="none" stroke-width="1" fill="none" fill-rule="evenodd">
        <g id="ic_Luxury">
            <g id="Luxury" transform="translate(8.000000, 8.000000)">
                <polygon id="Shape" points="0 0 176 0 176 176 0 176"></polygon>
                <g id="Clipped" transform="translate(0.000000, 35.200000)">
                    <mask id="mask-2" fill="white">
                        <use xlink:href="#path-1"></use>
                    </mask>
                    <g id="a"></g>
                    <path d="M86.526,107.8 C85.514,107.8 84.502,107.448 83.666,106.744 L1.54,36.828 C-0.264,35.288 -0.528,32.604 0.968,30.778 L24.42,1.54 C25.256,0.506 26.532,-0.088 27.874,-0.088 L86.526,-0.088 C88.946,-0.088 90.926,1.892 90.926,4.312 C90.926,6.666 88.946,8.624 86.526,8.624 L29.986,8.624 L10.494,32.824 L89.408,100.1 C91.234,101.684 91.454,104.434 89.848,106.26 C89.012,107.272 87.78,107.8 86.548,107.8" id="Shape" fill="#C18E1D" fill-rule="nonzero" mask="url(#mask-2)"></path>
                </g>
                <g id="Group" transform="translate(82.132600, 35.200000)">
                    <g id="Clipped">
                        <mask id="mask-4" fill="white">
                            <use xlink:href="#path-3"></use>
                        </mask>
                        <g id="c"></g>
                        <path d="M5.874,107.8 C4.62,107.8 3.388,107.272 2.53,106.26 C0.946,104.434 1.166,101.684 2.97,100.1 L81.906,32.934 L62.414,8.734 L5.874,8.734 C3.454,8.734 1.474,6.754 1.474,4.378 C1.474,1.958 3.454,-0.022 5.874,-0.022 L64.526,-0.022 C65.846,-0.022 67.166,0.418 67.958,1.518 L91.3,30.8 C92.796,32.604 92.532,35.288 90.728,36.828 L8.712,106.744 C7.832,107.448 6.864,107.8 5.852,107.8" id="Shape" fill="#C18E1D" fill-rule="nonzero" mask="url(#mask-4)"></path>
                    </g>
                </g>
                <path d="M36.256,43.934 L29.986,43.934 L27.698,46.794 L39.138,65.802 L42.658,65.802 C42.878,65.142 43.538,64.262 44.198,63.822 L46.838,62.062 L36.08,44 M54.78,74.58 L44.44,74.58 L73.26,121.726 L85.756,132.286 L87.956,128.766 L54.956,74.58" id="Shape" fill="#EFE3C6" fill-rule="nonzero"></path>
                <path d="M29.326,36.652 C28.556,36.652 27.786,36.872 27.06,37.312 C24.97,38.544 24.31,41.228 25.564,43.296 L27.698,46.772 L29.898,43.912 L36.058,43.912 L33,38.764 C32.274,37.4 30.8,36.652 29.304,36.652 M73.414,121.704 L83.6,138.424 C83.6,138.204 83.644,138.072 83.666,137.896 C83.49,136.906 83.666,135.85 84.238,134.904 L85.778,132.264 L73.238,121.704" id="Shape" fill="#C18E1D" fill-rule="nonzero"></path>
                <path d="M83.666,137.896 C83.666,138.072 83.622,138.226 83.6,138.402 L84.194,139.502 C83.93,139.062 83.754,138.622 83.666,138.182 M91.806,139.722 L91.762,139.722 C91.542,140.162 91.322,140.602 90.882,140.822 C91.322,140.602 91.762,140.162 91.982,139.722 M91.102,140.822 L91.322,140.822 M91.212,141.042 C91.212,141.042 91.212,141.262 91.168,141.262 C91.168,141.262 91.278,141.262 91.3,141.218 M91.3,141.328 L91.212,141.328 M91.058,141.416 C90.31,141.922 89.43,142.186 88.55,142.186 C89.342,142.186 90.09,141.966 90.838,141.526 L91.058,141.438" id="Shape" fill="#C18E1D" fill-rule="nonzero"></path>
                <path d="M144.54,43.934 L139.744,43.934 L127.644,63.8 L130.504,65.78 L136.708,65.78 L147.664,47.806 L144.584,43.934 L144.54,43.934 Z M131.34,74.514 L121.088,74.514 L88,128.766 L89.672,131.472 L104.192,119.152 L131.34,74.492 L131.34,74.514 Z" id="Shape" fill="#EFE3C6" fill-rule="nonzero"></path>
                <path d="M146.674,36.652 C145.178,36.652 143.726,37.4 142.934,38.764 L139.7,43.934 L144.54,43.934 L147.62,47.806 L150.392,43.296 C151.646,41.228 150.986,38.544 148.896,37.29 C148.192,36.85 147.4,36.63 146.63,36.63 M104.126,119.13 L89.606,131.45 L91.718,134.904 C92.598,136.334 92.378,138.072 91.718,139.414 L104.038,119.108 M84.018,139.348 C84.238,140.008 84.898,140.514 85.558,140.888 C86.218,141.328 86.878,141.548 87.758,141.548 C86.218,141.548 84.678,140.8 84.018,139.436 L83.798,139.37" id="Shape" fill="#C18E1D" fill-rule="nonzero"></path>
                <polyline id="Shape" fill="#E4CD9C" fill-rule="nonzero" points="88 128.744 85.844 132.264 87.274 133.496 89.65 131.45"></polyline>
                <path d="M85.844,132.286 L84.238,134.926 C83.578,135.85 83.358,136.906 83.578,137.896 C83.578,136.928 84.238,136.004 84.898,135.322 L86.878,133.562 L85.338,132.462" id="Shape" fill="#C18E1D" fill-rule="nonzero"></path>
                <path d="M89.672,131.45 L87.252,133.496 L85.14,135.3 C84.326,136.004 83.82,136.928 83.666,137.896 C83.754,138.424 83.93,138.908 84.194,139.37 L84.238,139.436 C84.898,140.8 86.438,141.548 87.978,141.548 C88.858,141.548 89.738,141.284 90.398,140.778 L90.398,140.558 C90.618,140.118 91.058,139.678 91.278,139.238 C92.026,137.918 92.158,136.158 91.278,134.618 L89.122,131.098 M163.702,74.118 L8.8,74.118 C6.38,74.118 4.4,72.138 4.4,69.718 C4.4,67.298 6.38,65.318 8.8,65.318 L164.274,65.318 C166.694,65.318 168.674,67.298 168.674,69.718 C168.674,72.138 166.694,74.118 164.274,74.118" id="Shape" fill="#C18E1D" fill-rule="nonzero"></path>
                <polyline id="Shape" fill="#EFE3C6" fill-rule="nonzero" points="84.7 43.934 73.106 43.934 47.146 61.754 49.566 65.802 56.782 65.802 86.702 45.342 85.602 44.682 84.942 44.022"></polyline>
                <path d="M84.7,36.674 C83.974,36.718 83.226,36.982 82.566,37.444 L73.106,43.934 L84.722,43.934 C83.842,42.944 83.622,41.602 83.842,40.304 C83.622,40.084 83.622,39.82 83.622,39.6 C83.622,38.456 84.062,37.444 84.722,36.674" id="Shape" fill="#C18E1D" fill-rule="nonzero"></path>
                <path d="M85.052,36.652 L84.722,36.652 C84.062,37.444 83.622,38.456 83.622,39.578 C83.622,39.798 83.622,40.018 83.842,40.238 C84.062,39.578 84.282,38.918 84.722,38.258 C85.382,37.378 86.042,36.938 86.922,36.718 C86.482,36.498 86.042,36.498 85.602,36.498" id="Shape" fill="#C18E1D" fill-rule="nonzero"></path>
                <path d="M47.146,61.776 L44.44,63.646 C43.648,64.196 43.076,64.966 42.79,65.802 L49.61,65.802 L47.146,61.842" id="Shape" fill="#E4CD9C" fill-rule="nonzero"></path>
                <path d="M56.76,65.78 L42.79,65.78 C42.35,67.1 42.504,68.53 43.34,69.74 C44.176,70.95 45.54,71.61 46.948,71.61 C47.828,71.61 48.664,71.39 49.434,70.84 L56.782,65.78" id="Shape" fill="#C18E1D" fill-rule="nonzero"></path>
                <path d="M99.66,43.934 L88.352,43.934 C88.132,44.198 87.868,44.418 87.56,44.594 L86.526,45.342 L115.346,65.802 L126.412,65.802 L127.644,63.822 L99.704,44.022" id="Shape" fill="#EFE3C6" fill-rule="nonzero"></path>
                <path d="M88,36.652 C87.494,36.652 87.01,36.74 86.526,36.916 C87.406,37.202 88.132,37.752 88.682,38.544 C90.002,40.238 89.782,42.46 88.462,43.934 L99.902,43.934 L90.662,37.466 C89.782,36.916 88.902,36.652 88.022,36.652" id="Shape" fill="#C18E1D" fill-rule="nonzero"></path>
                <polyline id="Shape" fill="#E4CD9C" fill-rule="nonzero" points="127.644 63.8 126.412 65.78 130.482 65.78"></polyline>
                <path d="M130.46,65.78 L115.346,65.78 L126.5,73.7 C127.292,74.272 128.172,74.536 129.074,74.536 C130.438,74.536 131.78,73.876 132.638,72.71 C133.958,70.73 133.518,68.002 131.538,66.594 L130.438,65.802" id="Shape" fill="#C18E1D" fill-rule="nonzero"></path>
                <path d="M87.274,43.89 L86.526,43.934 L84.722,43.934 C84.942,44.154 85.162,44.374 85.602,44.594 L86.702,45.342 L87.802,44.682 L88.682,44.022 L87.582,44.022" id="Shape" fill="#E4CD9C" fill-rule="nonzero"></path>
                <path d="M83.666,40.304 C83.446,41.624 83.82,42.944 84.722,43.934 L86.702,43.934 C86.922,43.934 87.362,43.934 87.582,43.89 C85.822,43.582 84.282,42.13 84.062,40.304" id="Shape" fill="#C18E1D" fill-rule="nonzero"></path>
                <path d="M86.526,36.916 C85.712,37.202 84.986,37.73 84.414,38.456 C84.018,39.05 83.754,39.666 83.666,40.304 C83.974,42.13 85.426,43.604 87.274,43.89 L88,43.934 L88.352,43.934 C89.672,42.46 89.892,40.238 88.682,38.544 C88.242,37.752 87.582,37.224 86.702,36.916" id="Shape" fill="#C18E1D" fill-rule="nonzero"></path>
            </g>
        </g>
    </g>
</svg>