<?xml version="1.0" encoding="UTF-8"?>
<svg width="192px" height="192px" viewBox="0 0 192 192" version="1.1" xmlns="http://www.w3.org/2000/svg" xmlns:xlink="http://www.w3.org/1999/xlink">
    <!-- Generator: Sketch 46.2 (44496) - http://www.bohemiancoding.com/sketch -->
    <title>ic_Office_Business</title>
    <desc>Created with Sketch.</desc>
    <defs>
        <polygon id="path-1" points="0 0 0 170.5 155.43 170.5 155.43 0"></polygon>
        <polygon id="path-3" points="1.892 0 144.804 0 144.804 102.828 1.892 102.828"></polygon>
    </defs>
    <g id="Page-1" stroke="none" stroke-width="1" fill="none" fill-rule="evenodd">
        <g id="ic_Office_Business">
            <g id="Office-_-Business" transform="translate(8.000000, 8.000000)">
                <polygon id="Shape" points="0 0 176 0 176 176 0 176"></polygon>
                <g id="Group" transform="translate(8.800000, 3.344000)">
                    <g id="Clipped">
                        <mask id="mask-2" fill="white">
                            <use xlink:href="#path-1"></use>
                        </mask>
                        <g id="a"></g>
                        <path d="M114.18,0 C103.18,0 92.84,4.29 85.008,12.144 L3.344,94.314 C1.408,96.294 1.408,99.418 3.344,101.354 C4.312,102.322 5.588,102.828 6.864,102.828 C8.118,102.828 9.372,102.322 10.34,101.354 L92.026,19.184 C97.966,13.244 105.82,9.944 114.18,9.944 C122.54,9.944 130.46,13.244 136.356,19.184 C142.296,25.124 145.53,33.044 145.53,41.492 C145.53,49.918 142.274,57.838 136.356,63.8 L46.508,154.22 C42.46,158.268 37.048,160.512 31.328,160.512 C25.608,160.512 20.24,158.268 16.148,154.198 C7.788,145.618 7.788,131.978 16.148,123.618 L86.196,53.218 C88.396,51.018 91.366,49.918 94.336,49.918 C97.35,49.918 100.342,51.018 102.52,53.218 C104.72,55.418 105.908,58.278 105.908,61.358 C105.908,64.438 104.698,67.298 102.52,69.498 L44.176,128.26 C42.24,130.196 42.24,133.32 44.176,135.3 C45.144,136.268 46.42,136.752 47.696,136.752 C48.95,136.752 50.226,136.312 51.216,135.3 L109.516,76.626 C113.564,72.534 115.808,67.122 115.808,61.358 C115.808,55.594 113.564,50.138 109.516,45.958 C105.468,41.844 100.056,39.578 94.336,39.578 C88.616,39.578 83.226,41.844 79.156,45.958 L9.24,116.6 C3.234,122.606 0,130.526 0,138.952 C0,147.378 3.256,155.32 9.174,161.26 C15.114,167.2 22.968,170.5 31.35,170.5 C39.71,170.5 47.586,167.2 53.526,161.26 L143.352,70.84 C151.14,63.008 155.452,52.58 155.452,41.492 C155.452,30.404 151.14,19.976 143.352,12.144 C135.564,4.29 125.18,0 114.18,0" id="Shape" fill="#C6DEF3" fill-rule="nonzero" mask="url(#mask-2)"></path>
                    </g>
                </g>
                <g id="Group" transform="translate(8.800000, 3.344000)">
                    <g id="Clipped">
                        <mask id="mask-4" fill="white">
                            <use xlink:href="#path-3"></use>
                        </mask>
                        <g id="c"></g>
                        <path d="M6.82,102.828 C5.588,102.828 4.312,102.344 3.344,101.354 C1.408,99.418 1.408,96.25 3.344,94.314 L85.03,12.1 C92.84,4.312 103.18,0 114.18,0 C125.18,0 135.564,4.29 143.352,12.1 C145.288,14.08 145.288,17.226 143.352,19.184 C141.416,21.12 138.292,21.12 136.356,19.184 C130.416,13.244 122.562,9.944 114.18,9.944 C105.82,9.944 97.944,13.244 92.026,19.184 L10.34,101.354 C9.394,102.344 8.14,102.828 6.82,102.828" id="Shape" fill="#1D7BCE" fill-rule="nonzero" mask="url(#mask-4)"></path>
                    </g>
                </g>
                <path d="M56.474,140.206 C55.22,140.206 53.944,139.722 52.954,138.754 C51.062,136.818 51.062,133.65 52.954,131.714 L111.32,73.04 C113.52,70.84 114.708,67.892 114.708,64.79 C114.708,61.71 113.498,58.762 111.32,56.562 C106.964,52.382 99.352,52.382 94.996,56.562 L24.992,127.16 C23.056,129.14 19.932,129.14 17.952,127.16 C16.038,125.224 16.038,122.1 17.952,120.12 L88,49.5 C92.048,45.452 97.416,43.208 103.18,43.208 C108.9,43.208 114.268,45.452 118.316,49.522 C122.364,53.702 124.608,59.202 124.608,64.922 C124.608,70.642 122.364,76.142 118.316,80.278 L60.016,138.82 C59.026,139.788 57.75,140.272 56.496,140.272" id="Shape" fill="#1D7BCE" fill-rule="nonzero"></path>
            </g>
        </g>
    </g>
</svg>