<?xml version="1.0" encoding="UTF-8"?>
<svg width="192px" height="192px" viewBox="0 0 192 192" version="1.1" xmlns="http://www.w3.org/2000/svg" xmlns:xlink="http://www.w3.org/1999/xlink">
    <!-- Generator: Sketch 46.2 (44496) - http://www.bohemiancoding.com/sketch -->
    <title>ic_Parents_Kids</title>
    <desc>Created with Sketch.</desc>
    <defs>
        <polygon id="path-1" points="37.95 36.41 1.54 36.41 1.54 0 37.95 0"></polygon>
        <polygon id="path-3" points="37.95 36.41 1.54 36.41 1.54 0 37.95 0"></polygon>
    </defs>
    <g id="Page-1" stroke="none" stroke-width="1" fill="none" fill-rule="evenodd">
        <g id="ic_Parents_Kids">
            <g id="Parents-_-Kids" transform="translate(8.000000, 8.000000)">
                <polygon id="Shape" points="0 0 176 0 176 176 0 176"></polygon>
                <path d="M41.36,59.18 C39.886,59.18 38.456,58.454 37.576,57.156 L19.36,29.832 C17.952,27.742 18.524,24.926 20.614,23.518 C22.704,21.978 25.542,22.638 26.928,24.618 L45.144,51.898 C46.552,53.878 45.98,56.738 43.89,58.278 C43.12,58.718 42.24,58.938 41.36,58.938" id="Shape" fill="#F1162C" fill-rule="nonzero"></path>
                <path d="M26.774,60.72 C23.1,60.72 20.108,63.668 20.108,67.364 L20.108,77.44 C20.108,98.34 37.114,115.28 58.014,115.28 L102.234,115.28 C130.614,115.28 153.714,92.224 153.714,63.866 L153.714,60.566 C153.714,32.186 130.614,9.086 102.234,9.086 L79.86,9.086 C78.386,9.086 77.066,9.79 76.208,10.978 C75.372,12.078 75.174,13.618 75.658,14.938 L85.118,41.558 C86.658,45.958 85.778,50.798 83.138,54.538 C80.498,58.278 76.098,60.478 71.478,60.478 L26.84,60.478 M102.3,124.058 L58.08,124.058 C32.076,124.3 11,103.18 11,77.44 L11,67.364 C11,58.652 18.084,51.59 26.774,51.59 L71.654,51.59 C73.37,51.59 74.888,50.798 75.878,49.39 C76.758,48.026 76.978,46.31 76.318,44.726 L67.1,18.04 C65.648,13.926 66.286,9.306 68.816,5.72 C71.368,2.134 75.504,0 79.904,0 L102.212,0 C135.652,0 162.8,27.17 162.8,60.544 L162.8,63.844 C162.8,97.284 135.63,124.41 102.212,124.41" id="Shape" fill="#1D7BCE" fill-rule="nonzero"></path>
                <g id="Group" transform="translate(41.360000, 138.067600)">
                    <g id="Clipped">
                        <mask id="mask-2" fill="white">
                            <use xlink:href="#path-1"></use>
                        </mask>
                        <g id="a"></g>
                        <path d="M19.734,9.108 C14.74,9.108 10.626,13.2 10.626,18.216 C10.626,23.232 14.718,27.302 19.734,27.302 C24.75,27.302 28.842,23.342 28.842,18.282 C28.842,13.222 24.86,9.24 19.8,9.24 M19.8,36.52 C9.68,36.52 1.54,28.38 1.54,18.392 C1.54,8.14 9.68,0 19.734,0 C29.788,0 37.95,8.14 37.95,18.216 C37.95,28.248 29.81,36.41 19.734,36.41" id="Shape" fill="#1D7BCE" fill-rule="nonzero" mask="url(#mask-2)"></path>
                    </g>
                </g>
                <g id="Group" transform="translate(92.972000, 138.067600)">
                    <g id="Clipped">
                        <mask id="mask-4" fill="white">
                            <use xlink:href="#path-3"></use>
                        </mask>
                        <g id="c"></g>
                        <path d="M19.734,9.108 C14.74,9.108 10.626,13.2 10.626,18.216 C10.626,23.232 14.718,27.302 19.734,27.302 C24.75,27.302 28.842,23.342 28.842,18.282 C28.842,13.222 24.86,9.24 19.8,9.24 M19.8,36.52 C9.68,36.52 1.54,28.38 1.54,18.392 C1.54,8.14 9.68,0 19.734,0 C29.788,0 37.95,8.14 37.95,18.216 C37.95,28.248 29.81,36.41 19.734,36.41" id="Shape" fill="#1D7BCE" fill-rule="nonzero" mask="url(#mask-4)"></path>
                    </g>
                </g>
                <path d="M86.548,124.41 L73.48,124.41 L57.42,138.446 C58.63,138.226 59.84,138.072 61.094,138.072 C64.086,138.072 66.902,138.798 69.41,140.052 L86.856,124.806 L86.9,124.806 L86.724,124.586 L86.548,124.41" id="Shape" fill="#C6DEF3" fill-rule="nonzero"></path>
                <path d="M83.864,116.82 C82.808,116.82 81.73,117.194 80.872,117.964 L73.48,124.41 L86.548,124.41 C84.942,122.65 85.008,119.878 86.724,118.162 L86.9,118.162 C86.02,117.502 84.964,117.062 83.864,117.062 M61.094,138.182 C59.84,138.182 58.63,138.402 57.442,138.622 L56.782,139.502 C55.022,141.152 54.802,144.034 56.342,145.882 C57.222,146.916 58.542,147.422 59.862,147.422 C60.962,147.422 62.062,147.07 62.942,146.322 L69.762,140.382 C67.342,139.062 64.482,138.336 61.534,138.336" id="Shape" fill="#1D7BCE" fill-rule="nonzero"></path>
                <path d="M99.44,124.41 L87.252,124.41 L86.9,124.784 L103.004,140.844 C105.82,139.084 109.164,138.072 112.684,138.072 L113.08,138.072 L99.44,124.432" id="Shape" fill="#C6DEF3" fill-rule="nonzero"></path>
                <path d="M89.936,116.82 C88.836,116.82 87.736,117.216 86.9,117.986 L87.296,118.382 C88.836,120.142 88.77,122.782 87.252,124.542 L99.418,124.542 L93.038,118.382 C92.158,117.502 90.838,117.062 89.738,117.062 M112.618,138.182 C109.098,138.182 105.578,139.282 102.938,141.042 L107.778,146.102 C108.658,146.982 109.758,147.422 110.858,147.422 C112.024,147.422 113.19,146.982 114.07,146.102 C115.83,144.342 115.83,141.482 114.07,139.722 L112.75,138.402 L112.376,138.402" id="Shape" fill="#1D7BCE" fill-rule="nonzero"></path>
                <polyline id="Shape" fill="#9CC5E9" fill-rule="nonzero" points="87.252 124.41 86.548 124.41 86.724 124.63 86.9 124.784 87.252 124.41"></polyline>
                <path d="M86.9,117.986 L86.724,118.162 C85.008,119.922 84.964,122.782 86.548,124.542 L87.252,124.542 C88.792,123.002 88.792,120.362 87.296,118.602 L86.9,118.382" id="Shape" fill="#1D7BCE" fill-rule="nonzero"></path>
            </g>
        </g>
    </g>
</svg>