<?xml version="1.0" encoding="UTF-8"?>
<svg width="192px" height="192px" viewBox="0 0 192 192" version="1.1" xmlns="http://www.w3.org/2000/svg" xmlns:xlink="http://www.w3.org/1999/xlink">
    <!-- Generator: Sketch 46.2 (44496) - http://www.bohemiancoding.com/sketch -->
    <title>ic_pets</title>
    <desc>Created with Sketch.</desc>
    <defs>
        <path d="M2.112,38.17 C2.156,33.66 3.872,29.304 6.952,25.96 C8.58,23.804 10.032,21.516 11.264,19.14 C12.32,17.16 13.42,15.224 14.696,13.266 L15.136,12.518 C16.94,8.998 19.316,6.138 22.088,3.498 C25.168,1.298 28.38,0.198 31.548,0.198 C36.3,0.198 40.876,2.618 44.528,7.238 C47.608,11.858 51.568,16.038 56.188,19.118 C59.312,20.658 63.228,24.618 62.788,33.638 C63.074,37.818 61.314,41.998 58.036,44.858 C54.516,47.278 49.962,48.158 45.804,46.838 C43.384,46.178 41.052,45.298 38.808,44.198 C35.684,42.878 32.076,43.318 29.48,45.518 C26.268,47.718 22.792,49.698 19.14,51.018 C17.908,51.238 16.632,51.458 15.356,51.458 L14.916,51.458 C12.54,51.458 10.23,50.798 8.25,49.478 C4.73,47.96 2.464,44 2.2,39.6 C2.134,39.226 2.112,38.808 2.112,38.39 L2.112,37.95 L2.112,38.17 Z M12.958,43.45 C13.398,43.89 14.278,44.11 14.938,44.11 C15.378,44.11 15.818,44 16.258,43.824 C19.118,42.636 21.978,41.074 24.618,39.204 C29.678,35.332 36.498,34.584 42.218,37.224 C43.978,38.038 45.738,38.676 47.498,39.138 C49.038,39.578 51.018,39.358 52.558,38.478 C53.658,37.158 54.318,35.398 54.098,33.858 L54.098,33.638 C54.318,29.898 53.438,27.478 51.678,26.598 C45.958,22.858 41.118,18.018 37.378,12.298 C35.838,9.878 33.638,8.558 30.998,8.118 C29.458,8.118 27.918,8.778 26.598,9.658 C24.618,11.638 22.858,13.838 21.538,16.258 L21.098,17.358 C19.778,19.118 18.898,20.878 17.798,22.638 C16.258,25.498 14.498,28.138 12.518,30.778 C10.538,32.758 9.658,35.618 9.878,38.478 C9.878,40.018 10.758,41.778 12.298,42.658 L12.958,43.45 Z" id="path-1"></path>
        <path d="M1.43,15.972 C1.43,8.14 6.556,1.98 13.09,1.98 C19.69,1.98 24.816,8.14 24.816,15.972 C24.816,23.804 19.668,29.986 13.112,29.986 C6.556,29.986 1.452,23.826 1.452,15.972 L1.43,15.972 Z M9.834,15.752 C9.834,18.942 11.594,21.384 13.134,21.384 C14.674,21.384 16.39,18.964 16.39,15.774 C16.39,12.606 14.63,10.098 13.09,10.098 C11.55,10.098 9.834,12.54 9.834,15.62 L9.834,15.752 Z" id="path-3"></path>
        <path d="M11.44,0.44 L11.836,0.44 C18.084,0.44 23.232,7.106 23.65,15.906 C24.09,24.926 19.426,32.186 13.002,32.494 L12.782,32.494 C6.6,32.494 1.32,25.806 1.1,17.028 C0.396,8.008 5.016,0.748 11.44,0.44 Z M11.726,8.844 C10.89,8.888 8.932,11.66 8.932,16.654 L9.152,16.61 C9.438,21.626 11.858,24.09 12.606,24.09 C13.354,24.09 15.4,21.34 15.4,16.324 C15.4,11.352 12.584,8.8 11.726,8.844 Z" id="path-5"></path>
        <path d="M4.51,6.666 C6.116,3.19 9.504,0.88 13.31,0.66 C17.16,0.946 20.526,3.3 22.066,6.82 C23.826,10.384 24.706,14.3 24.596,18.26 C24.376,28.226 19.426,35.684 12.936,35.684 C6.38,35.684 1.54,28.028 1.716,18.04 C1.716,14.08 2.662,10.164 4.51,6.666 Z M12.98,27.28 L13.024,27.28 C13.816,27.28 16.016,23.914 16.06,18.26 C16.126,12.408 13.816,9.306 13.09,9.108 C12.364,8.888 10.01,12.32 10.01,18.172 C10.01,24.002 12.21,27.104 12.958,27.302 L12.98,27.28 Z" id="path-7"></path>
        <path d="M0.308,18.04 C0.308,8.668 5.368,1.628 11.88,1.628 C18.392,1.628 23.254,8.888 23.1,18.282 C22.88,27.742 18.172,35.002 11.66,35.002 C7.876,34.782 4.51,32.582 2.86,29.062 C1.1,25.74 0.22,21.78 0.33,18.04 L0.308,18.04 Z M10.208,24.86 C10.868,26.026 11.462,26.4 11.66,26.4 C12.43,26.4 14.74,23.628 14.806,18.326 C14.85,13.046 12.606,10.186 11.836,10.186 C11.066,10.186 8.756,12.98 8.69,18.282 C8.602,20.702 9.13,22.902 10.186,24.882 L10.208,24.86 Z" id="path-9"></path>
        <path d="M60.72,39.6 C60.72,40.92 60.544,42.196 60.28,43.494 C59.312,47.762 56.474,51.37 52.536,53.284 C50.952,54.054 49.236,54.472 47.432,54.494 C45.386,54.494 43.384,53.966 41.58,52.998 C38.148,51.018 34.98,48.598 32.12,45.738 C29.876,43.098 26.312,41.998 22.968,42.878 C20.68,43.538 18.304,43.978 15.928,44.198 C11.572,44.858 7.172,43.318 4.048,40.238 C1.32,37.18 0.308,32.78 1.32,28.6 C2.2,20.02 6.6,16.654 10.164,15.4 C15.136,12.936 19.624,9.526 23.364,5.39 C26.994,1.87 31.064,0.11 34.98,0.022 L35.464,0.022 C39.248,0.022 42.9,1.782 46.024,4.862 C48.444,7.942 50.314,11.242 51.612,14.982 L52.008,16.082 C52.932,18.062 53.702,20.262 54.428,22.242 C55.308,24.882 56.342,27.302 57.618,29.722 C59.598,32.802 60.478,36.322 60.698,39.842 L60.698,40.062 L60.72,39.6 Z M10.274,34.804 C11.374,35.684 12.76,36.168 14.168,36.168 C14.52,36.168 14.894,36.124 15.268,36.058 C17.094,35.838 18.898,35.398 20.658,34.958 C22.198,34.518 23.738,34.298 25.278,34.298 C29.898,34.298 34.298,36.278 37.598,39.578 C39.798,41.778 42.438,43.758 45.298,45.518 C46.398,45.958 47.498,45.958 48.598,45.518 C50.138,44.638 51.238,43.318 51.458,41.558 C51.898,38.698 51.458,35.838 49.698,33.638 C48.158,30.778 46.838,27.698 45.738,24.618 C44.858,22.638 44.198,20.658 43.538,18.898 L42.878,17.798 C41.998,15.158 40.678,12.518 38.918,10.318 C37.818,9.218 34.078,5.258 28.138,10.978 C23.518,15.818 18.238,19.998 12.078,22.638 L11.858,22.638 C10.098,23.298 8.778,25.498 8.558,29.238 C8.118,30.998 8.338,32.758 9.438,34.298 L10.274,34.804 Z" id="path-11"></path>
        <path d="M0.814,14.19 C2.486,6.226 7.854,0.66 13.508,0.66 C14.102,0.66 14.696,0.704 15.268,0.814 C18.854,1.694 21.648,4.444 22.704,7.964 C23.848,11.484 24.024,15.224 23.232,18.876 C21.472,26.884 16.192,32.472 10.516,32.472 C9.922,32.472 9.306,32.384 8.756,32.252 C5.192,31.372 2.376,28.644 1.342,25.124 C0.22,21.604 0,17.82 0.88,14.19 L0.814,14.19 Z M9.24,22.33 C9.68,23.496 10.208,24.002 10.45,24.046 C11.22,24.046 13.97,22.066 14.982,17.182 C15.642,15.202 15.422,13.002 14.982,11.022 C14.542,9.922 14.102,9.482 13.882,9.262 L13.662,9.262 C12.782,9.262 10.142,11.462 9.262,16.302 C8.822,18.502 8.822,20.702 9.482,22.682 L9.24,22.33 Z" id="path-13"></path>
        <path d="M0.814,14.19 C2.486,6.226 7.854,0.66 13.508,0.66 C14.102,0.66 14.696,0.704 15.268,0.814 C18.854,1.694 21.648,4.444 22.704,7.964 C23.848,11.484 24.024,15.224 23.232,18.876 C21.472,26.884 16.192,32.472 10.516,32.472 C9.922,32.472 9.306,32.384 8.756,32.252 C5.192,31.372 2.376,28.644 1.342,25.124 C0.22,21.604 0,17.82 0.88,14.19 L0.814,14.19 Z M9.24,22.33 C9.68,23.496 10.208,24.002 10.45,24.046 C11.22,24.046 13.97,22.066 14.982,17.182 C15.642,15.202 15.422,13.002 14.982,11.022 C14.542,9.922 14.102,9.482 13.882,9.262 L13.662,9.262 C12.782,9.262 10.142,11.462 9.262,16.302 C8.822,18.502 8.822,20.702 9.482,22.682 L9.24,22.33 Z" id="path-15"></path>
        <path d="M4.84,5.06 C6.6,1.98 9.834,0.22 13.134,0.22 C14.718,0.22 16.302,0.66 17.754,1.452 C20.108,2.772 21.78,5.038 22.374,7.656 C23.628,11.396 23.958,15.422 23.32,19.316 C22.77,23.276 21.296,27.016 19.008,30.25 C17.094,33.066 13.992,34.826 10.604,34.98 C10.164,35.024 9.79,35.024 9.394,34.98 C5.61,34.21 2.574,31.372 1.54,27.676 C0.264,23.936 -0.066,19.91 0.594,16.016 C1.1,12.056 2.574,8.316 4.862,5.082 L4.84,5.06 Z M8.888,17.16 C8.008,22.88 9.834,26.224 10.56,26.576 C11.374,26.576 14.08,23.782 14.916,18.172 C15.752,12.562 13.816,8.866 13.266,8.58 L13.2,8.58 C12.496,8.58 9.724,11.396 8.888,17.16 Z" id="path-17"></path>
        <path d="M4.84,5.06 C6.6,1.98 9.834,0.22 13.134,0.22 C14.718,0.22 16.302,0.66 17.754,1.452 C20.108,2.772 21.78,5.038 22.374,7.656 C23.628,11.396 23.958,15.422 23.32,19.316 C22.77,23.276 21.296,27.016 19.008,30.25 C17.094,33.066 13.992,34.826 10.604,34.98 C10.164,35.024 9.79,35.024 9.394,34.98 C5.61,34.21 2.574,31.372 1.54,27.676 C0.264,23.936 -0.066,19.91 0.594,16.016 C1.1,12.056 2.574,8.316 4.862,5.082 L4.84,5.06 Z M8.888,17.16 C8.008,22.88 9.834,26.224 10.56,26.576 C11.374,26.576 14.08,23.782 14.916,18.172 C15.752,12.562 13.816,8.866 13.266,8.58 L13.2,8.58 C12.496,8.58 9.724,11.396 8.888,17.16 Z" id="path-19"></path>
        <path d="M6.468,4.62 C8.294,1.76 11.44,0.22 14.608,0.22 C16.368,0.22 18.128,0.66 19.712,1.694 C21.692,2.97 23.166,4.928 23.804,7.194 C26.378,14.454 25.19,22.484 20.636,28.666 C18.722,31.306 15.73,32.934 12.496,33.11 L11.264,33.11 C4.796,32.054 0.88,24.31 2.332,14.96 C2.772,11.22 4.224,7.7 6.468,4.62 Z M10.714,16.192 C9.966,21.384 11.77,24.596 12.54,24.596 C13.244,24.376 13.86,23.936 14.234,23.32 C16.874,19.514 17.6,14.696 16.17,10.296 C15.62,8.932 15.026,8.58 14.916,8.536 L14.916,8.624 C14.652,8.624 13.992,8.932 13.2,9.944 C11.88,11.77 11,13.904 10.714,16.192 Z" id="path-21"></path>
        <path d="M6.468,4.62 C8.294,1.76 11.44,0.22 14.608,0.22 C16.368,0.22 18.128,0.66 19.712,1.694 C21.692,2.97 23.166,4.928 23.804,7.194 C26.378,14.454 25.19,22.484 20.636,28.666 C18.722,31.306 15.73,32.934 12.496,33.11 L11.264,33.11 C4.796,32.054 0.88,24.31 2.332,14.96 C2.772,11.22 4.224,7.7 6.468,4.62 Z M10.714,16.192 C9.966,21.384 11.77,24.596 12.54,24.596 C13.244,24.376 13.86,23.936 14.234,23.32 C16.874,19.514 17.6,14.696 16.17,10.296 C15.62,8.932 15.026,8.58 14.916,8.536 L14.916,8.624 C14.652,8.624 13.992,8.932 13.2,9.944 C11.88,11.77 11,13.904 10.714,16.192 Z" id="path-23"></path>
    </defs>
    <g id="Page-1" stroke="none" stroke-width="1" fill="none" fill-rule="evenodd">
        <g id="ic_pets">
            <g id="Pets" transform="translate(8.000000, 8.000000)">
                <polygon id="Shape" points="0 0 176 0 176 176 0 176"></polygon>
                <g id="Group" transform="translate(15.760800, 104.953200)">
                    <g id="Clipped">
                        <mask id="mask-2" fill="white">
                            <use xlink:href="#path-1"></use>
                        </mask>
                        <g id="a"></g>
                        <path d="M31.57,0.264 C28.38,0.264 25.146,1.364 22.11,3.63 C19.25,6.16 16.94,9.174 15.136,12.54 L14.652,13.266 C13.42,15.246 12.32,17.16 11.264,19.14 C10.032,21.516 8.58,23.804 6.974,25.96 C3.52,29.7 1.76,34.65 2.2,39.71 C2.464,44.022 4.708,47.982 8.25,50.49 C10.23,51.766 12.54,52.47 14.894,52.47 L15.334,52.47 C16.654,52.47 17.908,52.25 19.14,51.876 C22.792,50.424 26.268,48.532 29.48,46.266 C31.13,44.858 33.22,44.11 35.31,44.11 C36.498,44.11 37.686,44.33 38.83,44.836 C41.03,45.936 43.384,46.75 45.804,47.344 C47.124,47.784 48.51,47.96 49.874,47.96 C52.778,47.96 55.638,47.08 58.014,45.276 C61.314,42.504 63.074,38.346 62.788,34.056 C63.228,25.102 59.312,21.142 56.188,19.492 C51.568,16.28 47.608,12.232 44.528,7.48 C40.854,2.706 36.3,0.264 31.548,0.264 M15.048,44.088 C14.3,44.088 13.574,43.868 12.936,43.428 C11.528,42.416 10.692,40.832 10.604,39.116 C10.384,36.256 11.396,33.396 13.398,31.372 C15.378,28.82 16.918,26.092 18.458,23.232 C19.558,21.384 20.438,19.646 21.538,17.864 L21.978,16.984 C23.298,14.52 24.838,12.276 26.818,10.318 C27.918,9.218 29.458,8.558 30.998,8.558 C33.638,8.778 35.838,10.318 37.158,12.518 C40.898,18.018 45.738,22.858 51.458,26.598 C53.218,27.478 53.878,29.898 53.878,33.638 L53.878,33.858 C53.878,35.398 53.438,37.158 52.338,38.478 C51.238,38.918 50.358,39.138 49.258,39.138 C48.598,39.138 47.938,38.918 47.278,38.698 C45.298,38.258 43.538,37.598 41.778,36.718 C39.578,35.618 36.938,35.178 34.518,35.178 C30.778,35.178 27.038,36.498 23.958,38.698 C21.318,40.458 18.458,41.998 15.598,43.318 C15.158,43.538 14.498,43.538 14.058,43.538" id="Shape" fill="#C6DEF3" fill-rule="nonzero" mask="url(#mask-2)"></path>
                    </g>
                </g>
                <g id="Group" transform="translate(0.000000, 99.699600)">
                    <g id="Clipped">
                        <mask id="mask-4" fill="white">
                            <use xlink:href="#path-3"></use>
                        </mask>
                        <g id="c"></g>
                        <polyline id="Shape" fill="#1D7BCE" fill-rule="nonzero" mask="url(#mask-4)" points="-13.486 44.88 39.71 44.88 39.71 -12.98 -13.486 -12.98"></polyline>
                    </g>
                </g>
                <g id="Group" transform="translate(15.760800, 73.431600)">
                    <g id="Clipped">
                        <mask id="mask-6" fill="white">
                            <use xlink:href="#path-5"></use>
                        </mask>
                        <g id="e"></g>
                        <polyline id="Shape" fill="#1D7BCE" fill-rule="nonzero" mask="url(#mask-6)" points="-14.168 47.41 38.588 47.41 38.588 -14.476 -14.168 -14.476"></polyline>
                    </g>
                </g>
                <g id="Group" transform="translate(39.402000, 65.551200)">
                    <g id="Clipped">
                        <mask id="mask-8" fill="white">
                            <use xlink:href="#path-7"></use>
                        </mask>
                        <g id="g"></g>
                        <polyline id="Shape" fill="#1D7BCE" fill-rule="nonzero" mask="url(#mask-8)" points="-13.2 50.6 39.512 50.6 39.512 -14.256 -13.2 -14.256"></polyline>
                    </g>
                </g>
                <g id="Group" transform="translate(62.618600, 83.938800)">
                    <g id="Clipped">
                        <mask id="mask-10" fill="white">
                            <use xlink:href="#path-9"></use>
                        </mask>
                        <g id="i"></g>
                        <polyline id="Shape" fill="#1D7BCE" fill-rule="nonzero" mask="url(#mask-10)" points="-14.608 49.72 37.972 49.72 37.972 -13.266 -14.608 -13.266"></polyline>
                    </g>
                </g>
                <g id="Group" transform="translate(94.567000, 59.870800)">
                    <g id="Clipped">
                        <mask id="mask-12" fill="white">
                            <use xlink:href="#path-11"></use>
                        </mask>
                        <g id="k"></g>
                        <path d="M35.2,0 C31.196,0 27.06,1.76 23.32,5.346 C19.646,9.46 15.18,12.892 10.186,15.356 C6.6,16.632 2.2,20.02 1.276,28.666 C0.286,32.846 1.32,37.202 4.07,40.458 C6.71,43.098 10.23,44.418 13.882,44.418 C14.762,44.418 15.422,44.418 16.082,44.198 C18.502,43.978 20.922,43.538 23.122,42.878 C24.002,42.658 24.662,42.438 25.542,42.438 C28.182,42.438 30.602,43.538 32.362,45.518 C35.2,48.4 38.5,50.82 41.8,52.8 C43.56,53.79 45.584,54.34 47.63,54.34 C49.39,54.34 51.15,53.9 52.69,53.13 C56.65,51.15 59.51,47.63 60.39,43.296 C61.49,38.456 60.61,33.396 57.75,29.282 C56.54,26.862 55.484,24.442 54.67,21.802 C53.9,19.822 53.13,17.622 52.25,15.642 L51.81,14.762 C50.49,11.242 48.62,7.722 46.2,4.862 C42.834,1.76 39.094,0 35.2,0 M14.212,36.146 C12.804,36.146 11.418,35.662 10.318,34.782 C9.218,33.462 8.998,31.482 9.438,29.942 C9.878,26.202 10.978,24.222 12.738,23.562 L13.2,23.562 C19.228,20.702 24.684,16.742 29.194,11.902 C31.57,9.702 33.594,8.822 35.244,8.822 C37.664,8.822 39.204,10.582 39.864,11.242 C41.58,13.662 42.9,16.082 43.824,18.722 L44.308,19.822 C45.122,21.582 45.848,23.562 46.508,25.542 C47.542,28.622 48.818,31.702 50.358,34.562 C51.898,36.762 52.558,39.842 51.898,42.482 C51.458,44.242 50.358,45.562 48.818,46.442 C48.158,46.662 47.718,46.882 47.058,46.882 C46.398,46.882 45.738,46.882 45.298,46.442 C42.438,44.902 39.798,42.922 37.598,40.502 C34.298,37.202 29.898,35.222 25.058,35.222 C23.518,35.222 21.758,35.442 20.218,35.882 C18.458,36.542 16.698,36.762 14.718,36.982 C14.278,37.202 13.838,37.202 13.618,37.202" id="Shape" fill="#DDEBCB" fill-rule="nonzero" mask="url(#mask-12)"></path>
                    </g>
                </g>
                <path d="M167.288,76.164 C166.782,79.398 164.648,81.532 163.152,81.29 C162.36,81.07 161.744,80.52 161.392,79.794 C160.732,78.364 160.512,76.714 160.776,75.174 C161.26,72.094 163.196,70.026 164.692,70.026 L164.912,70.026 C165.704,70.246 166.342,70.818 166.672,71.566 C167.376,72.974 167.552,74.602 167.288,76.186 M174.108,67.518 C172.568,64.218 169.664,62.018 166.232,61.358 C159.742,60.258 153.692,65.538 152.46,73.458 C151.8,76.978 152.372,80.498 154,83.578 C155.54,86.658 158.444,88.858 161.832,89.298 L163.416,89.298 C169.29,89.298 174.416,84.238 175.626,76.978 C176.198,73.458 175.67,70.158 174.086,67.078 M150.48,47.278 C151.448,42.438 154.066,40.238 154.924,40.238 L155.012,40.238 C155.276,40.238 155.804,40.678 156.222,41.998 C156.882,43.978 157.102,46.178 156.442,48.378 C155.562,53.218 152.702,55.198 152.042,55.198 C151.822,55.198 151.382,54.758 150.942,53.438 C150.282,51.238 150.282,49.038 150.722,47.058 M143,56.54 C144.034,60.06 146.85,62.788 150.392,63.69 C150.986,63.8 151.58,63.91 152.152,63.91 C157.872,63.91 163.152,58.3 164.912,50.27 C165.704,46.662 165.528,42.878 164.362,39.358 C163.482,35.838 160.622,32.978 157.102,32.098 C150.942,30.778 144.562,36.718 142.582,45.518 C141.922,49.258 142.142,52.998 143.242,56.518" id="Shape" fill="#79B02E" fill-rule="nonzero"></path>
                <g id="Group" transform="translate(141.424800, 31.400600)">
                    <g id="Clipped">
                        <mask id="mask-14" fill="white">
                            <use xlink:href="#path-13"></use>
                        </mask>
                        <g id="m"></g>
                        <polyline id="Shape" fill="#79B02E" fill-rule="nonzero" mask="url(#mask-14)" points="-1735.932 1486.804 1282.908 1486.804 1282.908 -344.784 -1735.932 -344.784"></polyline>
                    </g>
                </g>
                <g id="Group" transform="translate(141.424800, 31.400600)">
                    <g id="Clipped">
                        <mask id="mask-16" fill="white">
                            <use xlink:href="#path-15"></use>
                        </mask>
                        <g id="o"></g>
                        <polyline id="Shape" fill="#79B02E" fill-rule="nonzero" mask="url(#mask-16)" points="-14.608 47.388 38.632 47.388 38.632 -14.3 -14.608 -14.3"></polyline>
                    </g>
                </g>
                <path d="M127.094,37.62 C127.93,31.856 130.702,29.04 131.406,29.04 L131.472,29.04 C132.044,29.326 133.958,33 133.122,38.632 C132.462,44.242 129.602,47.058 128.942,47.058 C128.282,46.618 126.522,43.318 127.402,37.598 M128.062,55.418 L129.382,55.418 C132.902,55.198 135.982,53.438 137.742,50.578 C140.162,47.278 141.482,43.538 142.142,39.578 C142.802,35.618 142.582,31.658 141.262,27.918 C140.822,25.278 139.062,22.858 136.642,21.538 C132,19.14 126.28,20.68 123.86,25.3 C121.44,28.6 119.9,32.34 119.46,36.3 C118.8,40.04 119.108,44.22 120.34,47.96 C121.44,51.7 124.454,54.34 128.26,55.22" id="Shape" fill="#79B02E" fill-rule="nonzero"></path>
                <g id="Group" transform="translate(118.206000, 20.466600)">
                    <g id="Clipped">
                        <mask id="mask-18" fill="white">
                            <use xlink:href="#path-17"></use>
                        </mask>
                        <g id="q"></g>
                        <polyline id="Shape" fill="#79B02E" fill-rule="nonzero" mask="url(#mask-18)" points="-1712.7 1497.76 1306.14 1497.76 1306.14 -333.85 -1712.7 -333.85"></polyline>
                    </g>
                </g>
                <g id="Group" transform="translate(118.206000, 20.466600)">
                    <g id="Clipped">
                        <mask id="mask-20" fill="white">
                            <use xlink:href="#path-19"></use>
                        </mask>
                        <g id="s"></g>
                        <polyline id="Shape" fill="#79B02E" fill-rule="nonzero" mask="url(#mask-20)" points="-14.652 49.94 38.5 49.94 38.5 -14.696 -14.63 -14.696"></polyline>
                    </g>
                </g>
                <path d="M102.652,52.426 C102.938,50.16 103.796,48.026 105.138,46.156 C105.798,45.166 106.458,44.836 106.678,44.836 L106.678,44.77 C106.678,44.814 107.338,45.166 107.998,46.53 C109.318,50.93 108.658,55.77 106.018,59.554 C105.578,60.17 104.918,60.61 104.258,60.83 C103.378,60.83 101.618,57.618 102.278,52.426 M102.718,69.366 L103.818,69.366 C107.118,69.146 109.978,67.518 111.958,64.9 C116.358,58.74 117.678,50.666 115.038,43.428 C114.378,41.162 113.058,39.204 110.858,37.928 C106.458,35.068 100.518,36.388 97.658,40.876 C95.238,43.89 93.918,47.476 93.478,51.216 C91.938,60.522 95.898,68.288 102.278,69.344" id="Shape" fill="#79B02E" fill-rule="nonzero"></path>
                <g id="Group" transform="translate(91.938000, 36.227400)">
                    <g id="Clipped">
                        <mask id="mask-22" fill="white">
                            <use xlink:href="#path-21"></use>
                        </mask>
                        <g id="u"></g>
                        <polyline id="Shape" fill="#79B02E" fill-rule="nonzero" mask="url(#mask-22)" points="-1686.454 1481.986 1332.386 1481.986 1332.386 -349.624 -1686.454 -349.624"></polyline>
                    </g>
                </g>
                <g id="Group" transform="translate(91.938000, 36.227400)">
                    <g id="Clipped">
                        <mask id="mask-24" fill="white">
                            <use xlink:href="#path-23"></use>
                        </mask>
                        <g id="w"></g>
                        <polyline id="Shape" fill="#79B02E" fill-rule="nonzero" mask="url(#mask-24)" points="-12.892 48.048 40.04 48.048 40.04 -14.74 -12.87 -14.74"></polyline>
                    </g>
                </g>
            </g>
        </g>
    </g>
</svg>