<?xml version="1.0" encoding="UTF-8"?>
<svg width="192px" height="192px" viewBox="0 0 192 192" version="1.1" xmlns="http://www.w3.org/2000/svg" xmlns:xlink="http://www.w3.org/1999/xlink">
    <!-- Generator: Sketch 46.2 (44496) - http://www.bohemiancoding.com/sketch -->
    <title>ic_Sports_Fitness</title>
    <desc>Created with Sketch.</desc>
    <defs>
        <polygon id="path-1" points="0.99 0.33 143.11 0.33 143.11 129.58 0.99 129.58"></polygon>
        <polygon id="path-3" points="176 0.166 176 56.376 0 56.376 0 0.166"></polygon>
    </defs>
    <g id="Page-1" stroke="none" stroke-width="1" fill="none" fill-rule="evenodd">
        <g id="ic_Sports_Fitness">
            <g id="Sports-_-Fitness" transform="translate(8.000000, 8.000000)">
                <polygon id="Shape" points="0 0 176 0 176 176 0 176"></polygon>
                <g id="Group" transform="translate(9.776800, 19.720800)">
                    <g id="Clipped">
                        <mask id="mask-2" fill="white">
                            <use xlink:href="#path-1"></use>
                        </mask>
                        <g id="a"></g>
                        <path d="M72.116,129.58 C71.17,129.58 70.224,129.206 69.52,128.48 L13.332,72.314 C5.368,64.35 1.012,53.746 1.012,42.46 C1.012,31.24 5.368,20.636 13.332,12.672 C21.296,4.708 31.9,0.352 43.164,0.352 C54.01,0.352 64.284,4.4 72.116,11.836 C79.97,4.4 90.2,0.33 101.068,0.33 C112.332,0.33 122.914,4.73 130.878,12.65 C137.698,19.69 142.098,28.93 142.978,38.742 C143.198,40.942 141.658,42.702 139.678,42.922 C137.478,43.142 135.718,41.602 135.718,39.622 C134.838,31.482 131.318,23.782 125.598,18.062 C118.998,11.462 110.198,7.942 100.958,7.942 C91.718,7.942 82.918,11.638 76.318,18.216 L74.558,19.932 C73.018,21.472 70.818,21.472 69.278,19.932 L67.518,18.282 C60.918,11.682 52.118,8.074 42.878,8.074 C33.638,8.074 24.838,11.682 18.238,18.26 C11.638,24.86 7.964,33.506 7.964,42.9 C7.964,52.14 11.594,60.94 18.172,67.54 L71.874,121 L125.62,67.1 C128.172,64.592 130.284,61.71 131.912,58.52 C132.792,56.76 134.992,56.056 136.752,56.98 C138.578,57.926 139.282,60.148 138.292,61.93 C136.312,65.758 133.782,69.234 130.724,72.314 L74.712,128.48 C73.964,129.206 73.018,129.58 72.072,129.58" id="Shape" fill="#F1162C" fill-rule="nonzero" mask="url(#mask-2)"></path>
                    </g>
                </g>
                <g id="Group" transform="translate(0.000000, 50.053400)">
                    <g id="Clipped" transform="translate(0.000000, 0.000000)">
                        <mask id="mask-4" fill="white">
                            <use xlink:href="#path-3"></use>
                        </mask>
                        <g id="c"></g>
                        <path d="M100.232,0.166 C90.772,0.166 83.116,7.866 83.116,17.282 L83.116,39.282 C83.116,44.782 78.716,49.182 73.326,49.182 C67.936,49.182 63.558,44.782 63.558,39.502 L63.558,16.16 C63.558,7.36 56.298,0.32 47.498,0.32 C38.698,0.32 31.438,7.36 31.438,16.16 L31.438,20.34 C31.438,22.694 29.502,24.608 27.148,24.608 L20.24,24.608 C21.208,27.182 22.506,29.668 24.112,31.934 L27.346,31.934 C33.814,31.934 39.006,26.742 39.006,20.362 L39.006,16.16 C39.006,11.452 42.834,7.58 47.586,7.58 C52.272,7.58 56.122,11.452 56.122,16.16 L56.122,39.26 C56.122,48.72 63.822,56.376 73.282,56.376 C82.742,56.376 90.442,48.676 90.442,39.282 L90.442,17.282 C90.442,12.002 94.842,7.602 100.276,7.602 C105.556,7.602 109.956,12.002 109.956,17.502 L109.956,22.078 C109.956,27.71 114.466,32.286 120.12,32.286 L139.348,32.286 C140.162,31.12 140.888,29.866 141.548,28.546 C142.208,27.336 143.528,26.566 144.848,26.566 C145.442,26.566 146.014,26.742 146.564,27.006 C148.324,27.974 148.984,30.174 148.104,31.978 L147.884,32.264 L172.304,32.264 C174.35,32.264 176,30.658 176,28.634 C176,26.654 174.328,25.004 172.304,25.004 L120.12,25.004 C118.514,25.004 117.216,23.684 117.216,22.144 L117.216,17.26 C117.216,7.844 109.516,0.166 100.144,0.166 M12.584,24.586 L3.652,24.586 C1.672,24.586 0,26.28 0,28.26 C0,30.35 1.65,32 3.674,32 L15.686,32 C14.432,29.668 13.398,27.204 12.606,24.674" id="Shape" fill="#FBC5CA" fill-rule="nonzero" mask="url(#mask-4)"></path>
                    </g>
                </g>
                <path d="M20.394,74.668 L12.628,74.668 C13.398,77.198 14.432,79.662 15.708,81.994 L24.288,81.994 C22.66,79.706 21.362,77.242 20.394,74.668 M145.024,76.296 C143.704,76.296 142.384,77.022 141.768,78.276 C141.108,79.552 140.338,80.806 139.524,82.016 L148.104,82.016 L148.28,81.664 C149.204,79.86 148.5,77.638 146.74,76.714 C146.168,76.428 145.596,76.274 145.024,76.274" id="Shape" fill="#F1162C" fill-rule="nonzero"></path>
            </g>
        </g>
    </g>
</svg>