<?xml version="1.0" encoding="UTF-8"?>
<svg width="192px" height="192px" viewBox="0 0 192 192" version="1.1" xmlns="http://www.w3.org/2000/svg" xmlns:xlink="http://www.w3.org/1999/xlink">
    <!-- Generator: Sketch 46.2 (44496) - http://www.bohemiancoding.com/sketch -->
    <title>ic_Telecoms</title>
    <desc>Created with Sketch.</desc>
    <defs></defs>
    <g id="Page-1" stroke="none" stroke-width="1" fill="none" fill-rule="evenodd">
        <g id="ic_Telecoms">
            <g id="Telecoms" transform="translate(8.000000, 8.000000)">
                <g id="Group-16" transform="translate(0.000000, 31.680000)">
                    <path d="M7.23287671,85.7043478 L127.780822,85.7043478 L127.780822,7.34608696 L7.23287671,7.34608696 L7.23287671,85.7043478 Z M131.39726,93.0504348 L3.61643836,93.0504348 C1.62016438,93.0504348 0,91.4049113 0,89.3773913 L0,3.67304348 C0,1.64552348 1.62016438,0 3.61643836,0 L131.39726,0 C133.393534,0 135.013699,1.64552348 135.013699,3.67304348 L135.013699,89.3773913 C135.013699,91.4049113 133.393534,93.0504348 131.39726,93.0504348 L131.39726,93.0504348 Z" id="Fill-1" fill="#1D7BCE"></path>
                    <path d="M68.5941918,22.2892522 C81.8592877,22.2892522 94.3167123,27.5221148 103.671233,37.0230539 L103.844822,36.8442991 C94.4469041,27.2968348 81.9267945,22.0370365 68.5941918,22.0370365 C55.2591781,22.0370365 42.7390685,27.2968348 33.3435616,36.8442991 L33.5171507,37.0230539 C42.8692603,27.5221148 55.3266849,22.2892522 68.5941918,22.2892522 M33.4303562,39.50848 L33.4255342,39.50848 C32.7504658,39.5060313 32.1139726,39.2391235 31.6366027,38.751833 C30.6505205,37.7478678 30.6505205,36.1170365 31.6390137,35.1130713 C41.4901918,25.1028035 54.6154521,19.5883409 68.5941918,19.5883409 C82.5705205,19.5883409 95.6957808,25.1028035 105.54937,35.1130713 C106.02674,35.6003617 106.291945,36.24192 106.294356,36.9300035 C106.294356,37.618087 106.029151,38.2645426 105.54937,38.7542817 C104.59463,39.7239652 102.921425,39.7239652 101.966685,38.7542817 C93.0654247,29.7136974 81.2155616,24.7379478 68.5941918,24.7379478 C55.970411,24.7379478 44.1205479,29.7136974 35.2216986,38.7542817 C34.7419178,39.2415722 34.1054247,39.50848 33.4303562,39.50848" id="Fill-3" fill="#F1162C"></path>
                    <path d="M40.3030356,43.9139283 L40.3271452,43.9139283 L40.3030356,43.9139283 Z M68.5208986,33.4947283 C78.4371726,33.4947283 88.326926,37.3122449 95.8563507,44.9570727 L96.0299397,44.7807666 C80.8987616,29.410304 56.2828712,29.4152014 41.1565151,44.7807666 L41.1541041,44.7807666 L41.1179397,44.8689197 C48.726926,37.2902066 58.6359671,33.4947283 68.5208986,33.4947283 L68.5208986,33.4947283 Z M95.9431452,47.4424988 L95.9383233,47.4424988 C95.2632548,47.4400501 94.6267616,47.1731423 94.1493918,46.6858518 C80.0597479,32.3756744 57.1291178,32.3732257 43.0346521,46.6883005 C42.0775014,47.657984 40.4067068,47.657984 39.4495562,46.6883005 C38.9697753,46.2010101 38.7069808,45.5521057 38.7069808,44.8640223 C38.7093918,44.1759388 38.9721863,43.5319318 39.4519671,43.0470901 C55.5210082,26.7216362 81.6702685,26.7265336 97.7344877,43.0470901 C98.2142685,43.5319318 98.477063,44.1759388 98.479474,44.8640223 C98.479474,45.5521057 98.2166795,46.2010101 97.7344877,46.6883005 C97.2547068,47.175591 96.6182137,47.4424988 95.9431452,47.4424988 L95.9431452,47.4424988 Z" id="Fill-4" fill="#F1162C"></path>
                    <path d="M68.5941918,44.7244466 C75.9500274,44.7244466 82.8550137,47.626151 88.0409863,52.8932953 L88.2169863,52.7169892 C82.9827945,47.400871 76.0127123,44.472231 68.5941918,44.472231 C61.1756712,44.472231 54.205589,47.400871 48.9689863,52.7169892 L49.1449863,52.8932953 C54.3333699,47.626151 61.2407671,44.7244466 68.5941918,44.7244466 M88.1301918,55.3811701 C87.4527123,55.3811701 86.8186301,55.1118136 86.3364384,54.6245231 C81.606137,49.8201823 75.3038904,47.1731423 68.5941918,47.1731423 C61.8844932,47.1731423 55.5822466,49.8201823 50.8495342,54.6245231 C50.3721644,55.1093649 49.7380822,55.3787214 49.0606027,55.3811701 L49.0557808,55.3811701 C48.3807123,55.3811701 47.7466301,55.1118136 47.2644384,54.6245231 C46.2759452,53.6205579 46.2759452,51.9897266 47.2644384,50.9857614 C52.9567123,45.2068397 60.5295342,42.0235353 68.5941918,42.0235353 C76.6588493,42.0235353 84.2316712,45.2068397 89.9215342,50.9857614 C90.9100274,51.9897266 90.9100274,53.6205579 89.9215342,54.6245231 C89.4393425,55.1118136 88.8052603,55.3811701 88.1301918,55.3811701" id="Fill-5" fill="#F1162C"></path>
                    <path d="M68.5941918,59.8735471 C65.9228493,59.8735471 63.7481644,62.0798219 63.7481644,64.7954254 C63.7481644,67.5085802 65.9228493,69.7173037 68.5941918,69.7173037 C71.2655342,69.7173037 73.4402192,67.5085802 73.4402192,64.7954254 C73.4402192,62.0798219 71.2655342,59.8735471 68.5941918,59.8735471 M68.5941918,72.1659993 C64.594411,72.1659993 61.3372055,68.8578115 61.3372055,64.7954254 C61.3372055,60.7330393 64.594411,57.4248515 68.5941918,57.4248515 C72.5939726,57.4248515 75.8511781,60.7330393 75.8511781,64.7954254 C75.8511781,68.8578115 72.5939726,72.1659993 68.5941918,72.1659993 M68.5941918,57.1726358 C64.4569863,57.1726358 61.0912877,60.5934637 61.0912877,64.7954254 C61.0912877,68.9998358 64.4569863,72.418215 68.5941918,72.418215 C72.7313973,72.418215 76.0970959,68.9998358 76.0970959,64.7954254 C76.0970959,60.5934637 72.7313973,57.1726358 68.5941918,57.1726358 M68.5941918,74.8669106 C63.126137,74.8669106 58.6803288,70.3490671 58.6803288,64.7954254 C58.6803288,59.2417837 63.126137,54.7239402 68.5941918,54.7239402 C74.0622466,54.7239402 78.5080548,59.2417837 78.5080548,64.7954254 C78.5080548,70.3490671 74.0622466,74.8669106 68.5941918,74.8669106" id="Fill-6" fill="#F1162C"></path>
                    <path d="M90.8907397,93.0504348 L83.602411,93.0504348 L85.1092603,105.293913 L49.9044384,105.293913 L51.4112877,93.0504348 L44.1229589,93.0504348 L42.2207123,108.50905 C42.0905205,109.557092 42.4111781,110.607583 43.0958904,111.398511 C43.7830137,112.186991 44.7690959,112.64 45.8082192,112.64 L89.2054795,112.64 C90.2421918,112.64 91.2306849,112.186991 91.9178082,111.398511 C92.6025205,110.607583 92.9231781,109.557092 92.7929863,108.50905 L90.8907397,93.0504348" id="Fill-7" fill="#C6DEF3"></path>
                    <path d="M86.7940384,85.7043478 L48.2186959,85.7043478 C46.3936,85.7043478 44.8554082,87.0829635 44.631189,88.9194852 L44.1224767,93.0504348 L51.4108055,93.0504348 L83.6019288,93.0504348 L90.8902575,93.0504348 L90.3815452,88.9194852 C90.157326,87.0829635 88.6191342,85.7043478 86.7940384,85.7043478" id="Fill-8" fill="#1D7BCE"></path>
                    <path d="M103.670751,112.64 L31.3419836,112.64 C29.3457096,112.64 27.7255452,110.994477 27.7255452,108.966957 C27.7255452,106.939437 29.3457096,105.293913 31.3419836,105.293913 L103.670751,105.293913 C105.667025,105.293913 107.287189,106.939437 107.287189,108.966957 C107.287189,110.994477 105.667025,112.64 103.670751,112.64" id="Fill-9" fill="#1D7BCE"></path>
                    <path d="M167.144548,108.966957 L124.996164,108.966957 C123.267507,108.966957 121.864329,107.544264 121.864329,105.786101 L121.864329,26.4434643 C121.864329,24.6853009 123.267507,23.2626087 124.996164,23.2626087 L167.144548,23.2626087 C168.875616,23.2626087 170.276384,24.6853009 170.276384,26.4434643 L170.276384,105.786101 C170.276384,107.544264 168.875616,108.966957 167.144548,108.966957" id="Fill-10" fill="#FFFFFF"></path>
                    <path d="M125.480767,105.293913 L166.659945,105.293913 L166.659945,26.9356522 L125.480767,26.9356522 L125.480767,105.293913 Z M167.144548,112.64 L124.996164,112.64 C121.276055,112.64 118.24789,109.564438 118.24789,105.786101 L118.24789,26.4434643 C118.24789,22.665127 121.276055,19.5895652 124.996164,19.5895652 L167.144548,19.5895652 C170.864658,19.5895652 173.892822,22.665127 173.892822,26.4434643 L173.892822,105.786101 C173.892822,109.564438 170.864658,112.64 167.144548,112.64 L167.144548,112.64 Z" id="Fill-11" fill="#1D7BCE"></path>
                    <polygon id="Fill-12" fill="#C6DEF3" points="125.480767 105.293913 166.659945 105.293913 166.659945 26.9356522 125.480767 26.9356522"></polygon>
                    <path d="M167.733063,23.2626087 L124.408132,23.2626087 C123.002542,23.2626087 121.86457,24.4208417 121.86457,25.8459826 L121.86457,106.383583 C121.86457,107.808723 123.002542,108.966957 124.408132,108.966957 L167.733063,108.966957 C169.136241,108.966957 170.276625,107.808723 170.276625,106.383583 L170.276625,25.8459826 C170.276625,24.4208417 169.136241,23.2626087 167.733063,23.2626087 L167.733063,23.2626087 Z M125.481008,105.293913 L166.660186,105.293913 L166.660186,26.9356522 L125.481008,26.9356522 L125.481008,105.293913 Z" id="Fill-13" fill="#1D7BCE"></path>
                    <polygon id="Fill-14" fill="#FFFFFF" points="121.864329 86.9286957 170.276384 86.9286957 170.276384 37.9547826 121.864329 37.9547826"></polygon>
                    <path d="M125.480767,83.2556522 L166.659945,83.2556522 L166.659945,41.6278261 L125.480767,41.6278261 L125.480767,83.2556522 Z M170.276384,90.6017391 L121.864329,90.6017391 C119.868055,90.6017391 118.24789,88.9562157 118.24789,86.9286957 L118.24789,37.9547826 C118.24789,35.9272626 119.868055,34.2817391 121.864329,34.2817391 L170.276384,34.2817391 C172.272658,34.2817391 173.892822,35.9272626 173.892822,37.9547826 L173.892822,86.9286957 C173.892822,88.9562157 172.272658,90.6017391 170.276384,90.6017391 L170.276384,90.6017391 Z" id="Fill-15" fill="#1D7BCE"></path>
                    <path d="M150.5504,98.0651186 C150.5504,100.028973 148.985688,101.620625 147.049688,101.620625 C145.116099,101.620625 143.548975,100.028973 143.548975,98.0651186 C143.548975,96.1012647 145.116099,94.5096125 147.049688,94.5096125 C148.985688,94.5096125 150.5504,96.1012647 150.5504,98.0651186" id="Fill-16" fill="#1D7BCE"></path>
                </g>
            </g>
        </g>
    </g>
</svg>