<?xml version="1.0" encoding="UTF-8"?>
<svg width="192px" height="192px" viewBox="0 0 192 192" version="1.1" xmlns="http://www.w3.org/2000/svg" xmlns:xlink="http://www.w3.org/1999/xlink">
    <!-- Generator: Sketch 46.2 (44496) - http://www.bohemiancoding.com/sketch -->
    <title>ic_Toys_Gifts</title>
    <desc>Created with Sketch.</desc>
    <defs>
        <polygon id="path-1" points="136.84 136.884 0 136.884 0 0 136.84 0"></polygon>
        <polygon id="path-3" points="0 173.294 169.4 173.294 169.4 0 0 0"></polygon>
        <polygon id="path-5" points="0 173.294 169.4 173.294 169.4 0 0 0"></polygon>
        <polygon id="path-7" points="0 173.294 169.4 173.294 169.4 0 0 0"></polygon>
        <polygon id="path-9" points="0 173.294 169.4 173.294 169.4 0 0 0"></polygon>
        <polygon id="path-11" points="0 173.294 169.4 173.294 169.4 0 0 0"></polygon>
        <polygon id="path-13" points="0 173.294 169.4 173.294 169.4 0 0 0"></polygon>
        <polygon id="path-15" points="0 173.294 169.4 173.294 169.4 0 0 0"></polygon>
        <polygon id="path-17" points="0 173.294 169.4 173.294 169.4 0 0 0"></polygon>
        <polygon id="path-19" points="0 173.294 169.4 173.294 169.4 0 0 0"></polygon>
        <polygon id="path-21" points="0 173.294 169.4 173.294 169.4 0 0 0"></polygon>
        <polygon id="path-23" points="0 173.294 169.4 173.294 169.4 0 0 0"></polygon>
        <polygon id="path-25" points="0 173.294 169.4 173.294 169.4 0 0 0"></polygon>
        <polygon id="path-27" points="0 173.294 169.4 173.294 169.4 0 0 0"></polygon>
        <polygon id="path-29" points="0 173.294 169.4 173.294 169.4 0 0 0"></polygon>
    </defs>
    <g id="Page-1" stroke="none" stroke-width="1" fill="none" fill-rule="evenodd">
        <g id="ic_Toys_Gifts">
            <g id="Toys-_-Gifts" transform="translate(8.000000, 8.000000)">
                <polygon id="Shape" points="0 0 176 0 176 176 0 176"></polygon>
                <g id="Group" transform="translate(18.488800, 36.416600)">
                    <g id="Clipped">
                        <mask id="mask-2" fill="white">
                            <use xlink:href="#path-1"></use>
                        </mask>
                        <g id="a"></g>
                        <path d="M9.768,9.768 L9.768,125.928 C9.768,126.588 10.296,127.116 10.956,127.116 L125.884,127.116 C126.544,127.116 127.05,126.588 127.05,125.928 L127.05,9.768 L9.79,9.768 M125.84,136.884 L10.956,136.884 C4.906,136.884 0,132 0,125.928 L0,4.884 C0,2.2 2.2,0 4.884,0 L131.934,0 C134.64,0 136.818,2.2 136.818,4.884 L136.818,125.928 C136.818,131.978 131.824,136.884 125.818,136.884" id="Shape" fill="#F1162C" fill-rule="nonzero" mask="url(#mask-2)"></path>
                    </g>
                </g>
                <g id="Clipped" transform="translate(2.200000, 0.000000)">
                    <mask id="mask-4" fill="white">
                        <use xlink:href="#path-3"></use>
                    </mask>
                    <g id="c"></g>
                    <polyline id="Shape" fill="#FBC5CA" fill-rule="nonzero" mask="url(#mask-4)" points="70.048 163.526 79.816 163.526 79.816 46.2 70.048 46.2"></polyline>
                </g>
                <g id="Clipped" transform="translate(2.200000, 0.000000)">
                    <mask id="mask-6" fill="white">
                        <use xlink:href="#path-5"></use>
                    </mask>
                    <g id="c"></g>
                    <path d="M79.816,163.526 L70.048,163.526 L70.048,168.41 C70.048,171.116 72.248,173.316 74.932,173.316 C77.638,173.316 79.816,171.116 79.816,168.41 L79.816,163.526" id="Shape" fill="#F1162C" fill-rule="nonzero" mask="url(#mask-6)"></path>
                </g>
                <g id="Clipped" transform="translate(2.200000, 0.000000)">
                    <mask id="mask-8" fill="white">
                        <use xlink:href="#path-7"></use>
                    </mask>
                    <g id="c"></g>
                    <polyline id="Shape" fill="#FBC5CA" fill-rule="nonzero" mask="url(#mask-8)" points="89.584 163.526 99.352 163.526 99.352 46.2 89.584 46.2"></polyline>
                </g>
                <g id="Clipped" transform="translate(2.200000, 0.000000)">
                    <mask id="mask-10" fill="white">
                        <use xlink:href="#path-9"></use>
                    </mask>
                    <g id="c"></g>
                    <path d="M99.352,163.526 L89.584,163.526 L89.584,168.41 C89.584,171.116 91.784,173.316 94.468,173.316 C97.174,173.316 99.352,171.116 99.352,168.41 L99.352,163.526 M55.792,9.79 C54.12,9.79 52.492,10.098 51.128,10.604 C46.882,12.144 42.328,16.236 42.328,23.144 C42.328,30.448 48.312,36.41 55.638,36.41 L84.018,36.41 L65.758,14.586 C62.81,11.066 59.092,9.79 55.704,9.79 M94.49,46.2 L55.66,46.2 C42.9,46.2 32.56,35.86 32.56,23.1 C32.56,13.266 38.544,4.752 47.784,1.408 C57.024,-1.936 67.078,0.748 73.37,8.338 L98.23,38.082 C99.44,39.534 99.704,41.602 98.89,43.296 C98.098,45.056 96.36,46.156 94.49,46.156" id="Shape" fill="#F1162C" fill-rule="nonzero" mask="url(#mask-10)"></path>
                </g>
                <g id="Clipped" transform="translate(2.200000, 0.000000)">
                    <mask id="mask-12" fill="white">
                        <use xlink:href="#path-11"></use>
                    </mask>
                    <g id="c"></g>
                    <path d="M119.394,11.44 C114.334,11.44 109.494,13.64 106.128,17.71 L93.654,32.67 L96.734,36.41 L135.08,36.41 C136.18,34.122 136.84,31.57 136.84,28.82 C136.84,21.428 132.33,15.026 125.4,12.496 C123.42,11.792 121.374,11.44 119.394,11.44 M103.268,36.41 L113.608,23.98 C115.324,21.956 117.436,21.23 119.372,21.23 C120.34,21.23 121.242,21.406 122.056,21.67 C124.476,22.55 127.05,24.904 127.05,28.82 C127.05,33 123.64,36.41 119.46,36.41 L103.268,36.41" id="Shape" fill="#FBC5CA" fill-rule="nonzero" mask="url(#mask-12)"></path>
                </g>
                <g id="Clipped" transform="translate(2.200000, 0.000000)">
                    <mask id="mask-14" fill="white">
                        <use xlink:href="#path-13"></use>
                    </mask>
                    <g id="c"></g>
                    <path d="M135.08,36.41 L96.756,36.41 L98.208,38.17 C98.78,38.83 99.176,39.666 99.308,40.59 L99.308,40.634 C99.352,40.854 99.352,41.14 99.352,41.382 L99.352,46.2 L119.46,46.2 C126.324,46.2 132.264,42.196 135.08,36.41" id="Shape" fill="#F1162C" fill-rule="nonzero" mask="url(#mask-14)"></path>
                </g>
                <g id="Clipped" transform="translate(2.200000, 0.000000)">
                    <mask id="mask-16" fill="white">
                        <use xlink:href="#path-15"></use>
                    </mask>
                    <g id="c"></g>
                    <path d="M98.208,38.148 C98.802,38.874 99.176,39.688 99.308,40.568 C99.176,39.688 98.78,38.808 98.208,38.148 M99.352,41.36 C99.352,42.064 99.198,42.746 98.912,43.384 C98.098,45.1 96.36,46.2 94.468,46.2 L99.352,46.2 L99.352,41.36" id="Shape" fill="#F1162C" fill-rule="nonzero" mask="url(#mask-16)"></path>
                </g>
                <g id="Clipped" transform="translate(2.200000, 0.000000)">
                    <mask id="mask-18" fill="white">
                        <use xlink:href="#path-17"></use>
                    </mask>
                    <g id="c"></g>
                    <path d="M93.654,32.692 L89.1,38.192 C87.868,39.644 87.626,41.668 88.44,43.384 C89.232,45.1 90.948,46.2 92.84,46.2 L94.468,46.2 C96.36,46.2 98.098,45.1 98.868,43.384 C99.198,42.724 99.352,42.064 99.352,41.404 C99.352,41.14 99.352,40.876 99.308,40.634 L99.308,40.59 C99.176,39.71 98.802,38.874 98.208,38.17 L96.756,36.41 L93.676,32.67" id="Shape" fill="#F1162C" fill-rule="nonzero" mask="url(#mask-18)"></path>
                </g>
                <g id="Clipped" transform="translate(2.200000, 0.000000)">
                    <mask id="mask-20" fill="white">
                        <use xlink:href="#path-19"></use>
                    </mask>
                    <g id="c"></g>
                    <polyline id="Shape" fill="#FFFFFF" fill-rule="nonzero" mask="url(#mask-20)" points="4.884 64.13 164.516 64.13 164.516 41.294 4.884 41.294"></polyline>
                </g>
                <g id="Clipped" transform="translate(2.200000, 0.000000)">
                    <mask id="mask-22" fill="white">
                        <use xlink:href="#path-21"></use>
                    </mask>
                    <g id="c"></g>
                    <path d="M9.768,59.224 L159.632,59.224 L159.632,46.2 L9.768,46.2 L9.768,59.224 Z M164.516,69.014 L4.884,69.014 C2.2,69.014 0,66.814 0,64.13 L0,41.294 C0,38.61 2.2,36.41 4.884,36.41 L164.516,36.41 C167.2,36.41 169.4,38.61 169.4,41.294 L169.4,64.13 C169.4,66.814 167.2,69.014 164.516,69.014 L164.516,69.014 Z" id="Shape" fill="#1D7BCE" fill-rule="nonzero" mask="url(#mask-22)"></path>
                </g>
                <g id="Clipped" transform="translate(2.200000, 0.000000)">
                    <mask id="mask-24" fill="white">
                        <use xlink:href="#path-23"></use>
                    </mask>
                    <g id="c"></g>
                    <path d="M74.932,64.13 L74.932,41.316" id="Shape" fill="#FFFFFF" fill-rule="nonzero" mask="url(#mask-24)"></path>
                </g>
                <g id="Clipped" transform="translate(2.200000, 0.000000)">
                    <mask id="mask-26" fill="white">
                        <use xlink:href="#path-25"></use>
                    </mask>
                    <g id="c"></g>
                    <path d="M74.932,69.014 C72.226,69.014 70.048,66.814 70.048,64.13 L70.048,41.316 C70.048,38.61 72.248,36.41 74.932,36.41 C77.638,36.41 79.816,38.61 79.816,41.316 L79.816,64.13 C79.816,66.814 77.616,69.014 74.932,69.014" id="Shape" fill="#1D7BCE" fill-rule="nonzero" mask="url(#mask-26)"></path>
                </g>
                <g id="Clipped" transform="translate(2.200000, 0.000000)">
                    <mask id="mask-28" fill="white">
                        <use xlink:href="#path-27"></use>
                    </mask>
                    <g id="c"></g>
                    <path d="M94.468,64.13 L94.468,41.316" id="Shape" fill="#FFFFFF" fill-rule="nonzero" mask="url(#mask-28)"></path>
                </g>
                <g id="Clipped" transform="translate(2.200000, 0.000000)">
                    <mask id="mask-30" fill="white">
                        <use xlink:href="#path-29"></use>
                    </mask>
                    <g id="c"></g>
                    <path d="M94.468,69.014 C91.762,69.014 89.584,66.814 89.584,64.13 L89.584,41.316 C89.584,38.61 91.784,36.41 94.468,36.41 C97.174,36.41 99.352,38.61 99.352,41.316 L99.352,64.13 C99.352,66.814 97.152,69.014 94.468,69.014" id="Shape" fill="#1D7BCE" fill-rule="nonzero" mask="url(#mask-30)"></path>
                </g>
            </g>
        </g>
    </g>
</svg>