<?xml version="1.0" encoding="UTF-8"?>
<svg width="192px" height="192px" viewBox="0 0 192 192" version="1.1" xmlns="http://www.w3.org/2000/svg" xmlns:xlink="http://www.w3.org/1999/xlink">
    <!-- Generator: Sketch 46.2 (44496) - http://www.bohemiancoding.com/sketch -->
    <title>ic_Travel</title>
    <desc>Created with Sketch.</desc>
    <defs>
        <polygon id="path-1" points="0 123.794 0 1.43 97.152 1.43 97.152 123.794"></polygon>
        <polygon id="path-3" points="57.728 1.474 0 1.474 0 39.534 57.728 39.534"></polygon>
    </defs>
    <g id="Page-1" stroke="none" stroke-width="1" fill="none" fill-rule="evenodd">
        <g id="ic_Travel">
            <g id="Travel" transform="translate(8.000000, 8.000000)">
                <polygon id="Shape" points="0 0 176 0 176 176 0 176"></polygon>
                <g id="Group" transform="translate(37.400000, 39.600000)">
                    <g id="Clipped">
                        <mask id="mask-2" fill="white">
                            <use xlink:href="#path-1"></use>
                        </mask>
                        <g id="a"></g>
                        <path d="M15.334,10.23 C11.682,10.23 8.734,13.2 8.734,16.874 L8.734,108.35 C8.734,112.024 11.682,114.994 15.334,114.994 L81.84,114.994 C85.47,114.994 88.44,112.024 88.44,108.35 L88.44,16.874 C88.44,13.2 85.47,10.23 81.84,10.23 L15.312,10.23 M81.84,123.794 L15.312,123.794 C6.886,123.794 0,116.864 0,108.35 L0,16.874 C0,8.36 6.886,1.43 15.334,1.43 L81.84,1.43 C90.288,1.43 97.152,8.338 97.152,16.874 L97.152,108.35 C97.152,116.864 90.288,123.794 81.818,123.794" id="Shape" fill="#1D7BCE" fill-rule="nonzero" mask="url(#mask-2)"></path>
                    </g>
                </g>
                <path d="M127.974,105.49 L44,105.49 C41.58,105.49 39.6,103.51 39.6,101.09 C39.6,98.67 41.58,96.69 44,96.69 L127.974,96.69 C130.394,96.69 132.374,98.67 132.374,101.09 C132.374,103.51 130.394,105.49 127.974,105.49 M127.974,127.776 L44,127.776 C41.58,127.776 39.6,125.796 39.6,123.376 C39.6,120.956 41.58,118.976 44,118.976 L127.974,118.976 C130.394,118.976 132.374,120.956 132.374,123.376 C132.374,125.796 130.394,127.776 127.974,127.776" id="Shape" fill="#1D7BCE" fill-rule="nonzero"></path>
                <path d="M79.288,163.394 L70.554,163.394 L70.554,165.726 L61.6,165.726 L61.6,163.394 L52.866,163.394 L52.866,170.126 C52.866,172.546 54.846,174.526 57.266,174.526 L74.932,174.526 C77.352,174.526 79.288,172.546 79.288,170.126 L79.288,163.394" id="Shape" fill="#C6DEF3" fill-rule="nonzero"></path>
                <path d="M74.932,154.594 L57.244,154.594 C54.824,154.594 52.844,156.574 52.844,158.994 L52.844,163.394 L79.31,163.394 L79.31,158.994 C79.31,156.574 77.33,154.594 74.954,154.594" id="Shape" fill="#1D7BCE" fill-rule="nonzero"></path>
                <path d="M119.086,163.394 L110.352,163.394 L110.352,165.726 L101.42,165.726 L101.42,163.394 L92.62,163.394 L92.62,170.126 C92.62,172.546 94.6,174.526 97.02,174.526 L114.664,174.526 C117.084,174.526 119.064,172.546 119.064,170.126 L119.064,163.394" id="Shape" fill="#C6DEF3" fill-rule="nonzero"></path>
                <path d="M114.708,154.594 L97.02,154.594 C94.6,154.594 92.664,156.574 92.664,158.994 L92.664,163.394 L119.064,163.394 L119.064,158.994 C119.064,156.574 117.084,154.594 114.664,154.594" id="Shape" fill="#1D7BCE" fill-rule="nonzero"></path>
                <g id="Group" transform="translate(57.783000, 1.467400)">
                    <g id="Clipped">
                        <mask id="mask-4" fill="white">
                            <use xlink:href="#path-3"></use>
                        </mask>
                        <g id="c"></g>
                        <path d="M53.372,1.474 L4.4,1.474 C1.98,1.474 0,3.454 0,5.874 L0,39.534 L57.728,39.534 L57.728,5.874 C57.728,3.454 55.748,1.474 53.372,1.474 Z M8.756,20.548 L49.016,20.548 L49.016,10.274 L8.756,10.274 L8.756,20.548 Z M8.756,38.192 L49.016,38.192 L49.016,29.348 L8.756,29.348 L8.756,38.192 Z" id="Shape" fill="#C6DEF3" fill-rule="nonzero" mask="url(#mask-4)"></path>
                    </g>
                </g>
                <path d="M115.5,41.03 L57.86,41.03 L57.86,44.044 C57.86,46.464 59.796,48.444 62.216,48.444 L111.188,48.444 C113.608,48.444 115.588,46.464 115.588,44.044 L115.588,41.03" id="Shape" fill="#1D7BCE" fill-rule="nonzero"></path>
            </g>
        </g>
    </g>
</svg>