<svg xmlns="http://www.w3.org/2000/svg" width="192" height="192" viewBox="0 0 192 192">
  <defs>
    <filter id="vivy_logo-a" width="109.7%" height="111.8%" x="-4.8%" y="-4.2%" filterUnits="objectBoundingBox">
      <feOffset dy="2" in="SourceAlpha" result="shadowOffsetOuter1"/>
      <feGaussianBlur in="shadowOffsetOuter1" result="shadowBlurOuter1" stdDeviation="2"/>
      <feColorMatrix in="shadowBlurOuter1" result="shadowMatrixOuter1" values="0 0 0 0 0   0 0 0 0 0   0 0 0 0 0  0 0 0 0.08 0"/>
      <feMerge>
        <feMergeNode in="shadowMatrixOuter1"/>
        <feMergeNode in="SourceGraphic"/>
      </feMerge>
    </filter>
    <linearGradient id="vivy_logo-b" x1="50%" x2="50%" y1="30.033%" y2="98.313%">
      <stop offset="0%" stop-color="#00E4CD"/>
      <stop offset="100%" stop-color="#00B8E4"/>
    </linearGradient>
  </defs>
  <g fill="none" fill-rule="evenodd" filter="url(#vivy_logo-a)" transform="translate(24 37)">
    <path fill="url(#vivy_logo-b)" d="M87.2343136,36.0704935 L98.0317368,46.8379621 C104.02151,52.8005926 113.752912,52.8005926 119.737407,46.8379621 C122.634663,43.948744 124.233695,40.1017159 124.233695,36.0126039 C124.233695,31.9287546 122.634663,28.0817265 119.737407,25.1977711 C113.937618,19.4140722 103.831526,19.4140722 98.0370141,25.1977711 L87.2343136,36.0704935 Z M72.515832,119 C69.7610642,119 67.1171204,117.910623 65.1697845,115.968689 L10.5757752,61.4787723 C3.75218372,54.6741111 0,45.6328056 0,36.0126039 C0,26.3924023 3.75218372,17.3510968 10.5757752,10.5464355 C17.3940894,3.74177428 26.4605474,0 36.107512,0 C45.759754,0 54.826212,3.74177428 61.6445261,10.5464355 L72.5527733,21.4244207 L83.3132552,10.5832744 C90.1685107,3.74177428 99.2349687,0 108.887211,0 C118.534175,0 127.600633,3.74177428 134.424225,10.5464355 C141.242539,17.3510968 145,26.3924023 145,36.0126039 C145,45.6328056 141.242539,54.6741111 134.424225,61.4787723 C120.339023,75.5196356 97.4301208,75.5196356 83.3501965,61.4787723 L72.6213787,50.7849814 L62.7316567,60.7419954 C58.6997743,64.8100566 52.1242175,64.8416328 48.0501165,60.8156731 C43.9760154,56.7949761 43.9390741,50.2323987 47.9815111,46.1748629 L57.9345611,36.1441712 L46.9629859,25.1977711 C41.163197,19.4140722 31.051827,19.4140722 25.2625928,25.1977711 C22.3600597,28.0817265 20.7610278,31.9287546 20.7610278,36.0126039 C20.7610278,40.1017159 22.3600597,43.948744 25.2625928,46.8379621 L72.5211093,93.9969485 L86.3741083,80.1771183 C90.4271,76.1301079 97.0079342,76.1301079 101.060926,80.1771183 C105.119195,84.2136034 105.119195,90.7761808 101.060926,94.8179285 L79.8618795,115.968689 C77.9092663,117.910623 75.2705998,119 72.515832,119 Z" transform="matrix(-1 0 0 1 145 0)"/>
    <polygon fill="#20CBF4" points="58 36.323 72.448 51 87 36.323 72.448 22"/>
  </g>
</svg>
