<svg xmlns="http://www.w3.org/2000/svg" viewBox="0 0 112 102"><title>course</title><g id="Layer_2" data-name="Layer 2"><g id="Browser_Testing" data-name="Browser Testing"><g id="White_Base" data-name="White Base"><path d="M92,34V20H4V74a4,4,0,0,0,4,4H72V42a8,8,0,0,1,8-8ZM92,8a4,4,0,0,0-4-4H8A4,4,0,0,0,4,8v8H92ZM76,94a4,4,0,0,0,4,4h24a4,4,0,0,0,4-4V88H76Zm28-56H80a4,4,0,0,0-4,4v6h32V42A4,4,0,0,0,104,38ZM76,84h32V52H76Z" style="fill:#fff"/></g><g id="Red"><path d="M92,90a3,3,0,1,0,3,3A3,3,0,0,0,92,90Z" style="fill:#ee6a56"/></g><g id="Green"><path d="M8,52H46V24H8Zm72,4V66h24V56Z" style="fill:#85ab70"/></g><g id="Yellow"><path d="M88,34V24H50V52H72V42a8,8,0,0,1,8-8ZM80,70V80h24V70Z" style="fill:#f7d54a"/></g><g id="Blue"><rect x="8" y="56" width="64" height="18" style="fill:#86aedd"/></g><g id="Inner_Lines" data-name="Inner Lines" style="opacity:0.149019607843137"><path d="M88,42a1,1,0,1,0,1,1A1,1,0,0,0,88,42Zm8,0H91a1,1,0,0,0,0,2h5a1,1,0,0,0,0-2ZM10,8a2,2,0,1,0,2,2A2,2,0,0,0,10,8Zm6,0a2,2,0,1,0,2,2A2,2,0,0,0,16,8Zm6,0a2,2,0,1,0,2,2A2,2,0,0,0,22,8Z"/></g><g id="Texture_1" data-name="Texture 1" style="opacity:0.101960784313725"><path d="M8,42v2h2V42Zm2,0h2V40H10Zm2-2h2V38H12ZM8,38v2h2V38Zm6,10V46H12v2Zm0,4V50H12v2Zm0-8V42H12v2Zm-4,6h2V48H10ZM8,46v2h2V46Zm2,0h2V44H10ZM8,52h2V50H8Zm4-24h2V26H12Zm-2-4v2h2V24Zm0,6H8v2h2Zm0,4H8v2h2Zm4,2V34H12v2Zm0-4V30H12v2Zm-4,2h2V32H10Zm0-8H8v2h2Zm0,12h2V36H10Zm0-8h2V28H10ZM50,52h2V50H50Zm6-8V42H54v2Zm0,8V50H54v2Zm0-4V46H54v2Zm-4,2h2V48H52Zm-2-4v2h2V46Zm0-8v2h2V38Zm4,2h2V38H54Zm-2,2h2V40H52Zm-2,0v2h2V42Zm2,4h2V44H52Zm0-20H50v2h2Zm0,4H50v2h2Zm0,4H50v2h2Zm4,2V34H54v2Zm0-4V30H54v2Zm-2-4h2V26H54Zm-2,6h2V32H52Zm0-4h2V28H52Zm0-6v2h2V24Zm0,14h2V36H52ZM8,70v2h2V70Zm2,4h2V72H10Zm2-2h2V70H12Zm2-4V66H12v2Zm-4-2h2V64H10Zm4-2V62H12v2Zm-4-2H8v2h2Zm0,4H8v2h2Zm0-4h2V60H10Zm0-4H8v2h2Zm0,12h2V68H10Zm0-14v2h2V56Zm2,4h2V58H12Zm70,6h2V64H82Zm-2-4v2h2V62Zm0-4v2h2V58Zm6,6V62H84v2Zm-2-8H82v2h2Zm-2,4v2h2V60Zm4,0V58H84v2Zm0,18V76H84v2Zm-4-2h2V74H82Zm0,4h2V78H82Zm-2-4v2h2V76Zm4-2h2V72H84Zm0-4H82v2h2Zm-4,2v2h2V72Z"/></g><g id="Outline" style="opacity:0.850980392156863"><path d="M104,34H96V8a8,8,0,0,0-8-8H8A8,8,0,0,0,0,8V74a8,8,0,0,0,8,8H72V94a8,8,0,0,0,8,8h24a8,8,0,0,0,8-8V42A8,8,0,0,0,104,34ZM4,8A4,4,0,0,1,8,4H88a4,4,0,0,1,4,4v8H4ZM72,42V78H8a4,4,0,0,1-4-4V20H92V34H80A8,8,0,0,0,72,42Zm36,52a4,4,0,0,1-4,4H80a4,4,0,0,1-4-4V88h32Zm0-10H76V52h32Zm0-36H76V42a4,4,0,0,1,4-4h24a4,4,0,0,1,4,4Z"/></g></g></g></svg>