<svg xmlns="http://www.w3.org/2000/svg" viewBox="0 0 102 102"><title>podcast_1</title><g id="Layer_2" data-name="Layer 2"><g id="Headphones"><g id="White_Base" data-name="White Base"><path d="M22.29,13.8,22,14c-.61.49-1.22,1-1.81,1.5l-.27.24a47,47,0,0,0-5.56,5.82L14,22c-.45.57-.89,1.15-1.31,1.74l-.32.45c-.45.64-.88,1.3-1.29,2a2.13,2.13,0,0,0-.16.25c-.48.77-.93,1.56-1.37,2.36l0,.09c-.4.73-.77,1.48-1.12,2.23-.1.21-.19.42-.28.63-.27.59-.53,1.2-.77,1.81-.1.24-.2.48-.29.73-.24.62-.46,1.26-.68,1.9-.06.2-.14.4-.2.61-.27.85-.52,1.7-.75,2.57,0,.07,0,.14,0,.2-.2.79-.38,1.59-.53,2.39-.06.27-.1.55-.15.83-.11.61-.21,1.22-.29,1.84l-.12.94q-.11.93-.18,1.89c0,.28-.05.56-.06.84C4,49.16,4,50.08,4,51V75h.1A20.86,20.86,0,0,1,8,64.69V51c0-.86,0-1.7.08-2.55l.06-.77c0-.6.1-1.19.17-1.77,0-.28.07-.56.11-.84.08-.6.18-1.2.29-1.8,0-.22.07-.45.12-.67.16-.81.34-1.62.54-2.42L9.43,40c.19-.74.41-1.46.64-2.18l.21-.65c.2-.57.41-1.15.63-1.71.08-.22.16-.43.25-.65q.39-.95.81-1.86l.17-.36q.54-1.14,1.14-2.25a.56.56,0,0,0,.05-.08c.38-.68.78-1.36,1.19-2l.27-.42c.37-.57.75-1.13,1.14-1.69l.26-.37a44,44,0,0,1,4.91-5.65l.24-.23c.54-.52,1.1-1,1.67-1.51l.19-.16a41,41,0,0,1,4.1-3.08l-2.88-2.89C23.69,12.74,23,13.27,22.29,13.8ZM8,77a16.89,16.89,0,0,0,3.83,10.72,17.84,17.84,0,0,0,1.56,1.69A17,17,0,0,0,23,93.87V60.13A17,17,0,0,0,8,77ZM90.63,66.84A17,17,0,0,0,79,60.13V93.87a16.86,16.86,0,0,0,7.22-2.6A17,17,0,0,0,94,77a17.15,17.15,0,0,0-3.37-10.16Zm7.28-18.59c0-.28,0-.56-.06-.84q-.07-1-.18-1.89l-.12-.94c-.08-.62-.18-1.23-.29-1.84-.05-.28-.09-.56-.15-.83-.15-.8-.33-1.6-.53-2.39,0-.06,0-.13,0-.2-.23-.87-.48-1.72-.75-2.57-.06-.21-.14-.41-.2-.61-.22-.64-.44-1.28-.68-1.9-.09-.25-.19-.49-.29-.73-.24-.61-.5-1.22-.77-1.81-.09-.21-.18-.42-.28-.63-.36-.75-.72-1.5-1.12-2.23l0-.09C92,28,91.52,27.16,91,26.39a2.13,2.13,0,0,0-.16-.25c-.41-.66-.84-1.32-1.29-2l-.32-.45c-.42-.59-.86-1.17-1.31-1.74l-.3-.39a47,47,0,0,0-5.56-5.82l-.27-.24c-.59-.52-1.2-1-1.81-1.5l-.31-.24c-.69-.53-1.4-1.06-2.13-1.56L74.7,15.13a41,41,0,0,1,4.1,3.08l.19.16c.57.49,1.13,1,1.67,1.51l.24.23a44,44,0,0,1,4.91,5.65l.26.37c.39.56.77,1.12,1.14,1.69l.27.42c.41.66.81,1.34,1.19,2a.56.56,0,0,0,0,.08q.6,1.11,1.14,2.25L90,33q.42.91.81,1.86c.09.22.17.43.25.65.22.56.43,1.14.63,1.71l.21.65c.23.72.45,1.44.64,2.18l.06.18c.2.8.38,1.61.54,2.42,0,.22.08.45.12.67.11.6.21,1.2.29,1.8,0,.28.08.56.11.84.07.58.12,1.17.17,1.77l.06.77c0,.85.08,1.69.08,2.55V64.69A20.86,20.86,0,0,1,97.9,75H98V51C98,50.08,98,49.16,97.91,48.25Z" style="fill:#fff"/></g><g id="Red"><path d="M29,56a2,2,0,0,0-2,2V96a2,2,0,0,0,4,0V58A2,2,0,0,0,29,56Zm44,0a2,2,0,0,0-2,2V96a2,2,0,0,0,4,0V58A2,2,0,0,0,73,56Z" style="fill:#ee6a56"/></g><g id="Blue"><path d="M51,4a46.75,46.75,0,0,0-23.1,6.07L30.84,13a43,43,0,0,1,40.32,0l2.94-2.95A46.75,46.75,0,0,0,51,4Z" style="fill:#86aedd"/></g><g id="Texture_1" data-name="Texture 1" style="opacity:0.101960784313725"><path d="M23,78V76H21v2Zm-4,2H17v2h2Zm0,4H17v2h2Zm0,8h2V90H19Zm0-16h2V74H19Zm0,8h2V82H19Zm4-14V68H21v2Zm0,12V80H21v2Zm-4-2h2V78H19Zm4-14V64H21v2Zm0,8V72H21v2ZM19,88h2V86H19Zm-2,0v2h2V88Zm-2-6v2h2V82Zm8,11.87V92H21v1.5A16.41,16.41,0,0,0,23,93.87ZM15,78v2h2V78Zm0,12.72A18.78,18.78,0,0,0,17,92V90H15ZM15,74v2h2V74Zm4,18.88V92H17A15.91,15.91,0,0,0,19,92.88ZM19,76H17v2h2ZM15,86v2h2V86Zm8,0V84H21v2ZM15,70v2h2V70Zm4-2H17v2h2Zm0,4H17v2h2Zm0-8H17v2h2Zm-4,2v2h2V66Zm0-2.72V64h2V62A18.78,18.78,0,0,0,15,63.28ZM23,90V88H21v2ZM83,66H81v2h2Zm0,8H81v2h2Zm0-4H81v2h2Zm-4-2v2h2V68Zm0-7.87V62h2V60.5A16.41,16.41,0,0,0,79,60.13ZM83,62H81v2h2Zm0,20H81v2h2ZM79,64v2h2V64Zm4-2.88V62h2A15.91,15.91,0,0,0,83,61.12ZM19,72h2V70H19Zm64-2h2V68H83Zm0,4h2V72H83Zm0-10v2h2V64Zm4-.72A18.78,18.78,0,0,0,85,62v2h2ZM83,78h2V76H83Zm0,12h2V88H83Zm0-4h2V84H83Zm0-4h2V80H83Zm0,4H81v2h2Zm0-8H81v2h2Zm4-10V66H85v2Zm0,4V70H85v2Zm0,4V74H85v2Zm0,4V78H85v2ZM21,62h2V60.13a16.41,16.41,0,0,0-2,.37Zm-2,2h2V62H19ZM87,84V82H85v2ZM19,68h2V66H19Zm-2-6h2v-.88A15.91,15.91,0,0,0,17,62ZM85,92H83v.88A15.91,15.91,0,0,0,85,92Zm-6-8v2h2V84Zm0,4v2h2V88Zm0-8v2h2V80Zm0-4v2h2V76Zm8,12V86H85v2ZM79,72v2h2V72Zm8,18.72V90H85v2A18.78,18.78,0,0,0,87,90.72Zm-8,3.15a16.41,16.41,0,0,0,2-.37V92H79ZM81,92h2V90H81Z"/></g><g id="Inner_Lines" data-name="Inner Lines" style="opacity:0.149019607843137"><path d="M27,63h4V61H27Zm0,6h4V67H27Zm0,6h4V73H27Zm0,6h4V79H27Zm0,6h4V85H27Zm0,6h4V91H27ZM71,61v2h4V61Zm0,8h4V67H71Zm0,6h4V73H71Zm0,6h4V79H71Zm0,6h4V85H71Zm0,6h4V91H71Z" style="fill:#313e4b"/></g><g id="Outline" style="opacity:0.850980392156863"><path d="M51,0A51,51,0,0,0,0,51V77a2,2,0,0,0,2,2H4.1A21,21,0,0,0,23.32,97.91,6,6,0,0,0,35,96V58a6,6,0,0,0-11.68-1.92A20.9,20.9,0,0,0,12,60.54V51a39,39,0,0,1,78,0v9.54a20.9,20.9,0,0,0-11.32-4.46A6,6,0,0,0,67,58V96a6,6,0,0,0,11.68,1.91A21,21,0,0,0,97.9,79H100a2,2,0,0,0,2-2V51A51,51,0,0,0,51,0ZM27,58a2,2,0,0,1,4,0V96a2,2,0,0,1-4,0ZM75,96a2,2,0,0,1-4,0V58a2,2,0,0,1,4,0ZM23,60.13V93.87a17,17,0,0,1,0-33.74ZM8,51V64.69A20.86,20.86,0,0,0,4.1,75H4V51A47,47,0,0,1,24.42,12.24l2.88,2.89A42.93,42.93,0,0,0,8,51ZM71.16,13a43,43,0,0,0-40.32,0L27.9,10.07a47,47,0,0,1,46.2,0ZM79,93.87V60.13a17,17,0,0,1,0,33.74ZM98,51V75h-.1A20.86,20.86,0,0,0,94,64.69V51A42.93,42.93,0,0,0,74.7,15.13l2.88-2.89A47,47,0,0,1,98,51Z"/></g></g></g></svg>