<svg id="Layer_1" data-name="Layer 1" xmlns="http://www.w3.org/2000/svg" viewBox="0 0 720.78 407.06"><title>logoColor</title><path d="M325.26,86.3c6.36-14.27,17.6-10.37,19.55-5.15L340.64,84c-2.35-4.14-6.7-3.06-9.68,3.76l-2.26,5.14c-2.45,5.67-5.3,10.73-12.54,11.85,3.52,2.94,4.25,7.51,1.3,14.13L309.35,137c-.79,1.69-.85,4.92,1.5,5.78l-2.32,5.14c-5.78-2.19-6.65-8.29-4.44-13.23l8.11-18.05c2.57-5.75,1.21-9.68-3.46-11.79l-4,8.93c-16.22,36-52.67,18.38-42.59-3.81,3.69-8.12,10.37-9.12,10.37-9.12l1.71,4.79a13.28,13.28,0,0,0-6.76,6.56c-7.12,15.7,19.36,27.34,32-.85l11.11-24.75c-6.79,4.37-18.14,5.71-20.67,11.32-2.69,5.89,3.3,7.67,3.3,7.67l-2.06,4.54c-4.58-1.28-10.24-6.13-6.71-14,4.47-10,19.44-8.1,30.19-18.55l4,5.47-8.15,18.19c5.87.69,9.82-3.71,12.61-9.93Z"/><path d="M343.74,101.85a3.28,3.28,0,0,0-.76-3.73l-1-1.06c-6.35,10.64-14.3,23.84-17.18,27.94a9.54,9.54,0,0,1-2.72-2c4.22-6.1,12.85-20.92,17.3-28.6l-.58-.65c-2.68-2.83-2.74-6.63.69-10.4l3.83,3.42a2.6,2.6,0,0,0,0,3.87l4.16,4.1c2.44,2.4,3.76,4.65,1.87,8.91l-5.46,12.3c-1.27,2.78-.34,3.71,1.13,3.57,2.94-.3,7.16-5.18,11.39-11.23l.39-.55a5.76,5.76,0,0,1,2.73,2c-4.85,7-10.58,13.47-16.07,14s-7.81-3.8-5.5-9Z"/><path d="M373.21,106a5.75,5.75,0,0,1,2.72,2c-4.84,6.94-10.57,13.46-16.06,14s-7.81-3.79-5.5-9l11-24.47,6.64-.68-11.72,26.3C359,117,360,118,361.43,117.8c2.94-.3,7.16-5.18,11.38-11.22Zm-1.49-29.28a3.89,3.89,0,0,1,4.3,3.5,3.84,3.84,0,0,1-3.51,4.23A3.78,3.78,0,0,1,368.29,81,3.84,3.84,0,0,1,371.72,76.74Z"/><path d="M371.27,115.51l3.93-2.59s1.14,2.34,3.37,2.11c6.33-.64,3.67-12.89,5.59-20.06-2.05,3.37-4.9,8.37-8.23,13.1a9.72,9.72,0,0,1-2.72-2c5.29-7.64,10.41-16.93,12.78-21l5.25,2.18c-3.22,8.91-1.79,18.57-3.26,25.11a41.66,41.66,0,0,0,7.26-8l.39-.55a4.23,4.23,0,0,1,2.73,2c-4.4,6.32-10.56,12.37-17.24,13.95-.07,0-.12.08-.19.08-.63.13-1.2.25-1.84.32A7.26,7.26,0,0,1,371.27,115.51Z"/><path d="M399.74,81.9l6-.6,5.15-11.5,6.65-.67-5.16,11.49,5.49-.56-1.59,3.39-5.43.55-11.72,26.3c-1.27,2.77-.34,3.71,1.13,3.56,2.94-.3,7.16-5.18,11.38-11.22l.4-.56a5.8,5.8,0,0,1,2.72,2c-4.84,6.94-10.57,13.46-16.06,14s-7.81-3.79-5.5-9l11-24.48-6.07.61Z"/><path d="M428.47,100.42a5.84,5.84,0,0,1,2.72,2c-4.85,7-10.57,13.47-16.07,14s-7.8-3.8-5.49-9l11-24.48,6.65-.67-11.73,26.29c-1.27,2.78-.33,3.71,1.14,3.57,2.94-.3,7.15-5.18,11.38-11.23ZM427,71.14a3.89,3.89,0,0,1,4.29,3.5,3.84,3.84,0,0,1-3.51,4.23,3.78,3.78,0,0,1-4.22-3.45A3.84,3.84,0,0,1,427,71.14Z"/><path d="M459.83,97.24a5.8,5.8,0,0,1,2.73,2c-4.85,7-10.58,13.47-16.07,14s-7.81-3.79-5.5-9l7.11-15.89c2.37-5.21-2.33-6.41-11.2,7.33l-8.36,18.73-6.71.68,15.22-33.81,6.64-.68-2.05,4.6c3-3.79,5.82-5.62,8.7-5.92,3.7-.37,6.82,3,4.46,8.33l-7.88,17.77c-1.27,2.78-.34,3.71,1.13,3.57,2.94-.3,7.16-5.18,11.39-11.23Z"/><path d="M96.1,300.19a11.09,11.09,0,0,1,3.16,3.26,9.88,9.88,0,0,1,1.53,5.7v8.14H63.12V310a15.35,15.35,0,0,1,.71-5.29,10.94,10.94,0,0,1,1.63-2.95c.61-.75,1.19-1.5,1.73-2.24a5,5,0,0,0,.82-3c-.68-3.66-1.16-6.72-1.43-9.16s-.54-4.38-.81-5.8a7.58,7.58,0,0,0-1.12-3.06,2.55,2.55,0,0,0-2.14-.91H43.78a6.37,6.37,0,0,0-2.65.4c-.54.28-.88,1-1,2.25a27.12,27.12,0,0,0-.3,3.66,54.62,54.62,0,0,1-.51,5.5c-.28,2.17-.55,4.55-.82,7.12a6.26,6.26,0,0,0,.72,3.36c.47.75.94,1.53,1.42,2.35a29.88,29.88,0,0,1,1.43,2.84,12.94,12.94,0,0,1,.71,4.89v7.33H5.7v-8.14a9.47,9.47,0,0,1,1-4.79A14.74,14.74,0,0,1,9,301.41c.81-.81,1.66-1.63,2.54-2.44a7.18,7.18,0,0,0,1.94-3.06l11.4-53.75q2-10,4.17-19.65t3.77-17.31q1.63-7.63,2.65-12.42c.68-3.18,1-4.85,1-5v-1a3.82,3.82,0,0,0-.92-2.65q-.91-1-2-2.34a14.3,14.3,0,0,1-2-3.36,15.59,15.59,0,0,1-.92-6.11V165c7.2,0,13.06,0,17.61-.1a54,54,0,0,1,10.9.71,11.51,11.51,0,0,1,6,2.75,12.65,12.65,0,0,1,3,5.8c.13.55.57,2.68,1.32,6.42s1.73,8.48,3,14.25,2.58,12.29,4.07,19.55,3,14.62,4.48,22.09q5.3,26.27,12.22,59.45a6,6,0,0,0,1.22,2.55A14.4,14.4,0,0,0,96.1,300.19ZM60.88,258.45c1.76,0,2.51-.75,2.24-2.24l-4.89-28.1q-1-5.3-1.83-10.38c-.54-3.4-1-6.45-1.53-9.17S54,203.64,53.75,202s-.4-2.62-.4-2.75h-.41c0,.13-.2,1.52-.61,4.17s-.95,6-1.63,10.08-1.43,8.52-2.24,13.34-1.6,9.33-2.34,13.54-1.36,7.8-1.83,10.79-.72,4.68-.72,5.09c-.13,1,0,1.56.31,1.83a5.34,5.34,0,0,0,2.75.41H60.88Z" style="fill:#ea3257"/><path d="M202.6,165v8.55a32.49,32.49,0,0,1-.41,5.3,7,7,0,0,1-2.65,4.27,12.84,12.84,0,0,0-1.32,1.53,4.6,4.6,0,0,0-.51,2.54V312.61a5.33,5.33,0,0,1-1,3.36,3.85,3.85,0,0,1-3.26,1.32H181.62a4.84,4.84,0,0,1-4.37-2.44,31.51,31.51,0,0,1-2.75-5.7c-.28-.82-1.16-3.12-2.65-6.92s-3.23-8.32-5.19-13.55-4.11-10.79-6.42-16.69-4.41-11.37-6.31-16.39-3.49-9.2-4.78-12.53-1.94-5-1.94-5.19-.07-.44-.2-.51-.2.24-.2.92V295.1a4.89,4.89,0,0,0,.61,2.85,14.76,14.76,0,0,0,1.42,1.63A16.14,16.14,0,0,1,152.1,303a9.41,9.41,0,0,1,1.63,5.7v8.55H116.06v-8.55a10.2,10.2,0,0,1,1.43-5.29,15.57,15.57,0,0,1,3.66-4.28,9.15,9.15,0,0,0,1.43-1.73,5,5,0,0,0,.4-2.34V185.55a8,8,0,0,1-3.46-2,9.91,9.91,0,0,1-2.44-3.46,13.78,13.78,0,0,1-1-5.7V165h17.71a14.72,14.72,0,0,1,5.3,1.12q2.85,1.13,4.48,5.8.19.42,2.24,5.5t5,12.83q2.94,7.74,6.51,16.9t6.82,17.61q3.25,8.44,5.7,15.07t3.26,9.26c.14.41.27.44.41.1a3.06,3.06,0,0,0,.2-1.12V187.18a4.94,4.94,0,0,0-.61-2.85,15.74,15.74,0,0,0-1.42-1.63,15.67,15.67,0,0,1-3.26-3.46,9.41,9.41,0,0,1-1.63-5.7V165Z" style="fill:#ea3257"/><path d="M300,167c1.43,1.35,2.14,3.8,2.14,7.33v18.93h-9q-5.91,0-8.75-5.7a4.29,4.29,0,0,0-2.45-2.44,9.17,9.17,0,0,0-2.44-.41h-3.87a3,3,0,0,0-2.14.92,3.44,3.44,0,0,0-.91,2.54V295.1a7,7,0,0,0,.71,2.85,4.4,4.4,0,0,0,1.53,1.42,14.41,14.41,0,0,1,3.15,3.47,9.88,9.88,0,0,1,1.53,5.7v8.75H242.1v-8.75a9.41,9.41,0,0,1,1.63-5.7,16.2,16.2,0,0,1,3.25-3.47,4.4,4.4,0,0,0,1.53-1.42,5.71,5.71,0,0,0,.51-2.85V187.79a2.66,2.66,0,0,0-1-2.34,3.57,3.57,0,0,0-2-.71H242.5a7.77,7.77,0,0,0-2.54.71,4.8,4.8,0,0,0-2.55,2.34,19.18,19.18,0,0,1-2.34,4.28q-1.12,1.43-6.21,1.43H219.7V174.36c0-3.12.51-5.47,1.53-7s3.29-2.34,6.82-2.34H293Q297.89,165,300,167Z" style="fill:#ea3257"/><path d="M407,173.75v.2a11,11,0,0,1-4.68,9,13,13,0,0,0-1.43,1.22,3.31,3.31,0,0,0-.81,1.83V294.9a4.88,4.88,0,0,0,.61,2.84,9,9,0,0,0,1.63,1.63,14.64,14.64,0,0,1,3.16,3.47,10,10,0,0,1,1.52,5.7v8.75H369.15v-8.75a9.41,9.41,0,0,1,1.63-5.7,16,16,0,0,1,3.26-3.47,8.33,8.33,0,0,0,1.52-1.52,4.14,4.14,0,0,0,.51-2.34v-44.8c0-1.9-1-2.85-3.05-2.85h-20a3.11,3.11,0,0,0-2.13.81,2.64,2.64,0,0,0-.92,2V295.1a4.43,4.43,0,0,0,.61,2.64,14,14,0,0,0,1.43,1.63,16.2,16.2,0,0,1,3.25,3.47,9.41,9.41,0,0,1,1.63,5.7v8.75H319.27v-8.75a9.47,9.47,0,0,1,1.62-5.7,16.22,16.22,0,0,1,3.26-3.47,6.55,6.55,0,0,0,1.53-1.63,5.15,5.15,0,0,0,.51-2.64V187.39a5.71,5.71,0,0,0-.51-2.85,6.73,6.73,0,0,0-1.53-1.63,10.48,10.48,0,0,1-4.88-9v-9h37.66v9a10.8,10.8,0,0,1-1.32,5,10.1,10.1,0,0,1-3.56,4,12.11,12.11,0,0,0-1.33,1.52,5.26,5.26,0,0,0-.71,2.35v38.28a2.66,2.66,0,0,0,1,2.34,3.55,3.55,0,0,0,2,.71h20.16a2.56,2.56,0,0,0,2.14-.92,3.4,3.4,0,0,0,.71-2.13V187.39a5.71,5.71,0,0,0-.51-2.85,6.87,6.87,0,0,0-1.52-1.63,11.55,11.55,0,0,1-4.89-9v-9H407Z" style="fill:#ea3257"/><path d="M463.42,318.92a52.89,52.89,0,0,1-14.15-1.83,33.17,33.17,0,0,1-11.61-5.7,28.47,28.47,0,0,1-7.94-9.67,29.46,29.46,0,0,1-3-13.54V193.7a29.46,29.46,0,0,1,3-13.54,27.38,27.38,0,0,1,7.94-9.57,35.76,35.76,0,0,1,11.61-5.7A50.19,50.19,0,0,1,463.42,163a51.34,51.34,0,0,1,14.26,1.94,35.55,35.55,0,0,1,11.7,5.7,27.27,27.27,0,0,1,7.94,9.57,29.46,29.46,0,0,1,3,13.54v94.48a29.46,29.46,0,0,1-3,13.54,28.35,28.35,0,0,1-7.94,9.67,33,33,0,0,1-11.7,5.7A54.1,54.1,0,0,1,463.42,318.92Zm13-122.78q0-7.94-3.66-10.69a15.21,15.21,0,0,0-9.37-2.75,14.85,14.85,0,0,0-9.16,2.75q-3.66,2.76-3.67,10.69v89.59q0,7.95,3.67,10.79a14.41,14.41,0,0,0,9.16,2.85,13.87,13.87,0,0,0,9.37-3.15q3.66-3.15,3.66-11.3Z" style="fill:#ea3257"/><path d="M606.56,165v8.55a32.49,32.49,0,0,1-.41,5.3,7,7,0,0,1-2.64,4.27,12.13,12.13,0,0,0-1.33,1.53,4.6,4.6,0,0,0-.51,2.54V312.61a5.33,5.33,0,0,1-1,3.36,3.85,3.85,0,0,1-3.25,1.32H585.59a4.87,4.87,0,0,1-4.38-2.44,32.19,32.19,0,0,1-2.75-5.7c-.27-.82-1.15-3.12-2.65-6.92s-3.22-8.32-5.19-13.55-4.1-10.79-6.41-16.69-4.41-11.37-6.31-16.39-3.5-9.2-4.79-12.53-1.93-5-1.93-5.19-.07-.44-.21-.51-.2.24-.2.92V295.1a4.89,4.89,0,0,0,.61,2.85,14.9,14.9,0,0,0,1.43,1.63,16.12,16.12,0,0,1,3.25,3.46,9.41,9.41,0,0,1,1.63,5.7v8.55H520v-8.55a10.29,10.29,0,0,1,1.43-5.29,15.74,15.74,0,0,1,3.66-4.28,8.77,8.77,0,0,0,1.43-1.73,5,5,0,0,0,.41-2.34V185.55a7.94,7.94,0,0,1-3.46-2,9.8,9.8,0,0,1-2.45-3.46,13.78,13.78,0,0,1-1-5.7V165h17.72a14.67,14.67,0,0,1,5.29,1.12q2.85,1.13,4.48,5.8c.14.28.88,2.11,2.24,5.5s3,7.67,5,12.83,4.14,10.79,6.52,16.9l6.82,17.61q3.25,8.44,5.7,15.07t3.26,9.26c.13.41.27.44.4.1a2.87,2.87,0,0,0,.21-1.12V187.18a5,5,0,0,0-.61-2.85,17.2,17.2,0,0,0-1.43-1.63,15.91,15.91,0,0,1-3.26-3.46,9.41,9.41,0,0,1-1.63-5.7V165Z" style="fill:#ea3257"/><path d="M707.14,165v8.76a9.92,9.92,0,0,1-1.52,5.7,18,18,0,0,1-3,3.46,20,20,0,0,0-2,1.22,3.93,3.93,0,0,0-1.63,2.44c-.14.28-.54,1.5-1.22,3.67s-1.56,4.92-2.65,8.24-2.31,7.1-3.66,11.3-2.72,8.49-4.08,12.83Q682.52,237.88,676.6,257v38.89a5.3,5.3,0,0,0,.71,2.34,6,6,0,0,0,1.33,1.33A16.39,16.39,0,0,1,681.9,303a9.47,9.47,0,0,1,1.62,5.7v8.55H646.87v-8.55a9.88,9.88,0,0,1,1.53-5.7,14.36,14.36,0,0,1,3.16-3.46,9.28,9.28,0,0,0,1.63-1.63,5,5,0,0,0,.61-2.85V257l-11.4-35q-2.25-6.51-4.28-12.83t-3.67-11.4c-1.08-3.39-2-6.14-2.64-8.24a25.75,25.75,0,0,1-1-3.57,5.39,5.39,0,0,0-1.22-1.83,10.17,10.17,0,0,0-1.43-1.22,13,13,0,0,1-3-3.46,10.48,10.48,0,0,1-1.43-5.7V165h35v9.57a16,16,0,0,1-.71,5.5,5.72,5.72,0,0,1-2.34,2.85,19.31,19.31,0,0,0-2,1.42A2.46,2.46,0,0,0,653,187a18.94,18.94,0,0,0,.61,2.65q.61,2.24,1.43,5.49c.54,2.18,1.19,4.62,1.93,7.33s1.46,5.44,2.14,8.15q2.45,9.77,5.5,21.79H665q3.45-12.22,6.1-22,2.25-8.57,4.18-15.58t2.34-8a2,2,0,0,0-.92-2.45l-2.34-1.42a4.25,4.25,0,0,1-1.93-3.26,44.24,44.24,0,0,1-.31-5.9V165Z" style="fill:#ea3257"/><line x1="681.23" y1="105.56" x2="491.23" y2="105.56" style="fill:#fff;stroke:#000;stroke-width:3px"/><path d="M96.82,392.24v2.37H81.69V371.73h2.4v20.51Z"/><path d="M154.33,371.73l-8.39,11.46,8.39,11.42h-3l-6.88-9.41-6.91,9.41h-3L143,383.19l-8.39-11.46h3l6.91,9.44,6.88-9.44Z"/><path d="M257.08,383.15a11.44,11.44,0,0,1-11.42,11.46h-7.3V371.73h7.3A11.43,11.43,0,0,1,257.08,383.15Zm-2.37,0a9.06,9.06,0,0,0-9.05-9h-4.9v18.14h4.9A9.07,9.07,0,0,0,254.71,383.15Z"/><path d="M294.84,371.73h15.07v2.4H297.24V382h9.25v2.4h-9.25v7.84h12.67v2.4H294.84Z"/><path d="M364.41,388.31c0,3.48-3.33,6.3-7.4,6.3h-1.95c-4.06,0-7.39-2.82-7.39-6.3v-.13l0-.9h2.5l0,1c-.07,2.14,2.21,3.9,4.89,3.9H357c2.69,0,4.9-1.76,4.9-3.9s-2.21-3.94-4.9-3.94h-.89a9.82,9.82,0,0,1-4-.8c-2.53-1.47-3.75-3.26-3.75-5.54,0-3.45,3.33-6.3,7.39-6.3h.58c3.94,0,7.2,2.62,7.39,6l.07,1h-2.5l-.06-.86c-.16-2.08-2.31-3.68-4.9-3.68h-.58c-2.68,0-4.86,1.76-4.86,3.9s2.05,3.88,4.61,3.94h1.18v0a11.6,11.6,0,0,1,1.67.1h.09A6.52,6.52,0,0,1,364.41,388.31Z"/><path d="M407.54,374.13v18.11h3.91v2.37H401.24v-2.37h3.9V374.13h-3.9v-2.4h10.21v2.4Z"/><path d="M457.81,384.18h11.68l-.12,1.25c-.61,5.43-5.76,9.18-11.24,9.18a11.44,11.44,0,1,1,11.11-14.14h-2.47a9.05,9.05,0,1,0-.22,6.11h-8.74Z"/><path d="M523.51,371.73h2.4v22.88H524l-14.34-18.34v18.34h-2.39V371.73h1.92l14.33,18.34Z"/><path d="M563.67,371.73h15.07v2.4H566.07V382h9.25v2.4h-9.25v7.84h12.67v2.4H563.67Z"/><path d="M621.78,384.37l11.55,10.24h-3.55l-10.88-9.7v9.7h-2.4V371.73h9.06a6.32,6.32,0,0,1,0,12.64ZM618.9,382h6.66a3.92,3.92,0,0,0,0-7.84H618.9Z"/><line x1="231.23" y1="106.56" x2="41.23" y2="106.56" style="fill:#fff;stroke:#000;stroke-width:3px"/><polygon points="360.39 0 366.58 19.06 386.63 19.06 370.41 30.14 376.61 48.85 360.39 36.9 344.18 48.59 350.37 30.19 334.16 19.06 354.2 19.06 360.39 0" style="fill:#ea3257"/><line x1="680.39" y1="359.06" x2="40.39" y2="359.06" style="fill:#fff;stroke:#000;stroke-width:2px"/><line x1="680.39" y1="406.06" x2="40.39" y2="406.06" style="fill:#fff;stroke:#000;stroke-width:2px"/></svg>