<svg width="192" height="192" viewBox="0 0 192 192" xmlns="http://www.w3.org/2000/svg" xmlns:xlink="http://www.w3.org/1999/xlink">
  <title>
    foreminds
  </title>
  <defs>
    <rect id="a" width="192" height="192" rx="27"/>
  </defs>
  <g fill="none" fill-rule="evenodd">
    <mask id="b" fill="#fff">
      <use xlink:href="#a"/>
    </mask>
    <use fill="#0073A1" xlink:href="#a"/>
    <g mask="url(#b)" fill-rule="nonzero" fill="#FFF">
      <path d="M89.3 64.8c-3.6-2-8.8-1.8-11.7 2 0 0 0 .3-.2.4C71 67.2 65.8 72.6 66 79c0 1.4.2 2.7.6 3.8-2 1.2-3.6 3.4-4.3 6.2-1 4.4.5 9 3.8 11.8h.3c-1.3 2-1.6 4.8-1.4 6.5.5 4 4 7.3 8 8-.5 1.3-.8 2.8-1 4.3 0 3 1 6 2.8 7.8 2 2 5 3.2 7.7 3.2h1c2.4-.3 4.6-1.6 6-3.6v-.5c1-.2 1.5-.5 2-.8 2-1.4 3-4.2 2.6-7 0-1.6-1-3-2-4 1.8-1.8 3-4.3 3-7 0-2.8-1.3-5.3-3-7 1.8-2.5 2.8-5.5 2.7-8.7 0-2.7-.7-5.2-2-7.4 2-3.3 3-7.8 2.3-11.4-.7-3.7-2.8-6.8-5.7-8.4zM90.6 82c-.6-.6-1.5-.6-2 0-.7.6-.7 1.6 0 2.2 2 2 3 4.8 3 7.8 0 2.5-.7 5-2 7-1.3-.6-2.6-1-4-1-.8 0-1.5.8-1.5 1.7 0 .8.8 1.5 1.7 1.5 3.4 0 6 3 6 6.4.2 3.6-2.5 6.5-6 6.5-.7 0-1.4.8-1.4 1.7 0 .8.7 1.5 1.5 1.5 1.2 0 2.3-.2 3.4-.7 1.3.7 1.8 2 2 2.7 0 1.6-.5 3.3-1.5 4-1.2.8-2.7.3-3.7-.2-.7-.5-1.7-.2-2 .5-.5.8-.3 1.7.5 2 .5.4 1 .6 1.5.8-1 .8-2 1-3 1-2 .3-4.5-.6-6-2-1.3-1.4-2-3.3-1.8-5.5 0-2.7 1.3-5.3 3.2-7h.2c.6-.5 1.3-1 2-1.2 1-.3 1.3-1.2 1-2-.3-.8-1.2-1.2-2-1-1 .5-2 1-3 1.7l-.2.3-1.6 1.7h-.4c-2.8 0-6-2-6.4-5.4-.2-1.5.2-3.6 1-4.5 1 .3 2 .5 3 .5s2-.2 3-.5c.8-.3 1.2-1.2 1-2-.3-.8-1.2-1.2-2-1-2 .8-4.2.3-6-1-2.8-2.5-3.2-6.3-2.6-8.8.4-2 1.4-3.5 2.8-4.2 1.8 2 4.3 3.3 6.8 3.8 2.5.7 2 4.6 2 4.7-.2 1 .4 1.7 1.2 1.8h.3c.7 0 1.4-.5 1.5-1.3.2-1.3.2-3.3-.6-5 3.4-.8 5-3.2 5.2-3.3.5-.7.3-1.6-.4-2-.7-.6-1.6-.4-2 .2-.2.2-2.2 3-6.5 2C74 86 69 84.3 69 79c0-2.3.8-4.5 2.4-6 1.6-1.8 3.8-2.7 6-2.7 1.5 0 3 .3 4.2 1 .7.4 1.7 0 2-.7.4-.7.2-1.7-.6-2-.6-.4-1.3-.6-2-.8 2-1.5 4.7-1.3 6.8-.2 2 1 3.6 3.4 4.2 6.2.5 2.5 0 5.7-1.4 8.2zM114.3 66.4c-3-3.8-8.3-3.7-11.8-1.7-4 2.3-6 7.4-5.8 11.2 0 2 .6 4 1.6 5.6-2 3.4-2 7.8-2 9.8.3 2.4 1 6.7 4.6 9.2-2 1.8-3.3 4.5-3.3 7.3 0 2 .7 4 2 5.7-2.5 2-3.8 5-3.5 8 .2 3.6 2.2 6.7 5.2 8 .7.3 1.7.6 3 .6 1.6 0 3.7-.5 6-2.3h2.7c2.7-.5 5-2.4 6.2-5 1-2 .8-5.3-.3-7.8 4.4-.2 8.4-3.7 9-8.2.2-1.8-.2-4.5-1.6-6.4l.3-.2c2.8-2.8 3.7-8.5 2-12.8-1.2-2.8-3.3-4.7-6-5.5.4-.7.8-1.6 1-2.5 1-3.3.2-6.6-1.7-9-1.7-2.2-4.4-3.5-7.4-3.7l-.3-.4zm6.4 12.3c-.5 2-1.8 3.7-3.5 4.6-1.7.8-3.7 1-5.7 0-.7-.2-1.6 0-2 1-.3.7 0 1.6 1 2 1.2.5 2.6.7 4 .7 1.3 0 2.8-.3 4-1l2-1c3 0 4.6 2 5.3 3.7 1.3 3.2.7 7.5-1.3 9.4-1.5 1.6-3.8 2-5.8 1.4-.8-.2-1.7.2-2 1-.3.8.2 1.7 1 2 1 .3 2 .4 2.8.4 1 0 2.2-.2 3.2-.6 1 1 1.4 3 1.2 4.4-.5 3.4-3.6 5.5-6.4 5.5-4 0-4.5-3.5-4.5-4.3 0-.8-.7-1.5-1.5-1.5s-1.5.7-1.5 1.6c0 1 .3 2.4 1 3.7-.6 0-1 .3-1.7.5-.8.4-1.2 1.3-.8 2 .3 1 1.2 1.2 2 1 1.6-.8 2.8-.7 3.7.2 1.5 1.6 2 4.8 1 6.5-.6 1.7-2 3-3.7 3.2-1.5.2-3-.3-4.3-1.5-.6-.6-1.6-.6-2.2 0-.6.6-.6 1.6 0 2.2l1 .8c-1.5.8-3 1-4.4.3-1.8-.8-3.2-2.8-3.3-5.2-.2-2.6 1-5 3.5-6.4.7-.5 1-1.4.5-2 0-.4-.3-.5-.5-.6-1.3-1.2-2-3-2-4.7 0-2.3 1-4.3 2.7-5.6.2 0 .3-.3.4-.5l2.2.2c1 0 2 0 2.8-.5 1.5-.6 2.4-1.8 2.8-3.4.2-.8-.4-1.6-1.2-1.8-.8-.2-1.7.3-1.8 1.2-.2.6-.5 1-1 1.2-1.4.5-3.5 0-4.7-.7-2.7-1.6-3.4-5.2-3.5-7-.3-4 .5-7.3 2.2-9 .6-.7.6-1.6 0-2.2-.3-.2-.6-.3-1-.3-.6-1.2-1-2.5-1-3.8 0-3 1.5-7 4.4-8.6 2-1 4.8-1.3 6.7 0-.6 0-1.2.4-1.8.7-.8.5-1 1.5-.7 2.2.4.8 1.4 1 2 .6 1-.5 2.2-.8 3.3-1 0 .2.3.2.4 0 2.4.2 4.3 1 5.6 2.6 1.3 1.6 1.7 4 1 6.3zM95.6 29.2c-.8 0-1.5.7-1.5 1.6v16c0 1 .6 1.7 1.5 1.7.8 0 1.5-.7 1.5-1.5V30.8c.2-.8-.5-1.5-1.4-1.6zM64.4 39c-.4-.8-1.4-1-2-.6-1 .4-1 1.3-.7 2l8 14c.3.6.8 1 1.3 1 .3 0 .5 0 .8-.3.7-.3 1-1.2.6-2l-8-14zM52.5 73.3l.8.2c.5 0 1-.3 1.3-.8.4-.7.2-1.7-.6-2l-14-8.3c-.6-.4-1.6-.2-2 .6-.4.7-.2 1.6.5 2l14 8.3zM30.8 95c-1 0-1.5.5-1.6 1.4 0 .8.7 1.5 1.6 1.5h16c1 0 1.7-.6 1.7-1.5 0-.8-.7-1.5-1.5-1.5H30.8zM39.7 130.5c.3 0 .5 0 .8-.2l14-8c.8-.4 1-1.3.6-2-.3-.8-1.2-1-2-.7l-14 8c-.8.4-1 1.4-.6 2 .3.6.8 1 1.3 1zM70.6 138l-8.2 14c-.4.6-.2 1.6.6 2l.7.2c.6 0 1-.3 1.4-.7l8.3-14c.4-.7 0-1.7-.6-2-.7-.5-1.7-.3-2 .5zM96.5 143.5c-.8 0-1.5.7-1.5 1.5v16.2c-.2.8.5 1.5 1.4 1.6.8 0 1.5-.7 1.5-1.6v-16c0-1-.6-1.7-1.5-1.7zM120.2 137c-.7.3-1 1.2-.6 2l8 14c.3.5.8.8 1.4.8.2 0 .5 0 .7-.2.8-.4 1-1.3.6-2l-8-14c-.4-1-1.3-1-2-.7zM138 121.4l14 8.2.7.2c.5 0 1-.3 1.3-.8.4-.7.2-1.6-.5-2l-14-8.3c-.7-.4-1.7 0-2 .6-.5.7-.3 1.7.5 2zM161.2 97c1 0 1.5-.5 1.6-1.4 0-.8-.7-1.5-1.6-1.5h-16c-1 0-1.7.6-1.7 1.5 0 .8.7 1.5 1.5 1.5h16.2zM139 72.4l14-8c.8-.4 1-1.4.6-2-.4-1-1.3-1-2-.7l-14 8c-1 .4-1 1.3-.7 2 .2.6.7 1 1.2 1 .3 0 .5-.2.8-.3zM129 38c-.7-.4-1.6-.2-2 .5l-8.3 14c-.4.7 0 1.7.6 2 .2.2.5.3.8.3.6 0 1-.3 1.4-.8l8.2-14c.4-.6.2-1.6-.6-2z"/>
    </g>
  </g>
</svg>
