<?xml version="1.0" encoding="UTF-8"?>
<svg width="156px" height="156px" viewBox="0 0 156 156" version="1.1" xmlns="http://www.w3.org/2000/svg" xmlns:xlink="http://www.w3.org/1999/xlink">
    <!-- Generator: Sketch 43.1 (39012) - http://www.bohemiancoding.com/sketch -->
    <title>react</title>
    <desc>Created with Sketch.</desc>
    <defs>
        <rect id="path-1" x="0" y="0" width="155.4" height="155.4" rx="27"></rect>
    </defs>
    <g id="Page-1" stroke="none" stroke-width="1" fill="none" fill-rule="evenodd">
        <g id="react">
            <g id="a-link" fill-rule="nonzero" fill="#163133">
                <rect id="a" x="0" y="0" width="155.4" height="155.4" rx="27"></rect>
            </g>
            <g id="Clipped">
                <mask id="mask-2" fill="white">
                    <use xlink:href="#path-1"></use>
                </mask>
                <g id="a"></g>
                <g id="Group" mask="url(#mask-2)" fill-rule="nonzero" fill="#61DAFB">
                    <g transform="translate(16.000000, 22.000000)">
                        <path d="M123.7,55 C123.7,47 113.4,39 97.7,34.3 C101.3,18.3 99.7,5.5 92.7,1.3 C91,0.6 89,0 87,0 L87,5.6 C88,5.6 89,5.9 90,6.3 C93.3,8.3 94.8,15.7 93.6,25.3 C93.3,27.7 92.9,30.3 92.3,32.8 C87.3,31.6 82,30.6 76.3,30 C72.9,25.4 69.3,21 65.9,17.4 C74,9.8 81.7,5.6 87,5.6 L87,0 C80,0 71,5 62,13.5 C52.6,5 43.5,0 36.6,0 L36.6,5.7 C41.8,5.7 49.6,9.9 57.8,17.5 C54.1,21.2 50.6,25.5 47.3,30 C41.6,30.6 36.3,31.6 31.3,32.8 C30.7,30.3 30.3,27.8 30,25.5 C28.8,15.9 30.2,8.5 33.6,6.5 C34.4,5.9 35.4,5.7 36.6,5.7 L36.6,0 C34.4,0 32.6,0.6 30.8,1.5 C23.8,5.5 22.2,18.3 25.8,34.3 C10.4,39 0.2,47 0.2,55 C0.2,63.2 10.4,71 26.2,75.8 C22.5,91.8 24.2,104.6 31.2,108.6 C32.8,109.6 34.8,110.1 36.9,110.1 C43.7,110.1 52.9,105.1 61.9,96.7 C71.2,105 80.2,110 87.2,110 C89.2,110 91.2,109.5 92.9,108.5 C99.9,104.5 101.4,91.7 97.9,75.8 C113.4,71 123.6,63.2 123.6,55 L123.7,55 Z M91,38.2 C90,41.5 88.8,44.8 87.5,48.2 C86.5,46.2 85.5,44.2 84.2,42.2 L80.6,36.2 C84.1,36.8 87.6,37.4 90.9,38.2 L91,38.2 Z M79.4,65.2 L73.4,74.7 C69.4,75 65.7,75.2 61.9,75.2 C57.9,75.2 54.2,75 50.5,74.7 C48.5,71.7 46.5,68.5 44.5,65.1 C42.5,61.9 40.8,58.6 39.2,55.1 C40.7,51.8 42.5,48.5 44.4,45.1 C46.4,41.8 48.4,38.5 50.4,35.5 C54.3,35 58,35 62,35 C65.7,35 69.5,35 73.2,35.4 C75.2,38.4 77.4,41.6 79.2,45 C81.2,48.3 83,51.6 84.6,55 C83,58.4 81.3,61.8 79.4,65 L79.4,65.2 Z M87.4,61.8 C88.9,65.2 90,68.5 91,71.8 C87.7,72.6 84.2,73.3 80.6,73.8 L84.2,67.8 L87.5,61.8 L87.4,61.8 Z M62,88.8 C59.6,86.3 57.3,83.6 55,80.6 L62,80.8 C64.3,80.8 66.6,80.8 69,80.6 C66.6,83.6 64.3,86.3 62,88.6 L62,88.8 Z M43.2,73.8 C39.7,73.3 36.2,72.6 32.9,71.8 C33.9,68.6 34.9,65.2 36.2,61.8 C37.2,63.8 38.2,65.8 39.5,67.8 C40.7,70 41.9,71.8 43.1,73.8 L43.2,73.8 Z M61.8,21.4 C64.2,23.8 66.5,26.4 68.8,29.4 L54.8,29.4 C57.2,26.4 59.5,23.8 61.8,21.4 L61.8,21.4 Z M43.2,36.2 L39.6,42.2 L36.3,48.2 C35,44.9 33.8,41.5 32.8,38.2 L43.2,36.2 Z M20.4,67.8 C11.4,64 5.8,59 5.8,55 C5.8,51 11.5,46 20.4,42.3 C22.6,41.3 25,40.5 27.4,39.7 C28.8,44.7 30.7,49.7 33.1,55.1 C30.9,60.4 29.1,65.5 27.6,70.5 C25.1,69.7 22.6,68.8 20.6,67.9 L20.4,67.8 Z M34,103.8 C30.6,101.8 29,94.3 30.2,84.8 C30.5,82.3 31,79.8 31.5,77.3 C36.5,78.5 41.8,79.3 47.5,80.1 C50.9,84.8 54.5,89.1 58,92.7 C49.8,100.4 42,104.7 36.8,104.7 C35.8,104.5 34.8,104.3 34,103.9 L34,103.8 Z M93.7,84.6 C94.9,94.2 93.4,101.6 90,103.6 C89.3,104.1 88.3,104.3 87,104.3 C82,104.3 74.2,100.3 66,92.6 C69.5,88.9 73,84.6 76.4,80 C82.1,79.4 87.4,78.5 92.4,77.3 C93,79.8 93.4,82.3 93.7,84.6 Z M103.4,67.8 C101.2,68.8 98.8,69.5 96.4,70.3 C95,65.3 93.1,60.3 90.7,55 C93.1,49.8 94.9,44.6 96.3,39.7 C98.8,40.5 101.3,41.4 103.3,42.3 C112.3,46.1 118.1,51.1 118.1,55 C118.1,59 112.4,64 103.5,67.8 L103.4,67.8 Z" id="Shape"></path>
                        <circle id="Oval" cx="61.9" cy="55" r="11.5"></circle>
                    </g>
                </g>
            </g>
        </g>
    </g>
</svg>