<svg width="192" height="192" viewBox="0 0 192 192" xmlns="http://www.w3.org/2000/svg" xmlns:xlink="http://www.w3.org/1999/xlink">
  <title>
    numilli-icon
  </title>
  <defs>
    <linearGradient x1="100%" y1="0%" x2="0%" y2="100%" id="b">
      <stop stop-color="#FDC83E" offset="0%"/>
      <stop stop-color="#FB6D1D" offset="100%"/>
    </linearGradient>
    <rect id="a" width="192" height="192" rx="27"/>
    <path d="M35.7 54v.2zM66.5 72V60h-6.3V41.8h-6V48H35.7v6H48v6.3h6V66h-6v24.3h6V78h6.3v-6.2h6.2zm5.5-24zM126.6 0v41.6H84.4V0h42.2zm-6.2 5.6H90.6v29.8h29.8V5.6zM0 84.3h41.6v42.2H0V84.3zm5.6 36h30V90.5h-30v29.8zm36-78.7H0V0h41.7v41.6zm-6-36h-30v29.8h30V5.6zm12.5 121h12v-6h-5.8v-6h6v-6.2 12.2-24.4l-12-.3v30.6zM30 48H0v12h5.4v-5.8H24v6h6v5.4h11.6V60h-6v-5.8H30v-6zm5.8 6.2zM72 11.5h6V5.7H65.6v12H48v6h24V11.5zM11.6 72zM0 66v6h11.6v-6.3h6v-5.5h-12V66H0zM5.5 60zm6 11.7zM30 78v-6H11.6v6h18.2zM72 41.6h6V30.2H66v5.4h6v6zm-6-6h-.2zm-6-30H48v5.8h12v-6zM48 30v11.5h6V30.2h-6zm6 11.5zM66 48h6v-6.2h-6v6zm6-6.2zM35.6 78h6v-6h-6v6zm30-42.3h-5.5v6h5.6v-6zm-5.5 6zm5.6 0zm48.5-30h-18v18h18v-18zM11.7 114.3h18v-18h-18v18zm18-102.5h-18v18h18V12z" id="d"/>
    <filter x="-50%" y="-50%" width="200%" height="200%" filterUnits="objectBoundingBox" id="e">
      <feGaussianBlur stdDeviation="1" in="SourceAlpha" result="shadowBlurInner1"/>
      <feOffset dy="1" in="shadowBlurInner1" result="shadowOffsetInner1"/>
      <feComposite in="shadowOffsetInner1" in2="SourceAlpha" operator="arithmetic" k2="-1" k3="1" result="shadowInnerInner1"/>
      <feColorMatrix values="0 0 0 0 0   0 0 0 0 0   0 0 0 0 0  0 0 0 0.04 0" in="shadowInnerInner1"/>
    </filter>
  </defs>
  <g fill="none" fill-rule="evenodd">
    <mask id="c" fill="#fff">
      <use xlink:href="#a"/>
    </mask>
    <use fill="url(#b)" xlink:href="#a"/>
    <g mask="url(#c)">
      <g transform="translate(32 33)" fill-rule="nonzero">
        <use fill="#FFF" fill-rule="evenodd" xlink:href="#d"/>
        <use fill="#000" filter="url(#e)" xlink:href="#d"/>
      </g>
      <path d="M155.7 104c-.8-8.8-8.3-11.7-17.8-12.6v-12h-7.4V91h-6V79.4h-7.2v12H102.5v8s5.4-.2 5.3 0c3 0 4 1.6 4.3 3v14h.8-.8v19.2c-.2 1-.8 2.4-2.8 2.4h-5.4l-1.5 8.7H117V159h7.3v-12h6l-.2 12h7.4v-12c12.4-.8 21-4 22.2-15.5.8-9.3-3.6-13.5-10.6-15.2 4.3-2.2 7-6 6.3-12.4zm-10.3 26c0 9.2-15.7 8-20.7 8v-16c5 0 20.7-1.5 20.7 8zm-3.4-22.8c0 8.3-13 7.3-17.2 7.3V99.8c4.2 0 17.2-1.3 17.2 7.4z" fill="#FFF" fill-rule="nonzero"/>
    </g>
  </g>
</svg>
